{"glyphs":{"0":{"ha":881,"x_min":90,"x_max":792,"o":"m 435 -12 q 174 115 257 -12 q 90 433 90 243 q 139 665 90 564 q 270 821 188 765 q 453 876 353 876 q 713 758 635 876 q 792 443 792 640 q 745 210 792 314 q 617 47 699 106 q 435 -12 536 -12 m 439 51 q 614 151 558 51 q 669 431 669 251 q 444 813 669 813 q 268 717 325 813 q 211 450 211 621 q 266 166 211 281 q 439 51 321 51 z "},"1":{"ha":594,"x_min":56,"x_max":564,"o":"m 269 740 q 176 710 240 728 q 69 686 113 692 l 56 751 q 194 801 125 767 q 314 879 264 836 l 315 879 l 382 865 l 382 71 l 564 60 l 564 0 l 83 0 l 83 60 l 269 71 l 269 740 z "},"2":{"ha":825,"x_min":72,"x_max":776,"o":"m 72 47 q 313 217 201 119 q 492 421 425 315 q 560 615 560 526 q 511 746 560 697 q 372 794 463 794 q 227 760 289 794 q 117 679 165 726 l 78 732 q 215 834 129 789 q 403 879 301 879 q 562 844 497 879 q 658 751 626 808 q 689 626 689 693 q 553 333 689 485 q 221 65 418 181 l 669 94 l 715 215 l 776 203 l 743 0 l 89 0 l 72 47 z "},"3":{"ha":772,"x_min":89,"x_max":699,"o":"m 208 -224 q 92 -211 144 -224 l 92 -146 q 190 -157 131 -157 q 394 -120 308 -157 q 524 -21 479 -83 q 569 115 569 42 q 508 267 569 213 q 319 324 447 322 q 258 307 308 318 l 229 299 l 208 365 q 317 397 272 378 q 465 499 407 433 q 524 639 524 564 q 474 760 524 722 q 347 799 425 799 q 224 776 285 799 q 119 718 164 753 l 89 768 q 208 843 128 807 q 376 879 289 879 q 573 825 497 879 q 649 658 649 771 q 611 533 649 593 q 515 428 574 474 q 389 360 456 383 q 426 361 401 361 q 572 330 510 361 q 666 246 633 299 q 699 131 699 193 q 638 -53 699 28 q 465 -178 576 -133 q 208 -224 354 -224 z "},"4":{"ha":879,"x_min":58,"x_max":854,"o":"m 550 0 l 88 0 l 58 56 q 272 483 150 229 q 486 943 394 738 l 519 943 l 601 897 l 213 146 l 160 64 l 550 83 l 550 361 l 649 369 l 649 88 l 854 97 l 854 0 l 649 0 l 649 -224 l 550 -224 l 550 0 z "},"5":{"ha":810,"x_min":132,"x_max":711,"o":"m 135 -161 q 218 -165 175 -165 q 403 -125 319 -165 q 536 -10 488 -85 q 585 158 585 64 q 527 342 585 283 q 368 400 469 400 q 264 386 322 400 q 164 353 206 372 l 132 376 l 201 868 l 575 868 l 589 894 l 669 894 l 647 771 l 286 771 l 219 425 q 314 460 256 446 q 429 474 372 474 q 635 398 558 474 q 711 174 711 322 q 651 -19 711 72 q 483 -167 592 -111 q 232 -224 374 -224 q 135 -214 172 -224 l 135 -161 z "},"6":{"ha":915,"x_min":113,"x_max":808,"o":"m 463 -15 q 272 41 351 -15 q 153 192 193 97 q 113 401 113 288 q 195 724 113 575 q 408 969 278 872 q 679 1092 539 1065 l 706 1040 q 416 859 533 986 q 257 574 299 732 q 358 650 293 618 q 508 682 424 682 q 732 597 656 682 q 808 363 808 513 q 767 176 808 263 q 648 37 726 89 q 463 -15 569 -15 m 482 607 q 372 587 422 607 q 288 538 322 567 q 242 483 254 510 q 239 444 239 458 q 288 161 235 275 q 471 47 342 47 q 590 90 542 47 q 663 197 639 132 q 686 333 686 263 q 631 542 686 476 q 482 607 576 607 z "},"7":{"ha":811,"x_min":74,"x_max":739,"o":"m 235 -200 q 363 99 301 -51 q 539 538 424 249 l 635 779 l 196 775 l 147 601 l 74 614 l 101 868 l 715 868 l 739 838 q 549 303 733 826 q 357 -233 360 -228 l 235 -200 z "},"8":{"ha":871,"x_min":100,"x_max":778,"o":"m 100 256 q 155 413 100 339 q 318 536 210 486 q 190 649 236 586 q 143 800 143 711 q 186 939 143 881 q 299 1027 229 997 q 446 1057 368 1057 q 654 994 574 1057 q 735 828 735 932 q 685 672 735 746 q 546 546 635 599 q 717 422 657 485 q 778 267 778 360 q 729 120 778 183 q 601 22 681 57 q 435 -12 522 -12 q 275 15 351 -12 q 149 103 199 43 q 100 256 100 164 m 242 825 q 274 728 242 771 q 356 653 307 685 q 485 579 406 621 q 595 671 554 613 q 636 796 636 729 q 583 946 636 892 q 440 1000 529 1000 q 299 952 357 1000 q 242 825 242 904 m 664 242 q 633 335 664 294 q 558 404 603 375 q 433 474 513 433 q 375 504 394 493 q 256 410 301 469 q 210 279 210 350 q 274 111 210 174 q 447 49 338 49 q 551 73 501 49 q 633 142 601 97 q 664 242 664 186 z "},"9":{"ha":915,"x_min":115,"x_max":814,"o":"m 467 879 q 660 826 582 879 q 776 681 738 772 q 814 476 814 590 q 739 143 814 294 q 541 -106 664 -8 q 278 -231 418 -203 l 251 -178 q 527 4 421 -121 q 669 292 633 129 q 572 215 635 247 q 436 182 508 182 q 201 273 286 182 q 115 517 115 364 q 158 697 115 614 q 280 829 200 779 q 467 879 360 879 m 447 254 q 556 275 506 254 q 639 326 606 296 q 685 385 672 357 q 688 433 688 418 q 642 708 693 600 q 458 817 590 817 q 338 776 388 817 q 263 673 288 736 q 238 542 238 610 q 294 324 238 393 q 447 254 351 254 z "},"\u0000":{"ha":0,"x_min":0,"x_max":0,"o":""},"\r":{"ha":400,"x_min":0,"x_max":0,"o":""}," ":{"ha":400,"x_min":0,"x_max":0,"o":""},"A":{"ha":953,"x_min":-15,"x_max":971,"o":"m 74 72 l 419 1042 l 533 1042 l 881 72 l 971 60 l 971 0 l 632 0 l 632 60 l 754 72 l 681 293 l 247 293 l 174 74 l 297 60 l 297 0 l -15 0 l -15 60 l 74 72 m 656 365 l 500 828 l 461 960 l 424 824 l 271 365 l 656 365 z "},"Á":{"ha":953,"x_min":-15,"x_max":971,"o":"m 74 72 l 419 1042 l 533 1042 l 881 72 l 971 60 l 971 0 l 632 0 l 632 60 l 754 72 l 681 293 l 247 293 l 174 74 l 297 60 l 297 0 l -15 0 l -15 60 l 74 72 m 656 365 l 500 828 l 461 960 l 424 824 l 271 365 l 656 365 m 407 1153 l 636 1361 l 714 1290 q 594 1195 683 1249 q 444 1117 506 1142 l 407 1153 z "},"Ă":{"ha":953,"x_min":-15,"x_max":971,"o":"m 478 1122 q 313 1179 372 1122 q 253 1325 253 1236 q 254 1353 253 1343 l 318 1353 q 319 1333 318 1342 q 363 1250 325 1286 q 478 1214 400 1214 q 592 1251 556 1214 q 633 1335 629 1288 q 635 1353 635 1343 l 696 1353 q 697 1326 697 1343 q 638 1180 697 1238 q 478 1122 579 1122 m 74 72 l 419 1042 l 533 1042 l 881 72 l 971 60 l 971 0 l 632 0 l 632 60 l 754 72 l 681 293 l 247 293 l 174 74 l 297 60 l 297 0 l -15 0 l -15 60 l 74 72 m 656 365 l 500 828 l 461 960 l 424 824 l 271 365 l 656 365 z "},"Ắ":{"ha":953,"x_min":-15,"x_max":971,"o":"m 74 72 l 419 1042 l 533 1042 l 881 72 l 971 60 l 971 0 l 632 0 l 632 60 l 754 72 l 681 293 l 247 293 l 174 74 l 297 60 l 297 0 l -15 0 l -15 60 l 74 72 m 656 365 l 500 828 l 461 960 l 424 824 l 271 365 l 656 365 m 479 1122 q 314 1179 374 1122 q 254 1325 254 1236 q 256 1353 254 1343 l 319 1353 q 321 1333 319 1342 q 364 1250 326 1286 q 479 1214 401 1214 q 594 1251 557 1214 q 635 1335 631 1288 q 636 1353 636 1343 l 697 1353 q 699 1326 699 1343 q 640 1180 699 1238 q 479 1122 581 1122 m 439 1393 l 668 1601 l 746 1531 q 626 1435 715 1489 q 476 1357 538 1382 l 439 1393 z "},"Ặ":{"ha":953,"x_min":-15,"x_max":971,"o":"m 74 72 l 419 1042 l 533 1042 l 881 72 l 971 60 l 971 0 l 632 0 l 632 60 l 754 72 l 681 293 l 247 293 l 174 74 l 297 60 l 297 0 l -15 0 l -15 60 l 74 72 m 656 365 l 500 828 l 461 960 l 424 824 l 271 365 l 656 365 m 468 -247 q 423 -227 440 -247 q 406 -176 406 -207 q 425 -117 406 -142 q 481 -93 444 -93 q 528 -115 510 -93 q 546 -164 546 -136 q 526 -224 546 -200 q 469 -247 507 -247 l 468 -247 m 479 1118 q 314 1175 374 1118 q 254 1321 254 1232 q 256 1349 254 1339 l 319 1349 q 321 1329 319 1338 q 364 1246 326 1282 q 479 1210 401 1210 q 594 1247 557 1210 q 635 1331 631 1283 q 636 1349 636 1339 l 697 1349 q 699 1322 699 1339 q 640 1176 699 1233 q 479 1118 581 1118 z "},"Ằ":{"ha":953,"x_min":-15,"x_max":971,"o":"m 74 72 l 419 1042 l 533 1042 l 881 72 l 971 60 l 971 0 l 632 0 l 632 60 l 754 72 l 681 293 l 247 293 l 174 74 l 297 60 l 297 0 l -15 0 l -15 60 l 74 72 m 656 365 l 500 828 l 461 960 l 424 824 l 271 365 l 656 365 m 479 1122 q 314 1179 374 1122 q 254 1325 254 1236 q 256 1353 254 1343 l 319 1353 q 321 1333 319 1342 q 364 1250 326 1286 q 479 1214 401 1214 q 594 1251 557 1214 q 635 1335 631 1288 q 636 1353 636 1343 l 697 1353 q 699 1326 699 1343 q 640 1180 699 1238 q 479 1122 581 1122 m 481 1357 q 331 1435 419 1382 q 211 1531 242 1489 l 289 1601 l 518 1393 l 481 1357 z "},"Ẳ":{"ha":953,"x_min":-15,"x_max":971,"o":"m 74 72 l 419 1042 l 533 1042 l 881 72 l 971 60 l 971 0 l 632 0 l 632 60 l 754 72 l 681 293 l 247 293 l 174 74 l 297 60 l 297 0 l -15 0 l -15 60 l 74 72 m 656 365 l 500 828 l 461 960 l 424 824 l 271 365 l 656 365 m 479 1122 q 314 1179 374 1122 q 254 1325 254 1236 q 256 1353 254 1343 l 319 1353 q 321 1333 319 1342 q 364 1250 326 1286 q 479 1214 401 1214 q 594 1251 557 1214 q 635 1335 631 1288 q 636 1353 636 1343 l 697 1353 q 699 1326 699 1343 q 640 1180 699 1238 q 479 1122 581 1122 m 457 1354 q 440 1382 447 1367 q 432 1408 432 1397 q 443 1438 432 1426 q 479 1465 454 1450 q 511 1488 500 1478 q 526 1513 522 1497 l 526 1519 q 507 1564 526 1546 q 447 1588 488 1582 l 435 1588 q 399 1583 407 1588 l 394 1657 q 419 1665 397 1661 q 457 1668 440 1668 q 575 1632 532 1668 q 618 1532 618 1596 q 600 1476 618 1497 q 546 1433 582 1456 q 511 1408 521 1417 q 497 1379 497 1397 q 500 1363 497 1374 l 457 1354 z "},"Ẵ":{"ha":953,"x_min":-15,"x_max":971,"o":"m 74 72 l 419 1042 l 533 1042 l 881 72 l 971 60 l 971 0 l 632 0 l 632 60 l 754 72 l 681 293 l 247 293 l 174 74 l 297 60 l 297 0 l -15 0 l -15 60 l 74 72 m 656 365 l 500 828 l 461 960 l 424 824 l 271 365 l 656 365 m 479 1122 q 314 1179 374 1122 q 254 1325 254 1236 q 256 1353 254 1343 l 319 1353 q 321 1333 319 1342 q 364 1250 326 1286 q 479 1214 401 1214 q 594 1251 557 1214 q 635 1335 631 1288 q 636 1353 636 1343 l 697 1353 q 699 1326 699 1343 q 640 1180 699 1238 q 479 1122 581 1122 m 604 1397 q 538 1414 564 1397 q 479 1463 511 1431 q 433 1502 453 1489 q 386 1515 413 1515 q 321 1489 344 1515 q 281 1426 297 1463 l 222 1458 q 256 1523 231 1490 q 319 1577 281 1556 q 404 1599 358 1599 q 471 1581 444 1599 q 526 1532 497 1564 q 569 1493 551 1506 q 613 1481 588 1481 q 674 1505 654 1481 q 713 1569 694 1529 l 771 1538 q 710 1438 753 1478 q 604 1397 668 1397 z "},"Â":{"ha":953,"x_min":-15,"x_max":971,"o":"m 424 1365 l 528 1365 l 707 1165 l 657 1135 l 476 1282 l 292 1135 l 246 1164 l 424 1365 m 74 72 l 419 1042 l 533 1042 l 881 72 l 971 60 l 971 0 l 632 0 l 632 60 l 754 72 l 681 293 l 247 293 l 174 74 l 297 60 l 297 0 l -15 0 l -15 60 l 74 72 m 656 365 l 500 828 l 461 960 l 424 824 l 271 365 l 656 365 z "},"Ấ":{"ha":953,"x_min":-15,"x_max":971,"o":"m 74 72 l 419 1042 l 533 1042 l 881 72 l 971 60 l 971 0 l 632 0 l 632 60 l 754 72 l 681 293 l 247 293 l 174 74 l 297 60 l 297 0 l -15 0 l -15 60 l 74 72 m 656 365 l 500 828 l 461 960 l 424 824 l 271 365 l 656 365 m 424 1365 l 528 1365 l 707 1165 l 657 1135 l 476 1282 l 292 1135 l 246 1164 l 424 1365 m 651 1326 l 881 1535 l 958 1464 q 839 1369 928 1422 q 689 1290 750 1315 l 651 1326 z "},"Ậ":{"ha":953,"x_min":-15,"x_max":971,"o":"m 74 72 l 419 1042 l 533 1042 l 881 72 l 971 60 l 971 0 l 632 0 l 632 60 l 754 72 l 681 293 l 247 293 l 174 74 l 297 60 l 297 0 l -15 0 l -15 60 l 74 72 m 656 365 l 500 828 l 461 960 l 424 824 l 271 365 l 656 365 m 468 -247 q 423 -227 440 -247 q 406 -176 406 -207 q 425 -117 406 -142 q 481 -93 444 -93 q 528 -115 510 -93 q 546 -164 546 -136 q 526 -224 546 -200 q 469 -247 507 -247 l 468 -247 m 424 1349 l 528 1349 l 707 1149 l 657 1118 l 476 1265 l 292 1118 l 246 1147 l 424 1349 z "},"Ầ":{"ha":953,"x_min":-15,"x_max":971,"o":"m 74 72 l 419 1042 l 533 1042 l 881 72 l 971 60 l 971 0 l 632 0 l 632 60 l 754 72 l 681 293 l 247 293 l 174 74 l 297 60 l 297 0 l -15 0 l -15 60 l 74 72 m 656 365 l 500 828 l 461 960 l 424 824 l 271 365 l 656 365 m 424 1365 l 528 1365 l 707 1165 l 657 1135 l 476 1282 l 292 1135 l 246 1164 l 424 1365 m 692 1335 q 542 1413 631 1360 q 422 1508 453 1467 l 500 1579 l 729 1371 l 692 1335 z "},"Ẩ":{"ha":953,"x_min":-15,"x_max":971,"o":"m 74 72 l 419 1042 l 533 1042 l 881 72 l 971 60 l 971 0 l 632 0 l 632 60 l 754 72 l 681 293 l 247 293 l 174 74 l 297 60 l 297 0 l -15 0 l -15 60 l 74 72 m 656 365 l 500 828 l 461 960 l 424 824 l 271 365 l 656 365 m 424 1365 l 528 1365 l 707 1165 l 657 1135 l 476 1282 l 292 1135 l 246 1164 l 424 1365 m 686 1272 q 669 1300 676 1285 q 661 1326 661 1315 q 672 1356 661 1344 q 708 1383 683 1368 q 740 1406 729 1396 q 756 1431 751 1415 l 756 1438 q 736 1482 756 1464 q 676 1506 717 1500 l 664 1506 q 628 1501 636 1506 l 624 1575 q 648 1583 626 1579 q 686 1586 669 1586 q 804 1550 761 1586 q 847 1450 847 1514 q 829 1394 847 1415 q 775 1351 811 1374 q 740 1326 750 1335 q 726 1297 726 1315 q 729 1281 726 1292 l 686 1272 z "},"Ẫ":{"ha":953,"x_min":-15,"x_max":971,"o":"m 74 72 l 419 1042 l 533 1042 l 881 72 l 971 60 l 971 0 l 632 0 l 632 60 l 754 72 l 681 293 l 247 293 l 174 74 l 297 60 l 297 0 l -15 0 l -15 60 l 74 72 m 656 365 l 500 828 l 461 960 l 424 824 l 271 365 l 656 365 m 424 1365 l 528 1365 l 707 1165 l 657 1135 l 476 1282 l 292 1135 l 246 1164 l 424 1365 m 640 1396 q 574 1413 600 1396 q 515 1461 547 1429 q 469 1501 489 1488 q 422 1514 449 1514 q 357 1488 381 1514 q 317 1425 333 1461 l 258 1457 q 292 1522 267 1489 q 356 1576 317 1554 q 440 1597 394 1597 q 507 1580 481 1597 q 563 1531 533 1563 q 606 1492 588 1504 q 649 1479 624 1479 q 710 1503 690 1479 q 749 1568 731 1528 l 807 1536 q 747 1436 789 1476 q 640 1396 704 1396 z "},"Ä":{"ha":953,"x_min":-15,"x_max":971,"o":"m 304 1158 q 253 1181 272 1158 q 235 1238 235 1204 q 256 1303 235 1276 q 315 1331 276 1331 l 317 1331 q 370 1306 350 1331 q 390 1249 390 1281 q 368 1184 390 1210 q 306 1158 346 1158 l 304 1158 m 635 1158 q 584 1181 603 1158 q 565 1238 565 1204 q 586 1303 565 1276 q 646 1331 607 1331 l 647 1331 q 700 1306 681 1331 q 719 1249 719 1282 q 697 1184 719 1210 q 635 1158 675 1158 m 74 72 l 419 1042 l 533 1042 l 881 72 l 971 60 l 971 0 l 632 0 l 632 60 l 754 72 l 681 293 l 247 293 l 174 74 l 297 60 l 297 0 l -15 0 l -15 60 l 74 72 m 656 365 l 500 828 l 461 960 l 424 824 l 271 365 l 656 365 z "},"Ạ":{"ha":953,"x_min":-15,"x_max":971,"o":"m 74 72 l 419 1042 l 533 1042 l 881 72 l 971 60 l 971 0 l 632 0 l 632 60 l 754 72 l 681 293 l 247 293 l 174 74 l 297 60 l 297 0 l -15 0 l -15 60 l 74 72 m 656 365 l 500 828 l 461 960 l 424 824 l 271 365 l 656 365 m 468 -247 q 423 -227 440 -247 q 406 -176 406 -207 q 425 -117 406 -142 q 481 -93 444 -93 q 528 -115 510 -93 q 546 -164 546 -136 q 526 -224 546 -200 q 469 -247 507 -247 l 468 -247 z "},"À":{"ha":953,"x_min":-15,"x_max":971,"o":"m 74 72 l 419 1042 l 533 1042 l 881 72 l 971 60 l 971 0 l 632 0 l 632 60 l 754 72 l 681 293 l 247 293 l 174 74 l 297 60 l 297 0 l -15 0 l -15 60 l 74 72 m 656 365 l 500 828 l 461 960 l 424 824 l 271 365 l 656 365 m 501 1117 q 351 1195 440 1142 q 232 1290 263 1249 l 310 1361 l 539 1153 l 501 1117 z "},"Ả":{"ha":953,"x_min":-15,"x_max":971,"o":"m 74 72 l 419 1042 l 533 1042 l 881 72 l 971 60 l 971 0 l 632 0 l 632 60 l 754 72 l 681 293 l 247 293 l 174 74 l 297 60 l 297 0 l -15 0 l -15 60 l 74 72 m 656 365 l 500 828 l 461 960 l 424 824 l 271 365 l 656 365 m 426 1128 q 409 1156 417 1140 q 401 1182 401 1171 q 413 1212 401 1200 q 449 1239 424 1224 q 481 1261 469 1251 q 496 1286 492 1271 l 496 1293 q 476 1338 496 1319 q 417 1361 457 1356 l 404 1361 q 368 1357 376 1361 l 364 1431 q 388 1438 367 1435 q 426 1442 410 1442 q 544 1406 501 1442 q 588 1306 588 1369 q 569 1250 588 1271 q 515 1207 551 1229 q 481 1182 490 1190 q 467 1153 467 1171 q 469 1136 467 1147 l 426 1128 z "},"Ā":{"ha":953,"x_min":-15,"x_max":971,"o":"m 663 1278 l 663 1193 l 297 1193 l 297 1278 l 663 1278 m 74 72 l 419 1042 l 533 1042 l 881 72 l 971 60 l 971 0 l 632 0 l 632 60 l 754 72 l 681 293 l 247 293 l 174 74 l 297 60 l 297 0 l -15 0 l -15 60 l 74 72 m 656 365 l 500 828 l 461 960 l 424 824 l 271 365 l 656 365 z "},"Ą":{"ha":942,"x_min":-15,"x_max":971,"o":"m 419 1042 l 533 1042 l 881 72 l 971 60 l 971 0 l 857 0 q 746 -82 790 -29 q 701 -179 701 -135 q 732 -247 701 -225 q 810 -268 763 -268 q 918 -240 865 -268 l 918 -299 q 847 -333 889 -321 q 761 -346 804 -346 q 641 -315 689 -346 q 593 -215 593 -283 q 645 -94 593 -158 q 769 0 697 -31 l 632 0 l 632 60 l 754 72 l 681 293 l 247 293 l 174 74 l 297 60 l 297 0 l -15 0 l -15 60 l 74 72 l 419 1042 m 656 365 l 500 828 l 461 960 l 424 824 l 271 365 l 656 365 z "},"Å":{"ha":953,"x_min":-15,"x_max":971,"o":"m 971 60 l 971 0 l 632 0 l 632 60 l 754 72 l 681 293 l 247 293 l 174 74 l 297 60 l 297 0 l -15 0 l -15 60 l 74 72 l 417 1032 q 299 1088 339 1044 q 258 1196 258 1132 q 326 1321 258 1276 q 483 1365 393 1365 q 639 1320 583 1365 q 694 1199 694 1275 q 651 1089 694 1132 q 536 1033 607 1046 l 881 72 l 971 60 m 344 1200 q 378 1116 344 1150 q 478 1082 413 1082 q 576 1110 543 1082 q 610 1190 610 1138 q 578 1277 610 1244 q 481 1310 546 1310 q 380 1282 415 1310 q 344 1200 344 1254 m 271 365 l 656 365 l 500 828 l 461 960 l 424 824 l 271 365 z "},"Ã":{"ha":953,"x_min":-15,"x_max":971,"o":"m 585 1157 q 518 1174 544 1157 q 460 1222 492 1190 q 413 1262 433 1249 q 367 1275 393 1275 q 301 1249 325 1275 q 261 1186 278 1222 l 203 1218 q 236 1283 211 1250 q 300 1337 261 1315 q 385 1358 339 1358 q 451 1341 425 1358 q 507 1292 478 1324 q 550 1253 532 1265 q 593 1240 568 1240 q 655 1265 635 1240 q 693 1329 675 1289 l 751 1297 q 691 1197 733 1238 q 585 1157 649 1157 m 74 72 l 419 1042 l 533 1042 l 881 72 l 971 60 l 971 0 l 632 0 l 632 60 l 754 72 l 681 293 l 247 293 l 174 74 l 297 60 l 297 0 l -15 0 l -15 60 l 74 72 m 656 365 l 500 828 l 461 960 l 424 824 l 271 365 l 656 365 z "},"Æ":{"ha":1265,"x_min":-125,"x_max":1243,"o":"m 557 72 l 557 306 l 182 306 l 85 72 l 193 58 l 193 0 l -125 0 l -125 58 l -24 72 l 376 960 l 188 975 l 188 1032 l 1124 1032 l 1147 824 l 1081 824 l 1039 964 l 671 969 l 671 564 l 922 568 l 939 683 l 1010 683 l 1010 376 l 939 376 l 922 496 l 671 499 l 671 68 l 1096 82 l 1176 256 l 1243 238 l 1190 0 l 435 0 l 435 58 l 557 72 m 557 378 l 557 965 l 461 965 l 383 788 l 213 378 l 557 378 z "},"Ǽ":{"ha":1265,"x_min":-125,"x_max":1243,"o":"m 557 72 l 557 306 l 182 306 l 85 72 l 193 58 l 193 0 l -125 0 l -125 58 l -24 72 l 376 960 l 188 975 l 188 1032 l 1124 1032 l 1147 824 l 1081 824 l 1039 964 l 671 969 l 671 564 l 922 568 l 939 683 l 1010 683 l 1010 376 l 939 376 l 922 496 l 671 499 l 671 68 l 1096 82 l 1176 256 l 1243 238 l 1190 0 l 435 0 l 435 58 l 557 72 m 557 378 l 557 965 l 461 965 l 383 788 l 213 378 l 557 378 m 564 1153 l 793 1361 l 871 1290 q 751 1195 840 1249 q 601 1117 663 1142 l 564 1153 z "},"B":{"ha":933,"x_min":69,"x_max":879,"o":"m 189 957 l 72 972 l 72 1032 l 246 1032 q 364 1038 292 1032 q 463 1043 431 1043 q 724 983 643 1043 q 806 810 806 924 q 752 641 806 713 q 600 550 699 569 q 805 488 731 554 q 879 308 879 421 q 781 81 879 169 q 461 -8 683 -8 q 376 -6 435 -8 q 240 0 304 0 l 69 0 l 69 60 l 189 72 l 189 957 m 303 574 q 390 572 325 572 l 474 572 q 635 626 579 572 q 690 783 690 681 q 635 932 690 885 q 447 979 581 979 q 344 974 397 979 q 303 971 311 971 l 303 574 m 303 69 q 460 58 339 58 q 685 117 615 58 q 754 288 754 176 q 694 449 754 399 q 501 500 635 500 l 399 500 q 303 499 324 500 l 303 69 z "},"Ḃ":{"ha":933,"x_min":69,"x_max":879,"o":"m 189 957 l 72 972 l 72 1032 l 246 1032 q 364 1038 292 1032 q 463 1043 431 1043 q 724 983 643 1043 q 806 810 806 924 q 752 641 806 713 q 600 550 699 569 q 805 488 731 554 q 879 308 879 421 q 781 81 879 169 q 461 -8 683 -8 q 376 -6 435 -8 q 240 0 304 0 l 69 0 l 69 60 l 189 72 l 189 957 m 303 574 q 390 572 325 572 l 474 572 q 635 626 579 572 q 690 783 690 681 q 635 932 690 885 q 447 979 581 979 q 344 974 397 979 q 303 971 311 971 l 303 574 m 303 69 q 460 58 339 58 q 685 117 615 58 q 754 288 754 176 q 694 449 754 399 q 501 500 635 500 l 399 500 q 303 499 324 500 l 303 69 m 460 1161 q 408 1183 428 1161 q 389 1240 389 1206 q 410 1306 389 1279 q 471 1332 432 1332 q 524 1308 504 1332 q 544 1251 544 1283 q 522 1187 544 1213 q 460 1161 500 1161 z "},"C":{"ha":901,"x_min":50,"x_max":849,"o":"m 524 -15 q 268 51 375 -15 q 106 239 161 118 q 50 521 50 360 q 115 792 50 672 q 293 977 181 911 q 544 1043 406 1043 q 681 1032 615 1043 q 788 1011 747 1021 q 838 999 828 1001 l 826 772 l 754 772 l 724 933 q 649 964 703 951 q 517 976 594 976 q 344 924 421 976 q 224 772 268 872 q 181 533 181 672 q 219 293 181 403 q 335 117 257 183 q 526 51 413 51 q 650 65 606 51 q 725 103 694 78 l 781 233 l 849 224 l 814 38 q 733 19 781 36 q 638 -6 683 3 q 524 -15 592 -15 z "},"Ć":{"ha":901,"x_min":50,"x_max":849,"o":"m 524 -15 q 268 51 375 -15 q 106 239 161 118 q 50 521 50 360 q 115 792 50 672 q 293 977 181 911 q 544 1043 406 1043 q 681 1032 615 1043 q 788 1011 747 1021 q 838 999 828 1001 l 826 772 l 754 772 l 724 933 q 649 964 703 951 q 517 976 594 976 q 344 924 421 976 q 224 772 268 872 q 181 533 181 672 q 219 293 181 403 q 335 117 257 183 q 526 51 413 51 q 650 65 606 51 q 725 103 694 78 l 781 233 l 849 224 l 814 38 q 733 19 781 36 q 638 -6 683 3 q 524 -15 592 -15 m 438 1153 l 667 1361 l 744 1290 q 625 1195 714 1249 q 475 1117 536 1142 l 438 1153 z "},"Č":{"ha":901,"x_min":50,"x_max":849,"o":"m 363 1364 l 533 1225 l 707 1364 l 753 1335 l 586 1147 l 481 1147 l 313 1333 l 363 1364 m 524 -15 q 268 51 375 -15 q 106 239 161 118 q 50 521 50 360 q 115 792 50 672 q 293 977 181 911 q 544 1043 406 1043 q 681 1032 615 1043 q 788 1011 747 1021 q 838 999 828 1001 l 826 772 l 754 772 l 724 933 q 649 964 703 951 q 517 976 594 976 q 344 924 421 976 q 224 772 268 872 q 181 533 181 672 q 219 293 181 403 q 335 117 257 183 q 526 51 413 51 q 650 65 606 51 q 725 103 694 78 l 781 233 l 849 224 l 814 38 q 733 19 781 36 q 638 -6 683 3 q 524 -15 592 -15 z "},"Ç":{"ha":901,"x_min":50,"x_max":849,"o":"m 814 38 q 765 28 790 36 q 733 19 740 21 q 657 -3 694 6 q 567 -14 619 -11 q 617 -94 594 -47 q 640 -189 640 -142 q 597 -294 640 -262 q 471 -326 554 -326 q 419 -321 447 -326 q 372 -308 392 -315 l 374 -226 q 406 -234 388 -231 q 438 -237 425 -237 q 518 -218 493 -237 q 543 -139 543 -199 q 531 -74 543 -107 q 506 -15 519 -40 q 260 56 363 -11 q 103 243 157 124 q 50 521 50 363 q 115 792 50 672 q 293 977 181 911 q 544 1043 406 1043 q 681 1032 615 1043 q 788 1011 747 1021 q 838 999 828 1001 l 826 772 l 754 772 l 724 933 q 649 964 703 951 q 517 976 594 976 q 344 924 421 976 q 224 772 268 872 q 181 533 181 672 q 219 293 181 403 q 335 117 257 183 q 526 51 413 51 q 650 65 606 51 q 725 103 694 78 l 781 233 l 849 224 l 814 38 z "},"Ĉ":{"ha":901,"x_min":50,"x_max":849,"o":"m 479 1365 l 583 1365 l 763 1165 l 713 1135 l 532 1282 l 347 1135 l 301 1164 l 479 1365 m 524 -15 q 268 51 375 -15 q 106 239 161 118 q 50 521 50 360 q 115 792 50 672 q 293 977 181 911 q 544 1043 406 1043 q 681 1032 615 1043 q 788 1011 747 1021 q 838 999 828 1001 l 826 772 l 754 772 l 724 933 q 649 964 703 951 q 517 976 594 976 q 344 924 421 976 q 224 772 268 872 q 181 533 181 672 q 219 293 181 403 q 335 117 257 183 q 526 51 413 51 q 650 65 606 51 q 725 103 694 78 l 781 233 l 849 224 l 814 38 q 733 19 781 36 q 638 -6 683 3 q 524 -15 592 -15 z "},"Ċ":{"ha":901,"x_min":50,"x_max":849,"o":"m 524 -15 q 268 51 375 -15 q 106 239 161 118 q 50 521 50 360 q 115 792 50 672 q 293 977 181 911 q 544 1043 406 1043 q 681 1032 615 1043 q 788 1011 747 1021 q 838 999 828 1001 l 826 772 l 754 772 l 724 933 q 649 964 703 951 q 517 976 594 976 q 344 924 421 976 q 224 772 268 872 q 181 533 181 672 q 219 293 181 403 q 335 117 257 183 q 526 51 413 51 q 650 65 606 51 q 725 103 694 78 l 781 233 l 849 224 l 814 38 q 733 19 781 36 q 638 -6 683 3 q 524 -15 592 -15 m 500 1161 q 449 1183 468 1161 q 429 1240 429 1206 q 451 1306 429 1279 q 511 1332 472 1332 q 565 1308 544 1332 q 585 1251 585 1283 q 563 1187 585 1213 q 500 1161 540 1161 z "},"D":{"ha":1050,"x_min":69,"x_max":1000,"o":"m 189 957 l 78 972 l 78 1032 l 246 1032 q 369 1038 289 1032 q 492 1043 450 1043 q 876 912 751 1043 q 1000 547 1000 781 q 935 256 1000 382 q 753 59 869 129 q 488 -11 638 -11 q 381 -6 456 -11 q 247 0 294 0 l 69 0 l 69 60 l 189 72 l 189 957 m 303 68 q 443 57 360 57 l 490 57 q 692 113 604 58 q 828 271 779 167 q 878 522 878 375 q 456 976 878 976 q 351 971 410 976 q 303 968 315 968 l 303 68 z "},"Ð":{"ha":1050,"x_min":69,"x_max":1000,"o":"m 189 957 l 78 972 l 78 1032 l 246 1032 q 369 1038 289 1032 q 492 1043 450 1043 q 876 912 751 1043 q 1000 547 1000 781 q 935 256 1000 382 q 753 59 869 129 q 488 -11 638 -11 q 381 -6 456 -11 q 247 0 294 0 l 69 0 l 69 60 l 189 72 l 189 507 l 82 507 l 82 571 l 189 571 l 189 957 m 564 507 l 303 507 l 303 68 q 443 57 360 57 l 490 57 q 692 113 604 58 q 828 271 779 167 q 878 522 878 375 q 456 976 878 976 q 351 971 410 976 q 303 968 315 968 l 303 571 l 564 571 l 564 507 z "},"Ď":{"ha":1050,"x_min":69,"x_max":1000,"o":"m 371 1364 l 542 1225 l 715 1364 l 761 1335 l 594 1147 l 489 1147 l 321 1333 l 371 1364 m 189 957 l 78 972 l 78 1032 l 246 1032 q 369 1038 289 1032 q 492 1043 450 1043 q 876 912 751 1043 q 1000 547 1000 781 q 935 256 1000 382 q 753 59 869 129 q 488 -11 638 -11 q 381 -6 456 -11 q 247 0 294 0 l 69 0 l 69 60 l 189 72 l 189 957 m 303 68 q 443 57 360 57 l 490 57 q 692 113 604 58 q 828 271 779 167 q 878 522 878 375 q 456 976 878 976 q 351 971 410 976 q 303 968 315 968 l 303 68 z "},"Đ":{"ha":1050,"x_min":69,"x_max":1000,"o":"m 189 957 l 78 972 l 78 1032 l 246 1032 q 369 1038 289 1032 q 492 1043 450 1043 q 876 912 751 1043 q 1000 547 1000 781 q 935 256 1000 382 q 753 59 869 129 q 488 -11 638 -11 q 381 -6 456 -11 q 247 0 294 0 l 69 0 l 69 60 l 189 72 l 189 494 l 82 494 l 82 567 l 189 567 l 189 957 m 564 494 l 303 494 l 303 68 q 443 57 360 57 l 490 57 q 692 113 604 58 q 828 271 779 167 q 878 522 878 375 q 456 976 878 976 q 351 971 410 976 q 303 968 315 968 l 303 567 l 564 567 l 564 494 z "},"Ḋ":{"ha":1050,"x_min":69,"x_max":1000,"o":"m 189 957 l 78 972 l 78 1032 l 246 1032 q 369 1038 289 1032 q 492 1043 450 1043 q 876 912 751 1043 q 1000 547 1000 781 q 935 256 1000 382 q 753 59 869 129 q 488 -11 638 -11 q 381 -6 456 -11 q 247 0 294 0 l 69 0 l 69 60 l 189 72 l 189 957 m 303 68 q 443 57 360 57 l 490 57 q 692 113 604 58 q 828 271 779 167 q 878 522 878 375 q 456 976 878 976 q 351 971 410 976 q 303 968 315 968 l 303 68 m 518 1161 q 467 1183 486 1161 q 447 1240 447 1206 q 469 1306 447 1279 q 529 1332 490 1332 q 583 1308 563 1332 q 603 1251 603 1283 q 581 1187 603 1213 q 518 1161 558 1161 z "},"E":{"ha":901,"x_min":69,"x_max":865,"o":"m 189 72 l 189 957 l 72 972 l 72 1032 l 760 1032 l 779 828 l 713 828 l 675 961 l 303 968 l 303 564 l 558 568 l 576 683 l 646 683 l 646 376 l 576 376 l 558 494 l 303 499 l 303 71 l 728 82 l 799 256 l 865 235 l 822 0 l 69 0 l 69 60 l 189 72 z "},"É":{"ha":901,"x_min":69,"x_max":865,"o":"m 189 72 l 189 957 l 72 972 l 72 1032 l 760 1032 l 779 828 l 713 828 l 675 961 l 303 968 l 303 564 l 558 568 l 576 683 l 646 683 l 646 376 l 576 376 l 558 494 l 303 499 l 303 71 l 728 82 l 799 256 l 865 235 l 822 0 l 69 0 l 69 60 l 189 72 m 410 1153 l 639 1361 l 717 1290 q 597 1195 686 1249 q 447 1117 508 1142 l 410 1153 z "},"Ĕ":{"ha":903,"x_min":69,"x_max":865,"o":"m 474 1122 q 308 1179 368 1122 q 249 1325 249 1236 q 250 1353 249 1343 l 314 1353 q 315 1333 314 1342 q 358 1250 321 1286 q 474 1214 396 1214 q 588 1251 551 1214 q 629 1335 625 1288 q 631 1353 631 1343 l 692 1353 q 693 1326 693 1343 q 634 1180 693 1238 q 474 1122 575 1122 m 189 72 l 189 957 l 72 972 l 72 1032 l 760 1032 l 779 828 l 713 828 l 675 961 l 303 968 l 303 564 l 558 568 l 576 683 l 646 683 l 646 376 l 576 376 l 558 494 l 303 499 l 303 71 l 728 82 l 799 256 l 865 235 l 822 0 l 69 0 l 69 60 l 189 72 z "},"Ě":{"ha":903,"x_min":69,"x_max":865,"o":"m 303 1364 l 474 1225 l 647 1364 l 693 1335 l 526 1147 l 421 1147 l 253 1333 l 303 1364 m 189 72 l 189 957 l 72 972 l 72 1032 l 760 1032 l 779 828 l 713 828 l 675 961 l 303 968 l 303 564 l 558 568 l 576 683 l 646 683 l 646 376 l 576 376 l 558 494 l 303 499 l 303 71 l 728 82 l 799 256 l 865 235 l 822 0 l 69 0 l 69 60 l 189 72 z "},"Ê":{"ha":901,"x_min":69,"x_max":865,"o":"m 419 1365 l 524 1365 l 703 1165 l 653 1135 l 472 1282 l 288 1135 l 242 1164 l 419 1365 m 189 72 l 189 957 l 72 972 l 72 1032 l 760 1032 l 779 828 l 713 828 l 675 961 l 303 968 l 303 564 l 558 568 l 576 683 l 646 683 l 646 376 l 576 376 l 558 494 l 303 499 l 303 71 l 728 82 l 799 256 l 865 235 l 822 0 l 69 0 l 69 60 l 189 72 z "},"Ế":{"ha":901,"x_min":69,"x_max":961,"o":"m 189 72 l 189 957 l 72 972 l 72 1032 l 760 1032 l 779 828 l 713 828 l 675 961 l 303 968 l 303 564 l 558 568 l 576 683 l 646 683 l 646 376 l 576 376 l 558 494 l 303 499 l 303 71 l 728 82 l 799 256 l 865 235 l 822 0 l 69 0 l 69 60 l 189 72 m 426 1365 l 531 1365 l 710 1165 l 660 1135 l 479 1282 l 294 1135 l 249 1164 l 426 1365 m 654 1326 l 883 1535 l 961 1464 q 842 1369 931 1422 q 692 1290 753 1315 l 654 1326 z "},"Ệ":{"ha":901,"x_min":69,"x_max":865,"o":"m 189 72 l 189 957 l 72 972 l 72 1032 l 760 1032 l 779 828 l 713 828 l 675 961 l 303 968 l 303 564 l 558 568 l 576 683 l 646 683 l 646 376 l 576 376 l 558 494 l 303 499 l 303 71 l 728 82 l 799 256 l 865 235 l 822 0 l 69 0 l 69 60 l 189 72 m 443 -247 q 398 -227 415 -247 q 381 -176 381 -207 q 400 -117 381 -142 q 456 -93 419 -93 q 503 -115 485 -93 q 521 -164 521 -136 q 501 -224 521 -200 q 444 -247 482 -247 l 443 -247 m 399 1353 l 503 1353 l 682 1153 l 632 1122 l 451 1269 l 267 1122 l 221 1151 l 399 1353 z "},"Ề":{"ha":901,"x_min":69,"x_max":865,"o":"m 189 72 l 189 957 l 72 972 l 72 1032 l 760 1032 l 779 828 l 713 828 l 675 961 l 303 968 l 303 564 l 558 568 l 576 683 l 646 683 l 646 376 l 576 376 l 558 494 l 303 499 l 303 71 l 728 82 l 799 256 l 865 235 l 822 0 l 69 0 l 69 60 l 189 72 m 426 1365 l 531 1365 l 710 1165 l 660 1135 l 479 1282 l 294 1135 l 249 1164 l 426 1365 m 694 1335 q 544 1413 633 1360 q 425 1508 456 1467 l 503 1579 l 732 1371 l 694 1335 z "},"Ể":{"ha":901,"x_min":69,"x_max":865,"o":"m 189 72 l 189 957 l 72 972 l 72 1032 l 760 1032 l 779 828 l 713 828 l 675 961 l 303 968 l 303 564 l 558 568 l 576 683 l 646 683 l 646 376 l 576 376 l 558 494 l 303 499 l 303 71 l 728 82 l 799 256 l 865 235 l 822 0 l 69 0 l 69 60 l 189 72 m 426 1365 l 531 1365 l 710 1165 l 660 1135 l 479 1282 l 294 1135 l 249 1164 l 426 1365 m 689 1272 q 672 1300 679 1285 q 664 1326 664 1315 q 675 1356 664 1344 q 711 1383 686 1368 q 743 1406 732 1396 q 758 1431 754 1415 l 758 1438 q 739 1482 758 1464 q 679 1506 719 1500 l 667 1506 q 631 1501 639 1506 l 626 1575 q 651 1583 629 1579 q 689 1586 672 1586 q 807 1550 764 1586 q 850 1450 850 1514 q 832 1394 850 1415 q 778 1351 814 1374 q 743 1326 753 1335 q 729 1297 729 1315 q 732 1281 729 1292 l 689 1272 z "},"Ễ":{"ha":901,"x_min":69,"x_max":865,"o":"m 189 72 l 189 957 l 72 972 l 72 1032 l 760 1032 l 779 828 l 713 828 l 675 961 l 303 968 l 303 564 l 558 568 l 576 683 l 646 683 l 646 376 l 576 376 l 558 494 l 303 499 l 303 71 l 728 82 l 799 256 l 865 235 l 822 0 l 69 0 l 69 60 l 189 72 m 426 1365 l 531 1365 l 710 1165 l 660 1135 l 479 1282 l 294 1135 l 249 1164 l 426 1365 m 643 1396 q 576 1413 603 1396 q 518 1461 550 1429 q 472 1501 492 1488 q 425 1514 451 1514 q 360 1488 383 1514 q 319 1425 336 1461 l 261 1457 q 294 1522 269 1489 q 358 1576 319 1554 q 443 1597 397 1597 q 510 1580 483 1597 q 565 1531 536 1563 q 608 1492 590 1504 q 651 1479 626 1479 q 713 1503 693 1479 q 751 1568 733 1528 l 810 1536 q 749 1436 792 1476 q 643 1396 707 1396 z "},"Ë":{"ha":903,"x_min":69,"x_max":865,"o":"m 300 1158 q 249 1181 268 1158 q 231 1238 231 1204 q 251 1303 231 1276 q 311 1331 272 1331 l 313 1331 q 366 1306 346 1331 q 386 1249 386 1281 q 364 1184 386 1210 q 301 1158 342 1158 l 300 1158 m 631 1158 q 580 1181 599 1158 q 561 1238 561 1204 q 582 1303 561 1276 q 642 1331 603 1331 l 643 1331 q 696 1306 676 1331 q 715 1249 715 1282 q 693 1184 715 1210 q 631 1158 671 1158 m 189 72 l 189 957 l 72 972 l 72 1032 l 760 1032 l 779 828 l 713 828 l 675 961 l 303 968 l 303 564 l 558 568 l 576 683 l 646 683 l 646 376 l 576 376 l 558 494 l 303 499 l 303 71 l 728 82 l 799 256 l 865 235 l 822 0 l 69 0 l 69 60 l 189 72 z "},"Ė":{"ha":901,"x_min":69,"x_max":865,"o":"m 189 72 l 189 957 l 72 972 l 72 1032 l 760 1032 l 779 828 l 713 828 l 675 961 l 303 968 l 303 564 l 558 568 l 576 683 l 646 683 l 646 376 l 576 376 l 558 494 l 303 499 l 303 71 l 728 82 l 799 256 l 865 235 l 822 0 l 69 0 l 69 60 l 189 72 m 472 1161 q 421 1183 440 1161 q 401 1240 401 1206 q 423 1306 401 1279 q 483 1332 444 1332 q 537 1308 517 1332 q 557 1251 557 1283 q 535 1187 557 1213 q 472 1161 513 1161 z "},"Ẹ":{"ha":901,"x_min":69,"x_max":865,"o":"m 189 72 l 189 957 l 72 972 l 72 1032 l 760 1032 l 779 828 l 713 828 l 675 961 l 303 968 l 303 564 l 558 568 l 576 683 l 646 683 l 646 376 l 576 376 l 558 494 l 303 499 l 303 71 l 728 82 l 799 256 l 865 235 l 822 0 l 69 0 l 69 60 l 189 72 m 443 -247 q 398 -227 415 -247 q 381 -176 381 -207 q 400 -117 381 -142 q 456 -93 419 -93 q 503 -115 485 -93 q 521 -164 521 -136 q 501 -224 521 -200 q 444 -247 482 -247 l 443 -247 z "},"È":{"ha":901,"x_min":69,"x_max":865,"o":"m 189 72 l 189 957 l 72 972 l 72 1032 l 760 1032 l 779 828 l 713 828 l 675 961 l 303 968 l 303 564 l 558 568 l 576 683 l 646 683 l 646 376 l 576 376 l 558 494 l 303 499 l 303 71 l 728 82 l 799 256 l 865 235 l 822 0 l 69 0 l 69 60 l 189 72 m 504 1117 q 354 1195 443 1142 q 235 1290 265 1249 l 313 1361 l 542 1153 l 504 1117 z "},"Ẻ":{"ha":901,"x_min":69,"x_max":865,"o":"m 189 72 l 189 957 l 72 972 l 72 1032 l 760 1032 l 779 828 l 713 828 l 675 961 l 303 968 l 303 564 l 558 568 l 576 683 l 646 683 l 646 376 l 576 376 l 558 494 l 303 499 l 303 71 l 728 82 l 799 256 l 865 235 l 822 0 l 69 0 l 69 60 l 189 72 m 429 1128 q 412 1156 419 1140 q 404 1182 404 1171 q 415 1212 404 1200 q 451 1239 426 1224 q 483 1261 472 1251 q 499 1286 494 1271 l 499 1293 q 479 1338 499 1319 q 419 1361 460 1356 l 407 1361 q 371 1357 379 1361 l 367 1431 q 391 1438 369 1435 q 429 1442 413 1442 q 547 1406 504 1442 q 590 1306 590 1369 q 572 1250 590 1271 q 518 1207 554 1229 q 483 1182 493 1190 q 469 1153 469 1171 q 472 1136 469 1147 l 429 1128 z "},"Ē":{"ha":903,"x_min":69,"x_max":865,"o":"m 658 1278 l 658 1193 l 293 1193 l 293 1278 l 658 1278 m 189 72 l 189 957 l 72 972 l 72 1032 l 760 1032 l 779 828 l 713 828 l 675 961 l 303 968 l 303 564 l 558 568 l 576 683 l 646 683 l 646 376 l 576 376 l 558 494 l 303 499 l 303 71 l 728 82 l 799 256 l 865 235 l 822 0 l 69 0 l 69 60 l 189 72 z "},"Ę":{"ha":903,"x_min":69,"x_max":865,"o":"m 189 957 l 72 972 l 72 1032 l 760 1032 l 779 828 l 713 828 l 675 961 l 303 968 l 303 564 l 558 568 l 576 683 l 646 683 l 646 376 l 576 376 l 558 494 l 303 499 l 303 71 l 728 82 l 799 256 l 865 235 l 822 0 l 804 0 q 713 -40 760 -8 q 637 -109 667 -71 q 607 -179 607 -147 q 637 -247 607 -225 q 714 -268 667 -268 q 822 -240 769 -268 l 822 -299 q 751 -333 793 -321 q 665 -346 708 -346 q 544 -315 593 -346 q 496 -215 496 -283 q 554 -95 496 -158 q 693 0 613 -32 l 69 0 l 69 60 l 189 72 l 189 957 z "},"Ẽ":{"ha":901,"x_min":69,"x_max":865,"o":"m 189 72 l 189 957 l 72 972 l 72 1032 l 760 1032 l 779 828 l 713 828 l 675 961 l 303 968 l 303 564 l 558 568 l 576 683 l 646 683 l 646 376 l 576 376 l 558 494 l 303 499 l 303 71 l 728 82 l 799 256 l 865 235 l 822 0 l 69 0 l 69 60 l 189 72 m 586 1157 q 519 1174 546 1157 q 461 1222 493 1190 q 415 1262 435 1249 q 368 1275 394 1275 q 303 1249 326 1275 q 263 1186 279 1222 l 204 1218 q 238 1283 213 1250 q 301 1337 263 1315 q 386 1358 340 1358 q 453 1341 426 1358 q 508 1292 479 1324 q 551 1253 533 1265 q 594 1240 569 1240 q 656 1265 636 1240 q 694 1329 676 1289 l 753 1297 q 692 1197 735 1238 q 586 1157 650 1157 z "},"F":{"ha":857,"x_min":67,"x_max":808,"o":"m 189 72 l 189 957 l 67 972 l 67 1032 l 794 1032 l 808 804 l 732 804 l 694 961 l 303 968 l 303 557 l 581 561 l 604 674 l 668 674 l 668 367 l 604 367 l 581 485 l 303 490 l 303 72 l 521 60 l 521 0 l 75 0 l 75 60 l 189 72 z "},"Ḟ":{"ha":857,"x_min":67,"x_max":808,"o":"m 189 72 l 189 957 l 67 972 l 67 1032 l 794 1032 l 808 804 l 732 804 l 694 961 l 303 968 l 303 557 l 581 561 l 604 674 l 668 674 l 668 367 l 604 367 l 581 485 l 303 490 l 303 72 l 521 60 l 521 0 l 75 0 l 75 60 l 189 72 m 464 1161 q 413 1183 432 1161 q 393 1240 393 1206 q 415 1306 393 1279 q 475 1332 436 1332 q 528 1308 508 1332 q 549 1251 549 1283 q 526 1187 549 1213 q 464 1161 504 1161 z "},"G":{"ha":1025,"x_min":67,"x_max":997,"o":"m 544 -15 q 289 51 397 -15 q 124 235 181 118 q 67 499 67 351 q 135 791 67 668 q 322 978 204 914 q 588 1043 440 1043 q 751 1031 679 1043 q 901 1000 824 1018 l 890 769 l 818 769 l 788 929 q 713 962 765 947 q 575 976 661 976 q 380 926 465 976 q 246 777 294 876 q 197 535 197 678 q 237 297 197 407 q 357 119 276 188 q 553 51 438 51 q 692 69 626 51 q 796 115 758 86 l 796 432 l 603 446 l 603 519 l 997 519 l 997 446 l 913 432 l 913 56 q 814 32 883 54 q 683 -3 743 10 q 544 -15 622 -15 z "},"Ğ":{"ha":1026,"x_min":68,"x_max":999,"o":"m 558 1122 q 393 1179 453 1122 q 333 1325 333 1236 q 335 1353 333 1343 l 399 1353 q 400 1333 399 1342 q 443 1250 406 1286 q 558 1214 481 1214 q 673 1251 636 1214 q 714 1335 710 1288 q 715 1353 715 1343 l 776 1353 q 778 1326 778 1343 q 719 1180 778 1238 q 558 1122 660 1122 m 546 -15 q 290 51 399 -15 q 125 235 182 118 q 68 499 68 351 q 137 791 68 668 q 324 978 206 914 q 589 1043 442 1043 q 753 1031 681 1043 q 903 1000 825 1018 l 892 769 l 819 769 l 789 929 q 715 962 767 947 q 576 976 663 976 q 381 926 467 976 q 247 777 296 876 q 199 535 199 678 q 238 297 199 407 q 358 119 278 188 q 554 51 439 51 q 694 69 628 51 q 797 115 760 86 l 797 432 l 604 446 l 604 519 l 999 519 l 999 446 l 914 432 l 914 56 q 815 32 885 54 q 684 -3 744 10 q 546 -15 624 -15 z "},"Ĝ":{"ha":1025,"x_min":67,"x_max":997,"o":"m 503 1365 l 607 1365 l 786 1165 l 736 1135 l 556 1282 l 371 1135 l 325 1164 l 503 1365 m 544 -15 q 289 51 397 -15 q 124 235 181 118 q 67 499 67 351 q 135 791 67 668 q 322 978 204 914 q 588 1043 440 1043 q 751 1031 679 1043 q 901 1000 824 1018 l 890 769 l 818 769 l 788 929 q 713 962 765 947 q 575 976 661 976 q 380 926 465 976 q 246 777 294 876 q 197 535 197 678 q 237 297 197 407 q 357 119 276 188 q 553 51 438 51 q 692 69 626 51 q 796 115 758 86 l 796 432 l 603 446 l 603 519 l 997 519 l 997 446 l 913 432 l 913 56 q 814 32 883 54 q 683 -3 743 10 q 544 -15 622 -15 z "},"Ģ":{"ha":1031,"x_min":71,"x_max":1001,"o":"m 549 -15 q 293 51 401 -15 q 128 235 185 118 q 71 499 71 351 q 140 791 71 668 q 326 978 208 914 q 592 1043 444 1043 q 756 1031 683 1043 q 906 1000 828 1018 l 894 769 l 822 769 l 792 929 q 717 962 769 947 q 579 976 665 976 q 384 926 469 976 q 250 777 299 876 q 201 535 201 678 q 241 297 201 407 q 361 119 281 188 q 557 51 442 51 q 697 69 631 51 q 800 115 763 86 l 800 432 l 607 446 l 607 519 l 1001 519 l 1001 446 l 917 432 l 917 56 q 818 32 888 54 q 687 -3 747 10 q 549 -15 626 -15 m 631 -192 q 610 -283 631 -242 q 564 -349 589 -324 q 526 -378 539 -374 l 525 -378 l 488 -351 l 488 -343 q 522 -304 508 -333 q 535 -243 535 -275 q 527 -214 535 -225 q 506 -193 519 -203 q 486 -173 493 -185 q 479 -142 479 -161 q 500 -94 479 -108 q 540 -81 521 -81 l 546 -81 q 608 -110 585 -81 q 631 -192 631 -139 z "},"Ġ":{"ha":1025,"x_min":67,"x_max":997,"o":"m 544 -15 q 289 51 397 -15 q 124 235 181 118 q 67 499 67 351 q 135 791 67 668 q 322 978 204 914 q 588 1043 440 1043 q 751 1031 679 1043 q 901 1000 824 1018 l 890 769 l 818 769 l 788 929 q 713 962 765 947 q 575 976 661 976 q 380 926 465 976 q 246 777 294 876 q 197 535 197 678 q 237 297 197 407 q 357 119 276 188 q 553 51 438 51 q 692 69 626 51 q 796 115 758 86 l 796 432 l 603 446 l 603 519 l 997 519 l 997 446 l 913 432 l 913 56 q 814 32 883 54 q 683 -3 743 10 q 544 -15 622 -15 m 547 1161 q 496 1183 515 1161 q 476 1240 476 1206 q 498 1306 476 1279 q 558 1332 519 1332 q 612 1308 592 1332 q 632 1251 632 1283 q 610 1187 632 1213 q 547 1161 588 1161 z "},"H":{"ha":1144,"x_min":75,"x_max":1067,"o":"m 193 72 l 193 957 l 79 972 l 79 1032 l 428 1032 l 428 972 l 307 957 l 307 567 l 838 567 l 838 957 l 722 972 l 722 1032 l 1067 1032 l 1067 972 l 953 957 l 953 72 l 1067 60 l 1067 0 l 721 0 l 721 60 l 838 72 l 838 493 l 307 493 l 307 72 l 429 60 l 429 0 l 75 0 l 75 60 l 193 72 z "},"Ħ":{"ha":1144,"x_min":33,"x_max":1111,"o":"m 193 771 l 193 957 l 79 972 l 79 1033 l 426 1033 l 426 972 l 306 957 l 306 771 l 839 771 l 839 957 l 724 972 l 724 1033 l 1067 1033 l 1067 972 l 953 957 l 953 771 l 1111 771 l 1111 707 l 953 707 l 953 75 l 1067 58 l 1067 0 l 724 0 l 724 58 l 839 75 l 839 429 l 306 429 l 306 72 l 428 60 l 428 0 l 75 0 l 75 60 l 193 72 l 193 707 l 33 707 l 33 771 l 193 771 m 839 707 l 306 707 l 306 500 l 839 500 l 839 707 z "},"Ĥ":{"ha":1144,"x_min":75,"x_max":1067,"o":"m 519 1365 l 624 1365 l 803 1165 l 753 1135 l 572 1282 l 388 1135 l 342 1164 l 519 1365 m 193 72 l 193 957 l 79 972 l 79 1032 l 428 1032 l 428 972 l 307 957 l 307 567 l 838 567 l 838 957 l 722 972 l 722 1032 l 1067 1032 l 1067 972 l 953 957 l 953 72 l 1067 60 l 1067 0 l 721 0 l 721 60 l 838 72 l 838 493 l 307 493 l 307 72 l 429 60 l 429 0 l 75 0 l 75 60 l 193 72 z "},"I":{"ha":551,"x_min":83,"x_max":468,"o":"m 218 72 l 218 957 l 83 972 l 83 1032 l 468 1032 l 468 972 l 333 957 l 333 72 l 468 58 l 468 0 l 83 0 l 83 60 l 218 72 z "},"Ĳ":{"ha":1072,"x_min":83,"x_max":1011,"o":"m 218 72 l 218 957 l 83 972 l 83 1032 l 468 1032 l 468 972 l 333 957 l 333 72 l 468 58 l 468 0 l 83 0 l 83 60 l 218 72 m 550 -190 q 664 -127 614 -174 q 735 -12 714 -81 q 758 115 753 44 q 763 351 763 186 l 763 956 l 624 972 l 624 1032 l 1011 1032 l 1011 972 l 878 956 l 878 382 l 878 274 q 875 130 878 186 q 864 29 872 74 q 760 -153 842 -83 q 581 -240 679 -222 l 550 -190 z "},"Í":{"ha":551,"x_min":83,"x_max":514,"o":"m 218 72 l 218 957 l 83 972 l 83 1032 l 468 1032 l 468 972 l 333 957 l 333 72 l 468 58 l 468 0 l 83 0 l 83 60 l 218 72 m 207 1153 l 436 1361 l 514 1290 q 394 1195 483 1249 q 244 1117 306 1142 l 207 1153 z "},"Ĭ":{"ha":551,"x_min":54,"x_max":499,"o":"m 279 1122 q 114 1179 174 1122 q 54 1325 54 1236 q 56 1353 54 1343 l 119 1353 q 121 1333 119 1342 q 164 1250 126 1286 q 279 1214 201 1214 q 394 1251 357 1214 q 435 1335 431 1288 q 436 1353 436 1343 l 497 1353 q 499 1326 499 1343 q 440 1180 499 1238 q 279 1122 381 1122 m 218 72 l 218 957 l 83 972 l 83 1032 l 468 1032 l 468 972 l 333 957 l 333 72 l 468 58 l 468 0 l 83 0 l 83 60 l 218 72 z "},"Î":{"ha":551,"x_min":47,"x_max":508,"o":"m 225 1365 l 329 1365 l 508 1165 l 458 1135 l 278 1282 l 93 1135 l 47 1164 l 225 1365 m 218 72 l 218 957 l 83 972 l 83 1032 l 468 1032 l 468 972 l 333 957 l 333 72 l 468 58 l 468 0 l 83 0 l 83 60 l 218 72 z "},"Ï":{"ha":551,"x_min":36,"x_max":521,"o":"m 106 1158 q 55 1181 74 1158 q 36 1238 36 1204 q 57 1303 36 1276 q 117 1331 78 1331 l 118 1331 q 172 1306 151 1331 q 192 1249 192 1281 q 169 1184 192 1210 q 107 1158 147 1158 l 106 1158 m 436 1158 q 385 1181 404 1158 q 367 1238 367 1204 q 388 1303 367 1276 q 447 1331 408 1331 l 449 1331 q 501 1306 482 1331 q 521 1249 521 1282 q 499 1184 521 1210 q 436 1158 476 1158 m 218 72 l 218 957 l 83 972 l 83 1032 l 468 1032 l 468 972 l 333 957 l 333 72 l 468 58 l 468 0 l 83 0 l 83 60 l 218 72 z "},"İ":{"ha":551,"x_min":83,"x_max":468,"o":"m 218 72 l 218 957 l 83 972 l 83 1032 l 468 1032 l 468 972 l 333 957 l 333 72 l 468 58 l 468 0 l 83 0 l 83 60 l 218 72 m 269 1161 q 218 1183 238 1161 q 199 1240 199 1206 q 220 1306 199 1279 q 281 1332 242 1332 q 334 1308 314 1332 q 354 1251 354 1283 q 332 1187 354 1213 q 269 1161 310 1161 z "},"Ị":{"ha":551,"x_min":83,"x_max":468,"o":"m 218 72 l 218 957 l 83 972 l 83 1032 l 468 1032 l 468 972 l 333 957 l 333 72 l 468 58 l 468 0 l 83 0 l 83 60 l 218 72 m 268 -247 q 223 -227 240 -247 q 206 -176 206 -207 q 225 -117 206 -142 q 281 -93 244 -93 q 328 -115 310 -93 q 346 -164 346 -136 q 326 -224 346 -200 q 269 -247 307 -247 l 268 -247 z "},"Ì":{"ha":551,"x_min":32,"x_max":468,"o":"m 218 72 l 218 957 l 83 972 l 83 1032 l 468 1032 l 468 972 l 333 957 l 333 72 l 468 58 l 468 0 l 83 0 l 83 60 l 218 72 m 301 1117 q 151 1195 240 1142 q 32 1290 63 1249 l 110 1361 l 339 1153 l 301 1117 z "},"Ỉ":{"ha":551,"x_min":83,"x_max":468,"o":"m 218 72 l 218 957 l 83 972 l 83 1032 l 468 1032 l 468 972 l 333 957 l 333 72 l 468 58 l 468 0 l 83 0 l 83 60 l 218 72 m 226 1128 q 209 1156 217 1140 q 201 1182 201 1171 q 213 1212 201 1200 q 249 1239 224 1224 q 281 1261 269 1251 q 296 1286 292 1271 l 296 1293 q 276 1338 296 1319 q 217 1361 257 1356 l 204 1361 q 168 1357 176 1361 l 164 1431 q 188 1438 167 1435 q 226 1442 210 1442 q 344 1406 301 1442 q 388 1306 388 1369 q 369 1250 388 1271 q 315 1207 351 1229 q 281 1182 290 1190 q 267 1153 267 1171 q 269 1136 267 1147 l 226 1128 z "},"Ī":{"ha":551,"x_min":83,"x_max":468,"o":"m 464 1278 l 464 1193 l 99 1193 l 99 1278 l 464 1278 m 218 72 l 218 957 l 83 972 l 83 1032 l 468 1032 l 468 972 l 333 957 l 333 72 l 468 58 l 468 0 l 83 0 l 83 60 l 218 72 z "},"Į":{"ha":551,"x_min":78,"x_max":468,"o":"m 218 957 l 83 972 l 83 1032 l 468 1032 l 468 972 l 333 957 l 333 72 l 468 58 l 468 0 l 347 0 q 235 -83 282 -29 q 188 -179 188 -136 q 217 -247 188 -225 q 296 -268 247 -268 q 404 -240 351 -268 l 404 -299 q 333 -333 375 -321 q 247 -346 290 -346 q 126 -315 175 -346 q 78 -215 78 -283 q 134 -97 78 -161 q 261 0 190 -32 l 83 0 l 83 60 l 218 72 l 218 957 z "},"Ĩ":{"ha":551,"x_min":4,"x_max":553,"o":"m 386 1157 q 319 1174 346 1157 q 261 1222 293 1190 q 215 1262 235 1249 q 168 1275 194 1275 q 103 1249 126 1275 q 63 1186 79 1222 l 4 1218 q 38 1283 13 1250 q 101 1337 63 1315 q 186 1358 140 1358 q 253 1341 226 1358 q 308 1292 279 1324 q 351 1253 333 1265 q 394 1240 369 1240 q 456 1265 436 1240 q 494 1329 476 1289 l 553 1297 q 492 1197 535 1238 q 386 1157 450 1157 m 218 72 l 218 957 l 83 972 l 83 1032 l 468 1032 l 468 972 l 333 957 l 333 72 l 468 58 l 468 0 l 83 0 l 83 60 l 218 72 z "},"J":{"ha":521,"x_min":-1,"x_max":460,"o":"m -1 -190 q 113 -127 63 -174 q 183 -12 163 -81 q 206 115 201 44 q 211 351 211 186 l 211 956 l 72 972 l 72 1032 l 460 1032 l 460 972 l 326 956 l 326 382 l 326 274 q 324 130 326 186 q 313 29 321 74 q 209 -153 290 -83 q 29 -240 128 -222 l -1 -190 z "},"Ĵ":{"ha":521,"x_min":-1,"x_max":494,"o":"m 211 1365 l 315 1365 l 494 1165 l 444 1135 l 264 1282 l 79 1135 l 33 1164 l 211 1365 m -1 -190 q 113 -127 63 -174 q 183 -12 163 -81 q 206 115 201 44 q 211 351 211 186 l 211 956 l 72 972 l 72 1032 l 460 1032 l 460 972 l 326 956 l 326 382 l 326 274 q 324 130 326 186 q 313 29 321 74 q 209 -153 290 -83 q 29 -240 128 -222 l -1 -190 z "},"K":{"ha":992,"x_min":74,"x_max":990,"o":"m 824 0 q 758 58 797 0 q 647 239 718 115 q 538 419 579 356 q 458 524 497 483 l 307 353 l 307 72 l 438 58 l 438 0 l 74 0 l 74 60 l 193 72 l 193 957 l 76 972 l 76 1032 l 426 1032 l 426 972 l 307 957 l 307 451 l 742 957 l 624 972 l 624 1032 l 946 1032 l 946 972 l 844 957 l 525 600 q 625 488 574 560 q 765 281 676 415 q 870 125 833 175 q 925 74 907 75 l 990 58 l 990 0 l 824 0 z "},"Ķ":{"ha":992,"x_min":74,"x_max":990,"o":"m 824 0 q 758 58 797 0 q 647 239 718 115 q 538 419 579 356 q 458 524 497 483 l 307 353 l 307 72 l 438 58 l 438 0 l 74 0 l 74 60 l 193 72 l 193 957 l 76 972 l 76 1032 l 426 1032 l 426 972 l 307 957 l 307 451 l 742 957 l 624 972 l 624 1032 l 946 1032 l 946 972 l 844 957 l 525 600 q 625 488 574 560 q 765 281 676 415 q 870 125 833 175 q 925 74 907 75 l 990 58 l 990 0 l 824 0 m 629 -192 q 608 -283 629 -242 q 563 -349 588 -324 q 525 -378 538 -374 l 524 -378 l 486 -351 l 486 -343 q 520 -304 507 -333 q 533 -243 533 -275 q 526 -214 533 -225 q 504 -193 518 -203 q 485 -173 492 -185 q 478 -142 478 -161 q 499 -94 478 -108 q 539 -81 519 -81 l 544 -81 q 606 -110 583 -81 q 629 -192 629 -139 z "},"L":{"ha":876,"x_min":74,"x_max":847,"o":"m 193 72 l 193 957 l 76 972 l 76 1032 l 446 1032 l 446 972 l 307 957 l 307 72 l 703 83 l 781 300 l 847 289 l 796 0 l 74 0 l 74 60 l 193 72 z "},"Ĺ":{"ha":876,"x_min":74,"x_max":847,"o":"m 193 72 l 193 957 l 76 972 l 76 1032 l 446 1032 l 446 972 l 307 957 l 307 72 l 703 83 l 781 300 l 847 289 l 796 0 l 74 0 l 74 60 l 193 72 m 182 1153 l 411 1361 l 489 1290 q 369 1195 458 1249 q 219 1117 281 1142 l 182 1153 z "},"Ľ":{"ha":876,"x_min":74,"x_max":847,"o":"m 633 743 q 654 830 647 783 q 661 917 661 876 q 651 1024 661 972 q 626 1094 640 1076 l 633 1118 l 722 1138 q 751 1072 740 1118 q 763 975 763 1025 q 740 818 763 894 q 683 708 717 742 l 635 728 l 633 743 m 193 72 l 193 957 l 76 972 l 76 1032 l 446 1032 l 446 972 l 307 957 l 307 72 l 703 83 l 781 300 l 847 289 l 796 0 l 74 0 l 74 60 l 193 72 z "},"Ļ":{"ha":876,"x_min":74,"x_max":847,"o":"m 193 72 l 193 957 l 76 972 l 76 1032 l 446 1032 l 446 972 l 307 957 l 307 72 l 703 83 l 781 300 l 847 289 l 796 0 l 74 0 l 74 60 l 193 72 m 561 -192 q 540 -283 561 -242 q 494 -349 519 -324 q 457 -378 469 -374 l 456 -378 l 418 -351 l 418 -343 q 452 -304 439 -333 q 465 -243 465 -275 q 458 -214 465 -225 q 436 -193 450 -203 q 417 -173 424 -185 q 410 -142 410 -161 q 431 -94 410 -108 q 471 -81 451 -81 l 476 -81 q 538 -110 515 -81 q 561 -192 561 -139 z "},"Ŀ":{"ha":876,"x_min":74,"x_max":847,"o":"m 193 72 l 193 957 l 76 972 l 76 1032 l 446 1032 l 446 972 l 307 957 l 307 72 l 703 83 l 781 300 l 847 289 l 796 0 l 74 0 l 74 60 l 193 72 m 654 481 q 600 502 622 481 q 578 558 578 524 q 605 624 578 597 q 668 650 632 650 q 724 628 706 650 q 743 572 743 606 q 717 507 743 533 q 654 481 690 481 z "},"Ł":{"ha":879,"x_min":35,"x_max":847,"o":"m 193 501 l 193 957 l 76 972 l 76 1032 l 446 1032 l 446 972 l 307 957 l 307 550 l 597 679 l 597 604 l 307 476 l 307 72 l 703 83 l 781 300 l 847 289 l 796 0 l 74 0 l 74 60 l 193 72 l 193 429 l 35 361 l 35 432 l 193 501 z "},"M":{"ha":1371,"x_min":3,"x_max":1368,"o":"m 124 72 l 233 957 l 76 972 l 76 1032 l 401 1032 l 636 390 l 689 204 l 731 390 l 932 1032 l 1254 1032 l 1254 972 l 1096 957 l 1244 74 l 1368 60 l 1368 0 l 997 0 l 997 60 l 1126 72 l 1026 706 l 990 983 l 933 792 l 704 50 l 656 50 l 396 714 l 308 983 l 279 706 l 217 72 l 353 60 l 353 0 l 3 0 l 3 60 l 124 72 z "},"Ṁ":{"ha":1371,"x_min":3,"x_max":1368,"o":"m 124 72 l 233 957 l 76 972 l 76 1032 l 401 1032 l 636 390 l 689 204 l 731 390 l 932 1032 l 1254 1032 l 1254 972 l 1096 957 l 1244 74 l 1368 60 l 1368 0 l 997 0 l 997 60 l 1126 72 l 1026 706 l 990 983 l 933 792 l 704 50 l 656 50 l 396 714 l 308 983 l 279 706 l 217 72 l 353 60 l 353 0 l 3 0 l 3 60 l 124 72 m 679 1161 q 628 1183 647 1161 q 608 1240 608 1206 q 630 1306 608 1279 q 690 1332 651 1332 q 744 1308 724 1332 q 764 1251 764 1283 q 742 1187 764 1213 q 679 1161 719 1161 z "},"N":{"ha":1107,"x_min":78,"x_max":1067,"o":"m 189 74 l 189 957 l 78 972 l 78 1032 l 301 1032 l 793 319 l 872 181 l 872 957 l 750 972 l 750 1032 l 1067 1032 l 1067 972 l 953 957 l 953 0 l 881 0 l 383 715 l 269 900 l 269 72 l 396 60 l 396 0 l 78 0 l 78 60 l 189 74 z "},"Ń":{"ha":1107,"x_min":78,"x_max":1067,"o":"m 189 74 l 189 957 l 78 972 l 78 1032 l 301 1032 l 793 319 l 872 181 l 872 957 l 750 972 l 750 1032 l 1067 1032 l 1067 972 l 953 957 l 953 0 l 881 0 l 383 715 l 269 900 l 269 72 l 396 60 l 396 0 l 78 0 l 78 60 l 189 74 m 499 1153 l 728 1361 l 806 1290 q 686 1195 775 1249 q 536 1117 597 1142 l 499 1153 z "},"Ň":{"ha":1108,"x_min":78,"x_max":1067,"o":"m 414 1364 l 585 1225 l 758 1364 l 804 1335 l 638 1147 l 532 1147 l 364 1333 l 414 1364 m 189 74 l 189 957 l 78 972 l 78 1032 l 301 1032 l 793 319 l 872 181 l 872 957 l 750 972 l 750 1032 l 1067 1032 l 1067 972 l 953 957 l 953 0 l 881 0 l 383 715 l 269 900 l 269 72 l 396 60 l 396 0 l 78 0 l 78 60 l 189 74 z "},"Ņ":{"ha":1108,"x_min":78,"x_max":1067,"o":"m 189 74 l 189 957 l 78 972 l 78 1032 l 301 1032 l 793 319 l 872 181 l 872 957 l 750 972 l 750 1032 l 1067 1032 l 1067 972 l 953 957 l 953 0 l 881 0 l 383 715 l 269 900 l 269 72 l 396 60 l 396 0 l 78 0 l 78 60 l 189 74 m 668 -192 q 647 -283 668 -242 q 601 -349 626 -324 q 564 -378 576 -374 l 563 -378 l 525 -351 l 525 -343 q 559 -304 546 -333 q 572 -243 572 -275 q 565 -214 572 -225 q 543 -193 557 -203 q 524 -173 531 -185 q 517 -142 517 -161 q 538 -94 517 -108 q 578 -81 558 -81 l 583 -81 q 645 -110 622 -81 q 668 -192 668 -139 z "},"Ŋ":{"ha":1089,"x_min":79,"x_max":1067,"o":"m 190 957 l 79 974 l 79 1032 l 307 1032 l 768 319 l 874 132 l 874 957 l 756 974 l 756 1032 l 1067 1032 l 1067 974 l 954 957 l 954 235 q 933 13 954 86 q 868 -110 911 -61 q 753 -199 813 -171 q 619 -236 693 -228 l 589 -187 q 796 -58 728 -157 q 835 18 822 -21 l 378 715 l 271 910 l 271 72 l 397 58 l 397 0 l 79 0 l 79 58 l 190 72 l 190 957 z "},"Ñ":{"ha":1108,"x_min":78,"x_max":1067,"o":"m 664 1157 q 597 1174 624 1157 q 539 1222 571 1190 q 492 1262 513 1249 q 446 1275 472 1275 q 381 1249 404 1275 q 340 1186 357 1222 l 282 1218 q 315 1283 290 1250 q 379 1337 340 1315 q 464 1358 418 1358 q 531 1341 504 1358 q 586 1292 557 1324 q 629 1253 611 1265 q 672 1240 647 1240 q 734 1265 714 1240 q 772 1329 754 1289 l 831 1297 q 770 1197 813 1238 q 664 1157 728 1157 m 189 74 l 189 957 l 78 972 l 78 1032 l 301 1032 l 793 319 l 872 181 l 872 957 l 750 972 l 750 1032 l 1067 1032 l 1067 972 l 953 957 l 953 0 l 881 0 l 383 715 l 269 900 l 269 72 l 396 60 l 396 0 l 78 0 l 78 60 l 189 74 z "},"O":{"ha":999,"x_min":51,"x_max":949,"o":"m 479 -15 q 248 51 344 -15 q 101 235 151 117 q 51 508 51 353 q 113 790 51 668 q 279 977 174 911 q 514 1043 385 1043 q 749 979 651 1043 q 898 799 847 915 q 949 525 949 682 q 886 241 949 364 q 717 51 824 118 q 479 -15 610 -15 m 501 978 q 265 858 353 978 q 178 508 178 738 q 215 271 178 375 q 325 108 253 167 q 497 50 397 50 q 667 103 594 50 q 779 264 739 157 q 819 525 819 371 q 782 762 819 660 q 673 921 744 864 q 501 978 601 978 z "},"Ó":{"ha":999,"x_min":51,"x_max":949,"o":"m 479 -15 q 248 51 344 -15 q 101 235 151 117 q 51 508 51 353 q 113 790 51 668 q 279 977 174 911 q 514 1043 385 1043 q 749 979 651 1043 q 898 799 847 915 q 949 525 949 682 q 886 241 949 364 q 717 51 824 118 q 479 -15 610 -15 m 501 978 q 265 858 353 978 q 178 508 178 738 q 215 271 178 375 q 325 108 253 167 q 497 50 397 50 q 667 103 594 50 q 779 264 739 157 q 819 525 819 371 q 782 762 819 660 q 673 921 744 864 q 501 978 601 978 m 431 1153 l 660 1361 l 738 1290 q 618 1195 707 1249 q 468 1117 529 1142 l 431 1153 z "},"Ŏ":{"ha":999,"x_min":51,"x_max":949,"o":"m 504 1122 q 339 1179 399 1122 q 279 1325 279 1236 q 281 1353 279 1343 l 344 1353 q 346 1333 344 1342 q 389 1250 351 1286 q 504 1214 426 1214 q 619 1251 582 1214 q 660 1335 656 1288 q 661 1353 661 1343 l 722 1353 q 724 1326 724 1343 q 665 1180 724 1238 q 504 1122 606 1122 m 479 -15 q 248 51 344 -15 q 101 235 151 117 q 51 508 51 353 q 113 790 51 668 q 279 977 174 911 q 514 1043 385 1043 q 749 979 651 1043 q 898 799 847 915 q 949 525 949 682 q 886 241 949 364 q 717 51 824 118 q 479 -15 610 -15 m 501 978 q 265 858 353 978 q 178 508 178 738 q 215 271 178 375 q 325 108 253 167 q 497 50 397 50 q 667 103 594 50 q 779 264 739 157 q 819 525 819 371 q 782 762 819 660 q 673 921 744 864 q 501 978 601 978 z "},"Ô":{"ha":999,"x_min":51,"x_max":949,"o":"m 450 1365 l 554 1365 l 733 1165 l 683 1135 l 503 1282 l 318 1135 l 272 1164 l 450 1365 m 479 -15 q 248 51 344 -15 q 101 235 151 117 q 51 508 51 353 q 113 790 51 668 q 279 977 174 911 q 514 1043 385 1043 q 749 979 651 1043 q 898 799 847 915 q 949 525 949 682 q 886 241 949 364 q 717 51 824 118 q 479 -15 610 -15 m 501 978 q 265 858 353 978 q 178 508 178 738 q 215 271 178 375 q 325 108 253 167 q 497 50 397 50 q 667 103 594 50 q 779 264 739 157 q 819 525 819 371 q 782 762 819 660 q 673 921 744 864 q 501 978 601 978 z "},"Ố":{"ha":999,"x_min":51,"x_max":982,"o":"m 479 -15 q 248 51 344 -15 q 101 235 151 117 q 51 508 51 353 q 113 790 51 668 q 279 977 174 911 q 514 1043 385 1043 q 749 979 651 1043 q 898 799 847 915 q 949 525 949 682 q 886 241 949 364 q 717 51 824 118 q 479 -15 610 -15 m 501 978 q 265 858 353 978 q 178 508 178 738 q 215 271 178 375 q 325 108 253 167 q 497 50 397 50 q 667 103 594 50 q 779 264 739 157 q 819 525 819 371 q 782 762 819 660 q 673 921 744 864 q 501 978 601 978 m 447 1365 l 551 1365 l 731 1165 l 681 1135 l 500 1282 l 315 1135 l 269 1164 l 447 1365 m 675 1326 l 904 1535 l 982 1464 q 863 1369 951 1422 q 713 1290 774 1315 l 675 1326 z "},"Ộ":{"ha":999,"x_min":51,"x_max":949,"o":"m 479 -15 q 248 51 344 -15 q 101 235 151 117 q 51 508 51 353 q 113 790 51 668 q 279 977 174 911 q 514 1043 385 1043 q 749 979 651 1043 q 898 799 847 915 q 949 525 949 682 q 886 241 949 364 q 717 51 824 118 q 479 -15 610 -15 m 501 978 q 265 858 353 978 q 178 508 178 738 q 215 271 178 375 q 325 108 253 167 q 497 50 397 50 q 667 103 594 50 q 779 264 739 157 q 819 525 819 371 q 782 762 819 660 q 673 921 744 864 q 501 978 601 978 m 492 -247 q 447 -227 464 -247 q 429 -176 429 -207 q 449 -117 429 -142 q 504 -93 468 -93 q 551 -115 533 -93 q 569 -164 569 -136 q 550 -224 569 -200 q 493 -247 531 -247 l 492 -247 m 447 1349 l 551 1349 l 731 1149 l 681 1118 l 500 1265 l 315 1118 l 269 1147 l 447 1349 z "},"Ồ":{"ha":999,"x_min":51,"x_max":949,"o":"m 479 -15 q 248 51 344 -15 q 101 235 151 117 q 51 508 51 353 q 113 790 51 668 q 279 977 174 911 q 514 1043 385 1043 q 749 979 651 1043 q 898 799 847 915 q 949 525 949 682 q 886 241 949 364 q 717 51 824 118 q 479 -15 610 -15 m 501 978 q 265 858 353 978 q 178 508 178 738 q 215 271 178 375 q 325 108 253 167 q 497 50 397 50 q 667 103 594 50 q 779 264 739 157 q 819 525 819 371 q 782 762 819 660 q 673 921 744 864 q 501 978 601 978 m 447 1365 l 551 1365 l 731 1165 l 681 1135 l 500 1282 l 315 1135 l 269 1164 l 447 1365 m 715 1335 q 565 1413 654 1360 q 446 1508 476 1467 l 524 1579 l 753 1371 l 715 1335 z "},"Ổ":{"ha":999,"x_min":51,"x_max":949,"o":"m 479 -15 q 248 51 344 -15 q 101 235 151 117 q 51 508 51 353 q 113 790 51 668 q 279 977 174 911 q 514 1043 385 1043 q 749 979 651 1043 q 898 799 847 915 q 949 525 949 682 q 886 241 949 364 q 717 51 824 118 q 479 -15 610 -15 m 501 978 q 265 858 353 978 q 178 508 178 738 q 215 271 178 375 q 325 108 253 167 q 497 50 397 50 q 667 103 594 50 q 779 264 739 157 q 819 525 819 371 q 782 762 819 660 q 673 921 744 864 q 501 978 601 978 m 447 1365 l 551 1365 l 731 1165 l 681 1135 l 500 1282 l 315 1135 l 269 1164 l 447 1365 m 710 1272 q 692 1300 700 1285 q 685 1326 685 1315 q 696 1356 685 1344 q 732 1383 707 1368 q 764 1406 753 1396 q 779 1431 775 1415 l 779 1438 q 760 1482 779 1464 q 700 1506 740 1500 l 688 1506 q 651 1501 660 1506 l 647 1575 q 672 1583 650 1579 q 710 1586 693 1586 q 828 1550 785 1586 q 871 1450 871 1514 q 853 1394 871 1415 q 799 1351 835 1374 q 764 1326 774 1335 q 750 1297 750 1315 q 753 1281 750 1292 l 710 1272 z "},"Ỗ":{"ha":999,"x_min":51,"x_max":949,"o":"m 479 -15 q 248 51 344 -15 q 101 235 151 117 q 51 508 51 353 q 113 790 51 668 q 279 977 174 911 q 514 1043 385 1043 q 749 979 651 1043 q 898 799 847 915 q 949 525 949 682 q 886 241 949 364 q 717 51 824 118 q 479 -15 610 -15 m 501 978 q 265 858 353 978 q 178 508 178 738 q 215 271 178 375 q 325 108 253 167 q 497 50 397 50 q 667 103 594 50 q 779 264 739 157 q 819 525 819 371 q 782 762 819 660 q 673 921 744 864 q 501 978 601 978 m 447 1365 l 551 1365 l 731 1165 l 681 1135 l 500 1282 l 315 1135 l 269 1164 l 447 1365 m 664 1396 q 597 1413 624 1396 q 539 1461 571 1429 q 492 1501 513 1488 q 446 1514 472 1514 q 381 1488 404 1514 q 340 1425 357 1461 l 282 1457 q 315 1522 290 1489 q 379 1576 340 1554 q 464 1597 418 1597 q 531 1580 504 1597 q 586 1531 557 1563 q 629 1492 611 1504 q 672 1479 647 1479 q 734 1503 714 1479 q 772 1568 754 1528 l 831 1536 q 770 1436 813 1476 q 664 1396 728 1396 z "},"Ö":{"ha":999,"x_min":51,"x_max":949,"o":"m 331 1158 q 280 1181 299 1158 q 261 1238 261 1204 q 282 1303 261 1276 q 342 1331 303 1331 l 343 1331 q 397 1306 376 1331 q 417 1249 417 1281 q 394 1184 417 1210 q 332 1158 372 1158 l 331 1158 m 661 1158 q 610 1181 629 1158 q 592 1238 592 1204 q 613 1303 592 1276 q 672 1331 633 1331 l 674 1331 q 726 1306 707 1331 q 746 1249 746 1282 q 724 1184 746 1210 q 661 1158 701 1158 m 479 -15 q 248 51 344 -15 q 101 235 151 117 q 51 508 51 353 q 113 790 51 668 q 279 977 174 911 q 514 1043 385 1043 q 749 979 651 1043 q 898 799 847 915 q 949 525 949 682 q 886 241 949 364 q 717 51 824 118 q 479 -15 610 -15 m 501 978 q 265 858 353 978 q 178 508 178 738 q 215 271 178 375 q 325 108 253 167 q 497 50 397 50 q 667 103 594 50 q 779 264 739 157 q 819 525 819 371 q 782 762 819 660 q 673 921 744 864 q 501 978 601 978 z "},"Ọ":{"ha":999,"x_min":51,"x_max":949,"o":"m 479 -15 q 248 51 344 -15 q 101 235 151 117 q 51 508 51 353 q 113 790 51 668 q 279 977 174 911 q 514 1043 385 1043 q 749 979 651 1043 q 898 799 847 915 q 949 525 949 682 q 886 241 949 364 q 717 51 824 118 q 479 -15 610 -15 m 501 978 q 265 858 353 978 q 178 508 178 738 q 215 271 178 375 q 325 108 253 167 q 497 50 397 50 q 667 103 594 50 q 779 264 739 157 q 819 525 819 371 q 782 762 819 660 q 673 921 744 864 q 501 978 601 978 m 492 -247 q 447 -227 464 -247 q 429 -176 429 -207 q 449 -117 429 -142 q 504 -93 468 -93 q 551 -115 533 -93 q 569 -164 569 -136 q 550 -224 569 -200 q 493 -247 531 -247 l 492 -247 z "},"Ò":{"ha":999,"x_min":51,"x_max":949,"o":"m 479 -15 q 248 51 344 -15 q 101 235 151 117 q 51 508 51 353 q 113 790 51 668 q 279 977 174 911 q 514 1043 385 1043 q 749 979 651 1043 q 898 799 847 915 q 949 525 949 682 q 886 241 949 364 q 717 51 824 118 q 479 -15 610 -15 m 501 978 q 265 858 353 978 q 178 508 178 738 q 215 271 178 375 q 325 108 253 167 q 497 50 397 50 q 667 103 594 50 q 779 264 739 157 q 819 525 819 371 q 782 762 819 660 q 673 921 744 864 q 501 978 601 978 m 525 1117 q 375 1195 464 1142 q 256 1290 286 1249 l 333 1361 l 563 1153 l 525 1117 z "},"Ỏ":{"ha":999,"x_min":51,"x_max":949,"o":"m 479 -15 q 248 51 344 -15 q 101 235 151 117 q 51 508 51 353 q 113 790 51 668 q 279 977 174 911 q 514 1043 385 1043 q 749 979 651 1043 q 898 799 847 915 q 949 525 949 682 q 886 241 949 364 q 717 51 824 118 q 479 -15 610 -15 m 501 978 q 265 858 353 978 q 178 508 178 738 q 215 271 178 375 q 325 108 253 167 q 497 50 397 50 q 667 103 594 50 q 779 264 739 157 q 819 525 819 371 q 782 762 819 660 q 673 921 744 864 q 501 978 601 978 m 450 1128 q 433 1156 440 1140 q 425 1182 425 1171 q 436 1212 425 1200 q 472 1239 447 1224 q 504 1261 493 1251 q 519 1286 515 1271 l 519 1293 q 500 1338 519 1319 q 440 1361 481 1356 l 428 1361 q 392 1357 400 1361 l 388 1431 q 412 1438 390 1435 q 450 1442 433 1442 q 568 1406 525 1442 q 611 1306 611 1369 q 593 1250 611 1271 q 539 1207 575 1229 q 504 1182 514 1190 q 490 1153 490 1171 q 493 1136 490 1147 l 450 1128 z "},"Ơ":{"ha":999,"x_min":51,"x_max":949,"o":"m 740 985 q 895 805 842 924 q 949 525 949 686 q 886 241 949 364 q 717 51 824 118 q 479 -15 610 -15 q 248 51 344 -15 q 101 235 151 117 q 51 508 51 353 q 113 790 51 668 q 279 977 174 911 q 514 1043 385 1043 q 621 1032 568 1043 q 728 1082 694 1033 q 771 1190 763 1131 q 772 1214 774 1208 l 869 1214 q 872 1183 872 1192 q 836 1070 872 1124 q 740 985 800 1017 m 497 50 q 667 103 594 50 q 779 264 739 157 q 819 525 819 371 q 768 796 819 683 q 621 953 717 908 l 617 953 l 617 954 q 501 978 563 978 q 265 858 353 978 q 178 508 178 738 q 215 271 178 375 q 325 108 253 167 q 497 50 397 50 z "},"Ớ":{"ha":999,"x_min":51,"x_max":949,"o":"m 740 985 q 895 805 842 924 q 949 525 949 686 q 886 241 949 364 q 717 51 824 118 q 479 -15 610 -15 q 248 51 344 -15 q 101 235 151 117 q 51 508 51 353 q 113 790 51 668 q 279 977 174 911 q 514 1043 385 1043 q 621 1032 568 1043 q 728 1082 694 1033 q 771 1190 763 1131 q 772 1214 774 1208 l 869 1214 q 872 1183 872 1192 q 836 1070 872 1124 q 740 985 800 1017 m 497 50 q 667 103 594 50 q 779 264 739 157 q 819 525 819 371 q 768 796 819 683 q 621 953 717 908 l 617 953 l 617 954 q 501 978 563 978 q 265 858 353 978 q 178 508 178 738 q 215 271 178 375 q 325 108 253 167 q 497 50 397 50 m 431 1153 l 660 1361 l 738 1290 q 618 1195 707 1249 q 468 1117 529 1142 l 431 1153 z "},"Ợ":{"ha":999,"x_min":51,"x_max":949,"o":"m 740 985 q 895 805 842 924 q 949 525 949 686 q 886 241 949 364 q 717 51 824 118 q 479 -15 610 -15 q 248 51 344 -15 q 101 235 151 117 q 51 508 51 353 q 113 790 51 668 q 279 977 174 911 q 514 1043 385 1043 q 621 1032 568 1043 q 728 1082 694 1033 q 771 1190 763 1131 q 772 1214 774 1208 l 869 1214 q 872 1183 872 1192 q 836 1070 872 1124 q 740 985 800 1017 m 497 50 q 667 103 594 50 q 779 264 739 157 q 819 525 819 371 q 768 796 819 683 q 621 953 717 908 l 617 953 l 617 954 q 501 978 563 978 q 265 858 353 978 q 178 508 178 738 q 215 271 178 375 q 325 108 253 167 q 497 50 397 50 m 492 -247 q 447 -227 464 -247 q 429 -176 429 -207 q 449 -117 429 -142 q 504 -93 468 -93 q 551 -115 533 -93 q 569 -164 569 -136 q 550 -224 569 -200 q 493 -247 531 -247 l 492 -247 z "},"Ờ":{"ha":999,"x_min":51,"x_max":949,"o":"m 740 985 q 895 805 842 924 q 949 525 949 686 q 886 241 949 364 q 717 51 824 118 q 479 -15 610 -15 q 248 51 344 -15 q 101 235 151 117 q 51 508 51 353 q 113 790 51 668 q 279 977 174 911 q 514 1043 385 1043 q 621 1032 568 1043 q 728 1082 694 1033 q 771 1190 763 1131 q 772 1214 774 1208 l 869 1214 q 872 1183 872 1192 q 836 1070 872 1124 q 740 985 800 1017 m 497 50 q 667 103 594 50 q 779 264 739 157 q 819 525 819 371 q 768 796 819 683 q 621 953 717 908 l 617 953 l 617 954 q 501 978 563 978 q 265 858 353 978 q 178 508 178 738 q 215 271 178 375 q 325 108 253 167 q 497 50 397 50 m 525 1117 q 375 1195 464 1142 q 256 1290 286 1249 l 333 1361 l 563 1153 l 525 1117 z "},"Ở":{"ha":999,"x_min":51,"x_max":949,"o":"m 740 985 q 895 805 842 924 q 949 525 949 686 q 886 241 949 364 q 717 51 824 118 q 479 -15 610 -15 q 248 51 344 -15 q 101 235 151 117 q 51 508 51 353 q 113 790 51 668 q 279 977 174 911 q 514 1043 385 1043 q 621 1032 568 1043 q 728 1082 694 1033 q 771 1190 763 1131 q 772 1214 774 1208 l 869 1214 q 872 1183 872 1192 q 836 1070 872 1124 q 740 985 800 1017 m 497 50 q 667 103 594 50 q 779 264 739 157 q 819 525 819 371 q 768 796 819 683 q 621 953 717 908 l 617 953 l 617 954 q 501 978 563 978 q 265 858 353 978 q 178 508 178 738 q 215 271 178 375 q 325 108 253 167 q 497 50 397 50 m 450 1128 q 433 1156 440 1140 q 425 1182 425 1171 q 436 1212 425 1200 q 472 1239 447 1224 q 504 1261 493 1251 q 519 1286 515 1271 l 519 1293 q 500 1338 519 1319 q 440 1361 481 1356 l 428 1361 q 392 1357 400 1361 l 388 1431 q 412 1438 390 1435 q 450 1442 433 1442 q 568 1406 525 1442 q 611 1306 611 1369 q 593 1250 611 1271 q 539 1207 575 1229 q 504 1182 514 1190 q 490 1153 490 1171 q 493 1136 490 1147 l 450 1128 z "},"Ỡ":{"ha":999,"x_min":51,"x_max":949,"o":"m 740 985 q 895 805 842 924 q 949 525 949 686 q 886 241 949 364 q 717 51 824 118 q 479 -15 610 -15 q 248 51 344 -15 q 101 235 151 117 q 51 508 51 353 q 113 790 51 668 q 279 977 174 911 q 514 1043 385 1043 q 621 1032 568 1043 q 728 1082 694 1033 q 771 1190 763 1131 q 772 1214 774 1208 l 869 1214 q 872 1183 872 1192 q 836 1070 872 1124 q 740 985 800 1017 m 497 50 q 667 103 594 50 q 779 264 739 157 q 819 525 819 371 q 768 796 819 683 q 621 953 717 908 l 617 953 l 617 954 q 501 978 563 978 q 265 858 353 978 q 178 508 178 738 q 215 271 178 375 q 325 108 253 167 q 497 50 397 50 m 607 1157 q 540 1174 567 1157 q 482 1222 514 1190 q 435 1262 456 1249 q 389 1275 415 1275 q 324 1249 347 1275 q 283 1186 300 1222 l 225 1218 q 258 1283 233 1250 q 322 1337 283 1315 q 407 1358 361 1358 q 474 1341 447 1358 q 529 1292 500 1324 q 572 1253 554 1265 q 615 1240 590 1240 q 677 1265 657 1240 q 715 1329 697 1289 l 774 1297 q 713 1197 756 1238 q 607 1157 671 1157 z "},"Ő":{"ha":999,"x_min":51,"x_max":949,"o":"m 521 1300 q 420 1205 478 1251 q 307 1124 363 1158 l 258 1165 l 442 1364 l 521 1300 m 856 1294 q 755 1203 817 1250 q 636 1124 693 1157 l 588 1167 l 785 1361 l 856 1294 m 479 -15 q 248 51 344 -15 q 101 235 151 117 q 51 508 51 353 q 113 790 51 668 q 279 977 174 911 q 514 1043 385 1043 q 749 979 651 1043 q 898 799 847 915 q 949 525 949 682 q 886 241 949 364 q 717 51 824 118 q 479 -15 610 -15 m 501 978 q 265 858 353 978 q 178 508 178 738 q 215 271 178 375 q 325 108 253 167 q 497 50 397 50 q 667 103 594 50 q 779 264 739 157 q 819 525 819 371 q 782 762 819 660 q 673 921 744 864 q 501 978 601 978 z "},"Ō":{"ha":999,"x_min":51,"x_max":949,"o":"m 689 1278 l 689 1193 l 324 1193 l 324 1278 l 689 1278 m 479 -15 q 248 51 344 -15 q 101 235 151 117 q 51 508 51 353 q 113 790 51 668 q 279 977 174 911 q 514 1043 385 1043 q 749 979 651 1043 q 898 799 847 915 q 949 525 949 682 q 886 241 949 364 q 717 51 824 118 q 479 -15 610 -15 m 501 978 q 265 858 353 978 q 178 508 178 738 q 215 271 178 375 q 325 108 253 167 q 497 50 397 50 q 667 103 594 50 q 779 264 739 157 q 819 525 819 371 q 782 762 819 660 q 673 921 744 864 q 501 978 601 978 z "},"Ø":{"ha":1000,"x_min":51,"x_max":949,"o":"m 285 29 q 112 213 172 88 q 51 508 51 339 q 113 790 51 668 q 279 977 174 911 q 514 1043 385 1043 q 665 1019 594 1043 l 719 1157 l 772 1138 l 715 999 q 889 819 829 942 q 949 525 949 696 q 888 244 949 365 q 724 55 828 122 q 490 -15 619 -12 q 335 7 410 -17 l 274 -137 l 221 -119 l 285 29 m 503 978 q 265 858 353 978 q 178 508 178 739 q 215 274 178 376 q 321 114 251 171 l 633 947 q 503 978 575 978 m 821 525 q 785 757 821 656 q 681 915 749 858 l 367 82 q 499 50 426 50 q 667 103 594 50 q 781 264 740 157 q 821 525 821 371 z "},"Õ":{"ha":999,"x_min":51,"x_max":949,"o":"m 611 1157 q 544 1174 571 1157 q 486 1222 518 1190 q 440 1262 460 1249 q 393 1275 419 1275 q 328 1249 351 1275 q 288 1186 304 1222 l 229 1218 q 263 1283 238 1250 q 326 1337 288 1315 q 411 1358 365 1358 q 478 1341 451 1358 q 533 1292 504 1324 q 576 1253 558 1265 q 619 1240 594 1240 q 681 1265 661 1240 q 719 1329 701 1289 l 778 1297 q 717 1197 760 1238 q 611 1157 675 1157 m 479 -15 q 248 51 344 -15 q 101 235 151 117 q 51 508 51 353 q 113 790 51 668 q 279 977 174 911 q 514 1043 385 1043 q 749 979 651 1043 q 898 799 847 915 q 949 525 949 682 q 886 241 949 364 q 717 51 824 118 q 479 -15 610 -15 m 501 978 q 265 858 353 978 q 178 508 178 738 q 215 271 178 375 q 325 108 253 167 q 497 50 397 50 q 667 103 594 50 q 779 264 739 157 q 819 525 819 371 q 782 762 819 660 q 673 921 744 864 q 501 978 601 978 z "},"Œ":{"ha":1426,"x_min":51,"x_max":1390,"o":"m 701 44 q 483 -11 601 -11 q 251 54 349 -11 q 103 238 154 119 q 51 510 51 356 q 115 794 51 671 q 286 983 178 917 q 525 1049 394 1049 q 701 1011 624 1049 l 701 1032 l 1271 1032 l 1290 824 l 1225 824 l 1188 958 l 814 965 l 814 565 l 1072 569 l 1089 683 l 1160 683 l 1160 376 l 1089 376 l 1072 496 l 814 500 l 814 68 l 1244 82 l 1325 256 l 1390 238 l 1338 0 l 701 0 l 701 44 m 503 54 q 701 133 626 54 l 701 915 q 506 985 629 985 q 331 929 406 985 q 216 767 257 874 q 175 510 175 660 q 214 279 175 383 q 327 115 253 175 q 503 54 401 54 z "},"P":{"ha":890,"x_min":74,"x_max":851,"o":"m 193 957 l 82 972 l 82 1032 l 250 1032 q 310 1034 281 1032 q 354 1036 340 1036 q 493 1042 426 1042 q 770 969 689 1042 q 851 750 851 896 q 799 560 851 640 q 656 437 746 479 q 454 394 565 394 q 363 397 410 394 q 307 400 317 399 l 307 74 l 500 60 l 500 0 l 74 0 l 74 60 l 193 72 l 193 957 m 307 468 q 457 463 342 463 q 653 530 576 463 q 729 750 729 597 q 664 923 729 871 q 458 975 599 975 q 363 969 415 975 q 307 967 321 967 l 307 468 z "},"Ṗ":{"ha":890,"x_min":74,"x_max":851,"o":"m 193 957 l 82 972 l 82 1032 l 250 1032 q 310 1034 281 1032 q 354 1036 340 1036 q 493 1042 426 1042 q 770 969 689 1042 q 851 750 851 896 q 799 560 851 640 q 656 437 746 479 q 454 394 565 394 q 363 397 410 394 q 307 400 317 399 l 307 74 l 500 60 l 500 0 l 74 0 l 74 60 l 193 72 l 193 957 m 307 468 q 457 463 342 463 q 653 530 576 463 q 729 750 729 597 q 664 923 729 871 q 458 975 599 975 q 363 969 415 975 q 307 967 321 967 l 307 468 m 481 1161 q 429 1183 449 1161 q 410 1240 410 1206 q 431 1306 410 1279 q 492 1332 453 1332 q 545 1308 525 1332 q 565 1251 565 1283 q 543 1187 565 1213 q 481 1161 521 1161 z "},"Þ":{"ha":882,"x_min":69,"x_max":839,"o":"m 188 958 l 72 974 l 72 1033 l 425 1033 l 425 974 l 300 958 l 300 790 l 346 794 q 521 804 475 804 q 756 735 672 804 q 839 532 839 667 q 743 303 839 379 q 475 228 647 228 q 300 233 360 228 l 300 72 l 451 58 l 451 0 l 69 0 l 69 58 l 188 72 l 188 958 m 471 290 q 647 346 582 290 q 713 525 713 401 q 655 683 713 629 q 475 738 597 738 q 300 724 411 738 l 300 296 q 425 290 343 290 l 471 290 z "},"Q":{"ha":1007,"x_min":56,"x_max":1244,"o":"m 1131 -281 q 1012 -259 1068 -281 q 911 -208 956 -237 q 801 -128 867 -178 q 684 -43 732 -72 q 583 -4 636 -14 q 482 -15 540 -15 q 251 51 347 -15 q 106 235 156 117 q 56 508 56 353 q 117 790 56 668 q 283 977 178 911 q 518 1043 389 1043 q 753 979 656 1043 q 902 799 851 915 q 953 525 953 682 q 875 212 953 343 q 667 22 797 81 q 795 -9 735 18 q 940 -86 856 -36 q 1083 -159 1026 -135 q 1199 -183 1139 -183 l 1231 -182 l 1244 -239 q 1191 -269 1222 -258 q 1131 -281 1160 -281 m 501 50 q 671 103 599 50 q 783 264 743 157 q 824 525 824 371 q 786 762 824 660 q 677 921 749 864 q 506 978 606 978 q 269 858 357 978 q 182 508 182 738 q 219 271 182 375 q 329 108 257 167 q 501 50 401 50 z "},"R":{"ha":963,"x_min":69,"x_max":961,"o":"m 69 60 l 189 72 l 189 958 l 78 975 l 78 1032 l 247 1032 q 354 1038 285 1032 q 453 1043 421 1043 q 736 976 651 1043 q 821 771 821 910 q 765 588 821 669 q 613 478 708 506 q 685 399 649 454 q 776 247 722 344 q 852 120 824 163 q 903 74 881 78 l 961 58 l 961 0 l 799 0 q 747 47 776 0 q 665 200 718 94 q 572 376 608 315 q 499 458 535 438 q 303 460 329 458 l 303 72 l 446 60 l 446 0 l 69 0 l 69 60 m 490 526 q 642 586 586 526 q 697 761 697 646 q 640 919 697 863 q 442 975 583 975 q 346 969 393 975 q 303 967 313 967 l 303 528 q 403 526 328 526 l 490 526 z "},"Ŕ":{"ha":963,"x_min":69,"x_max":961,"o":"m 69 60 l 189 72 l 189 958 l 78 975 l 78 1032 l 247 1032 q 354 1038 285 1032 q 453 1043 421 1043 q 736 976 651 1043 q 821 771 821 910 q 765 588 821 669 q 613 478 708 506 q 685 399 649 454 q 776 247 722 344 q 852 120 824 163 q 903 74 881 78 l 961 58 l 961 0 l 799 0 q 747 47 776 0 q 665 200 718 94 q 572 376 608 315 q 499 458 535 438 q 303 460 329 458 l 303 72 l 446 60 l 446 0 l 69 0 l 69 60 m 490 526 q 642 586 586 526 q 697 761 697 646 q 640 919 697 863 q 442 975 583 975 q 346 969 393 975 q 303 967 313 967 l 303 528 q 403 526 328 526 l 490 526 m 413 1153 l 642 1361 l 719 1290 q 600 1195 689 1249 q 450 1117 511 1142 l 413 1153 z "},"Ř":{"ha":963,"x_min":69,"x_max":961,"o":"m 69 60 l 189 72 l 189 958 l 78 975 l 78 1032 l 247 1032 q 354 1038 285 1032 q 453 1043 421 1043 q 736 976 651 1043 q 821 771 821 910 q 765 588 821 669 q 613 478 708 506 q 685 399 649 454 q 776 247 722 344 q 852 120 824 163 q 903 74 881 78 l 961 58 l 961 0 l 799 0 q 747 47 776 0 q 665 200 718 94 q 572 376 608 315 q 499 458 535 438 q 303 460 329 458 l 303 72 l 446 60 l 446 0 l 69 0 l 69 60 m 490 526 q 642 586 586 526 q 697 761 697 646 q 640 919 697 863 q 442 975 583 975 q 346 969 393 975 q 303 967 313 967 l 303 528 q 403 526 328 526 l 490 526 m 311 1364 l 482 1225 l 656 1364 l 701 1335 l 535 1147 l 429 1147 l 261 1333 l 311 1364 z "},"Ŗ":{"ha":963,"x_min":69,"x_max":961,"o":"m 69 60 l 189 72 l 189 958 l 78 975 l 78 1032 l 247 1032 q 354 1038 285 1032 q 453 1043 421 1043 q 736 976 651 1043 q 821 771 821 910 q 765 588 821 669 q 613 478 708 506 q 685 399 649 454 q 776 247 722 344 q 852 120 824 163 q 903 74 881 78 l 961 58 l 961 0 l 799 0 q 747 47 776 0 q 665 200 718 94 q 572 376 608 315 q 499 458 535 438 q 303 460 329 458 l 303 72 l 446 60 l 446 0 l 69 0 l 69 60 m 490 526 q 642 586 586 526 q 697 761 697 646 q 640 919 697 863 q 442 975 583 975 q 346 969 393 975 q 303 967 313 967 l 303 528 q 403 526 328 526 l 490 526 m 599 -192 q 578 -283 599 -242 q 532 -349 557 -324 q 494 -378 507 -374 l 493 -378 l 456 -351 l 456 -343 q 490 -304 476 -333 q 503 -243 503 -275 q 495 -214 503 -225 q 474 -193 488 -203 q 454 -173 461 -185 q 447 -142 447 -161 q 468 -94 447 -108 q 508 -81 489 -81 l 514 -81 q 576 -110 553 -81 q 599 -192 599 -139 z "},"S":{"ha":817,"x_min":90,"x_max":757,"o":"m 397 -15 q 272 -3 326 -15 q 147 32 218 10 q 90 49 100 47 l 101 296 l 174 296 l 194 114 q 278 71 221 89 q 404 53 336 53 q 576 104 517 53 q 636 246 636 156 q 605 344 636 304 q 524 413 574 385 q 388 478 475 440 q 248 547 306 513 q 147 641 190 582 q 104 782 104 700 q 146 918 104 858 q 262 1010 188 978 q 432 1043 336 1043 q 535 1034 490 1043 q 650 1006 581 1025 q 694 993 688 994 l 686 765 l 617 765 l 592 938 q 527 965 575 951 q 425 978 479 978 q 268 935 322 978 q 214 810 214 893 q 243 715 214 753 q 318 650 272 676 q 460 579 364 624 q 616 498 560 532 q 715 409 672 464 q 757 276 757 354 q 714 135 757 203 q 589 26 671 68 q 397 -15 507 -15 z "},"Ś":{"ha":817,"x_min":90,"x_max":757,"o":"m 397 -15 q 272 -3 326 -15 q 147 32 218 10 q 90 49 100 47 l 101 296 l 174 296 l 194 114 q 278 71 221 89 q 404 53 336 53 q 576 104 517 53 q 636 246 636 156 q 605 344 636 304 q 524 413 574 385 q 388 478 475 440 q 248 547 306 513 q 147 641 190 582 q 104 782 104 700 q 146 918 104 858 q 262 1010 188 978 q 432 1043 336 1043 q 535 1034 490 1043 q 650 1006 581 1025 q 694 993 688 994 l 686 765 l 617 765 l 592 938 q 527 965 575 951 q 425 978 479 978 q 268 935 322 978 q 214 810 214 893 q 243 715 214 753 q 318 650 272 676 q 460 579 364 624 q 616 498 560 532 q 715 409 672 464 q 757 276 757 354 q 714 135 757 203 q 589 26 671 68 q 397 -15 507 -15 m 381 1153 l 610 1361 l 688 1290 q 568 1195 657 1249 q 418 1117 479 1142 l 381 1153 z "},"Š":{"ha":817,"x_min":90,"x_max":757,"o":"m 268 1364 l 439 1225 l 613 1364 l 658 1335 l 492 1147 l 386 1147 l 218 1333 l 268 1364 m 397 -15 q 272 -3 326 -15 q 147 32 218 10 q 90 49 100 47 l 101 296 l 174 296 l 194 114 q 278 71 221 89 q 404 53 336 53 q 576 104 517 53 q 636 246 636 156 q 605 344 636 304 q 524 413 574 385 q 388 478 475 440 q 248 547 306 513 q 147 641 190 582 q 104 782 104 700 q 146 918 104 858 q 262 1010 188 978 q 432 1043 336 1043 q 535 1034 490 1043 q 650 1006 581 1025 q 694 993 688 994 l 686 765 l 617 765 l 592 938 q 527 965 575 951 q 425 978 479 978 q 268 935 322 978 q 214 810 214 893 q 243 715 214 753 q 318 650 272 676 q 460 579 364 624 q 616 498 560 532 q 715 409 672 464 q 757 276 757 354 q 714 135 757 203 q 589 26 671 68 q 397 -15 507 -15 z "},"Ŝ":{"ha":817,"x_min":90,"x_max":757,"o":"m 385 1365 l 489 1365 l 668 1165 l 618 1135 l 438 1282 l 253 1135 l 207 1164 l 385 1365 m 397 -15 q 272 -3 326 -15 q 147 32 218 10 q 90 49 100 47 l 101 296 l 174 296 l 194 114 q 278 71 221 89 q 404 53 336 53 q 576 104 517 53 q 636 246 636 156 q 605 344 636 304 q 524 413 574 385 q 388 478 475 440 q 248 547 306 513 q 147 641 190 582 q 104 782 104 700 q 146 918 104 858 q 262 1010 188 978 q 432 1043 336 1043 q 535 1034 490 1043 q 650 1006 581 1025 q 694 993 688 994 l 686 765 l 617 765 l 592 938 q 527 965 575 951 q 425 978 479 978 q 268 935 322 978 q 214 810 214 893 q 243 715 214 753 q 318 650 272 676 q 460 579 364 624 q 616 498 560 532 q 715 409 672 464 q 757 276 757 354 q 714 135 757 203 q 589 26 671 68 q 397 -15 507 -15 z "},"Ș":{"ha":817,"x_min":90,"x_max":757,"o":"m 397 -15 q 272 -3 326 -15 q 147 32 218 10 q 90 49 100 47 l 101 296 l 174 296 l 194 114 q 278 71 221 89 q 404 53 336 53 q 576 104 517 53 q 636 246 636 156 q 605 344 636 304 q 524 413 574 385 q 388 478 475 440 q 248 547 306 513 q 147 641 190 582 q 104 782 104 700 q 146 918 104 858 q 262 1010 188 978 q 432 1043 336 1043 q 535 1034 490 1043 q 650 1006 581 1025 q 694 993 688 994 l 686 765 l 617 765 l 592 938 q 527 965 575 951 q 425 978 479 978 q 268 935 322 978 q 214 810 214 893 q 243 715 214 753 q 318 650 272 676 q 460 579 364 624 q 616 498 560 532 q 715 409 672 464 q 757 276 757 354 q 714 135 757 203 q 589 26 671 68 q 397 -15 507 -15 m 504 -192 q 483 -283 504 -242 q 438 -349 463 -324 q 400 -378 413 -374 l 399 -378 l 361 -351 l 361 -343 q 395 -304 382 -333 q 408 -243 408 -275 q 401 -214 408 -225 q 379 -193 393 -203 q 360 -173 367 -185 q 353 -142 353 -161 q 374 -94 353 -108 q 414 -81 394 -81 l 419 -81 q 481 -110 458 -81 q 504 -192 504 -139 z "},"Ṡ":{"ha":817,"x_min":90,"x_max":757,"o":"m 397 -15 q 272 -3 326 -15 q 147 32 218 10 q 90 49 100 47 l 101 296 l 174 296 l 194 114 q 278 71 221 89 q 404 53 336 53 q 576 104 517 53 q 636 246 636 156 q 605 344 636 304 q 524 413 574 385 q 388 478 475 440 q 248 547 306 513 q 147 641 190 582 q 104 782 104 700 q 146 918 104 858 q 262 1010 188 978 q 432 1043 336 1043 q 535 1034 490 1043 q 650 1006 581 1025 q 694 993 688 994 l 686 765 l 617 765 l 592 938 q 527 965 575 951 q 425 978 479 978 q 268 935 322 978 q 214 810 214 893 q 243 715 214 753 q 318 650 272 676 q 460 579 364 624 q 616 498 560 532 q 715 409 672 464 q 757 276 757 354 q 714 135 757 203 q 589 26 671 68 q 397 -15 507 -15 m 443 1161 q 392 1183 411 1161 q 372 1240 372 1206 q 394 1306 372 1279 q 454 1332 415 1332 q 508 1308 488 1332 q 528 1251 528 1283 q 506 1187 528 1213 q 443 1161 483 1161 z "},"ẞ":{"ha":996,"x_min":28,"x_max":963,"o":"m 114 72 l 114 618 q 172 833 114 735 q 329 987 229 931 q 550 1043 429 1043 q 706 1023 639 1043 q 835 967 774 1003 l 835 918 l 657 635 l 696 614 q 831 533 778 571 q 924 433 885 494 q 963 288 963 372 q 926 133 963 203 q 824 24 890 64 q 669 -15 757 -15 q 567 -4 613 -15 q 467 26 521 7 q 417 42 433 39 l 425 278 l 496 278 l 519 103 q 581 65 536 81 q 676 50 626 50 q 802 101 754 50 q 850 263 850 153 q 797 397 850 338 q 683 491 743 457 q 540 564 624 525 l 540 592 l 726 906 q 515 979 657 979 q 372 939 438 979 q 269 822 307 899 q 231 643 231 746 l 231 0 l 28 0 l 28 58 l 114 72 z "},"Ə":{"ha":910,"x_min":67,"x_max":861,"o":"m 415 -15 q 164 92 257 -15 q 67 394 71 200 q 74 529 67 497 l 744 529 q 698 767 739 667 q 587 922 657 868 q 428 975 517 975 q 283 954 339 975 q 189 901 228 933 l 164 790 l 90 790 l 99 989 q 189 1007 133 990 q 315 1034 260 1025 q 450 1043 369 1043 q 667 978 574 1043 q 810 794 760 913 q 861 522 861 676 q 803 243 861 365 q 643 53 744 121 q 415 -15 542 -15 m 444 60 q 658 158 576 60 q 744 461 739 257 l 190 461 q 185 385 185 428 q 213 229 185 304 q 300 107 242 154 q 444 60 358 60 z "},"T":{"ha":943,"x_min":25,"x_max":910,"o":"m 410 72 l 410 969 l 146 961 l 101 679 l 25 679 l 49 1032 l 894 1032 l 910 679 l 836 679 l 797 961 l 529 969 l 529 72 l 728 60 l 728 0 l 228 0 l 228 60 l 410 72 z "},"Ŧ":{"ha":968,"x_min":39,"x_max":924,"o":"m 424 536 l 424 969 l 160 961 l 115 679 l 39 679 l 61 1032 l 908 1032 l 924 679 l 849 679 l 810 961 l 543 969 l 543 536 l 718 536 l 718 461 l 543 461 l 543 72 l 742 60 l 742 0 l 242 0 l 242 60 l 424 72 l 424 461 l 250 461 l 250 536 l 424 536 z "},"Ť":{"ha":943,"x_min":25,"x_max":910,"o":"m 313 1364 l 483 1225 l 657 1364 l 703 1335 l 536 1147 l 431 1147 l 263 1333 l 313 1364 m 410 72 l 410 969 l 146 961 l 101 679 l 25 679 l 49 1032 l 894 1032 l 910 679 l 836 679 l 797 961 l 529 969 l 529 72 l 728 60 l 728 0 l 228 0 l 228 60 l 410 72 z "},"Ţ":{"ha":943,"x_min":25,"x_max":910,"o":"m 910 679 l 836 679 l 797 961 l 529 969 l 529 72 l 728 60 l 728 0 l 518 0 q 576 -81 547 -26 q 606 -190 606 -135 q 563 -295 606 -264 q 436 -326 521 -326 q 385 -321 413 -326 q 338 -308 357 -315 l 339 -226 q 372 -234 353 -231 q 403 -237 390 -237 q 483 -218 458 -237 q 508 -139 508 -199 q 492 -62 508 -101 q 461 0 476 -22 l 228 0 l 228 60 l 410 72 l 410 969 l 146 961 l 101 679 l 25 679 l 49 1032 l 894 1032 l 910 679 z "},"Ț":{"ha":943,"x_min":25,"x_max":910,"o":"m 410 72 l 410 969 l 146 961 l 101 679 l 25 679 l 49 1032 l 894 1032 l 910 679 l 836 679 l 797 961 l 529 969 l 529 72 l 728 60 l 728 0 l 228 0 l 228 60 l 410 72 m 576 -192 q 556 -283 576 -242 q 510 -349 535 -324 q 472 -378 485 -374 l 471 -378 l 433 -351 l 433 -343 q 467 -304 454 -333 q 481 -243 481 -275 q 473 -214 481 -225 q 451 -193 465 -203 q 432 -173 439 -185 q 425 -142 425 -161 q 446 -94 425 -108 q 486 -81 467 -81 l 492 -81 q 553 -110 531 -81 q 576 -192 576 -139 z "},"Ṫ":{"ha":943,"x_min":25,"x_max":910,"o":"m 410 72 l 410 969 l 146 961 l 101 679 l 25 679 l 49 1032 l 894 1032 l 910 679 l 836 679 l 797 961 l 529 969 l 529 72 l 728 60 l 728 0 l 228 0 l 228 60 l 410 72 m 465 1161 q 414 1183 433 1161 q 394 1240 394 1206 q 416 1306 394 1279 q 476 1332 438 1332 q 530 1308 510 1332 q 550 1251 550 1283 q 528 1187 550 1213 q 465 1161 506 1161 z "},"U":{"ha":1025,"x_min":38,"x_max":1000,"o":"m 526 -11 q 234 99 326 -11 q 142 442 142 210 l 142 957 l 38 972 l 38 1032 l 378 1032 l 378 972 l 258 957 l 258 429 q 331 142 258 226 q 538 57 404 57 q 739 149 671 57 q 807 418 807 240 l 807 956 l 692 972 l 692 1032 l 1000 1032 l 1000 972 l 894 957 l 894 424 q 794 98 894 207 q 526 -11 693 -11 z "},"Ú":{"ha":1025,"x_min":38,"x_max":1000,"o":"m 526 -11 q 234 99 326 -11 q 142 442 142 210 l 142 957 l 38 972 l 38 1032 l 378 1032 l 378 972 l 258 957 l 258 429 q 331 142 258 226 q 538 57 404 57 q 739 149 671 57 q 807 418 807 240 l 807 956 l 692 972 l 692 1032 l 1000 1032 l 1000 972 l 894 957 l 894 424 q 794 98 894 207 q 526 -11 693 -11 m 485 1153 l 714 1361 l 792 1290 q 672 1195 761 1249 q 522 1117 583 1142 l 485 1153 z "},"Ŭ":{"ha":1025,"x_min":38,"x_max":1000,"o":"m 540 1122 q 375 1179 435 1122 q 315 1325 315 1236 q 317 1353 315 1343 l 381 1353 q 382 1333 381 1342 q 425 1250 388 1286 q 540 1214 463 1214 q 655 1251 618 1214 q 696 1335 692 1288 q 697 1353 697 1343 l 758 1353 q 760 1326 760 1343 q 701 1180 760 1238 q 540 1122 642 1122 m 526 -11 q 234 99 326 -11 q 142 442 142 210 l 142 957 l 38 972 l 38 1032 l 378 1032 l 378 972 l 258 957 l 258 429 q 331 142 258 226 q 538 57 404 57 q 739 149 671 57 q 807 418 807 240 l 807 956 l 692 972 l 692 1032 l 1000 1032 l 1000 972 l 894 957 l 894 424 q 794 98 894 207 q 526 -11 693 -11 z "},"Û":{"ha":1025,"x_min":38,"x_max":1000,"o":"m 486 1365 l 590 1365 l 769 1165 l 719 1135 l 539 1282 l 354 1135 l 308 1164 l 486 1365 m 526 -11 q 234 99 326 -11 q 142 442 142 210 l 142 957 l 38 972 l 38 1032 l 378 1032 l 378 972 l 258 957 l 258 429 q 331 142 258 226 q 538 57 404 57 q 739 149 671 57 q 807 418 807 240 l 807 956 l 692 972 l 692 1032 l 1000 1032 l 1000 972 l 894 957 l 894 424 q 794 98 894 207 q 526 -11 693 -11 z "},"Ü":{"ha":1025,"x_min":38,"x_max":1000,"o":"m 368 1158 q 317 1181 336 1158 q 299 1238 299 1204 q 319 1303 299 1276 q 379 1331 340 1331 l 381 1331 q 434 1306 414 1331 q 454 1249 454 1281 q 432 1184 454 1210 q 369 1158 410 1158 l 368 1158 m 699 1158 q 648 1181 667 1158 q 629 1238 629 1204 q 650 1303 629 1276 q 710 1331 671 1331 l 711 1331 q 764 1306 744 1331 q 783 1249 783 1282 q 761 1184 783 1210 q 699 1158 739 1158 m 526 -11 q 234 99 326 -11 q 142 442 142 210 l 142 957 l 38 972 l 38 1032 l 378 1032 l 378 972 l 258 957 l 258 429 q 331 142 258 226 q 538 57 404 57 q 739 149 671 57 q 807 418 807 240 l 807 956 l 692 972 l 692 1032 l 1000 1032 l 1000 972 l 894 957 l 894 424 q 794 98 894 207 q 526 -11 693 -11 z "},"Ụ":{"ha":1025,"x_min":38,"x_max":1000,"o":"m 526 -11 q 234 99 326 -11 q 142 442 142 210 l 142 957 l 38 972 l 38 1032 l 378 1032 l 378 972 l 258 957 l 258 429 q 331 142 258 226 q 538 57 404 57 q 739 149 671 57 q 807 418 807 240 l 807 956 l 692 972 l 692 1032 l 1000 1032 l 1000 972 l 894 957 l 894 424 q 794 98 894 207 q 526 -11 693 -11 m 504 -247 q 459 -227 476 -247 q 442 -176 442 -207 q 461 -117 442 -142 q 517 -93 481 -93 q 564 -115 546 -93 q 582 -164 582 -136 q 563 -224 582 -200 q 506 -247 543 -247 l 504 -247 z "},"Ù":{"ha":1025,"x_min":38,"x_max":1000,"o":"m 526 -11 q 234 99 326 -11 q 142 442 142 210 l 142 957 l 38 972 l 38 1032 l 378 1032 l 378 972 l 258 957 l 258 429 q 331 142 258 226 q 538 57 404 57 q 739 149 671 57 q 807 418 807 240 l 807 956 l 692 972 l 692 1032 l 1000 1032 l 1000 972 l 894 957 l 894 424 q 794 98 894 207 q 526 -11 693 -11 m 579 1117 q 429 1195 518 1142 q 310 1290 340 1249 l 388 1361 l 617 1153 l 579 1117 z "},"Ủ":{"ha":1025,"x_min":38,"x_max":1000,"o":"m 526 -11 q 234 99 326 -11 q 142 442 142 210 l 142 957 l 38 972 l 38 1032 l 378 1032 l 378 972 l 258 957 l 258 429 q 331 142 258 226 q 538 57 404 57 q 739 149 671 57 q 807 418 807 240 l 807 956 l 692 972 l 692 1032 l 1000 1032 l 1000 972 l 894 957 l 894 424 q 794 98 894 207 q 526 -11 693 -11 m 504 1128 q 487 1156 494 1140 q 479 1182 479 1171 q 490 1212 479 1200 q 526 1239 501 1224 q 558 1261 547 1251 q 574 1286 569 1271 l 574 1293 q 554 1338 574 1319 q 494 1361 535 1356 l 482 1361 q 446 1357 454 1361 l 442 1431 q 466 1438 444 1435 q 504 1442 488 1442 q 622 1406 579 1442 q 665 1306 665 1369 q 647 1250 665 1271 q 593 1207 629 1229 q 558 1182 568 1190 q 544 1153 544 1171 q 547 1136 544 1147 l 504 1128 z "},"Ư":{"ha":1025,"x_min":38,"x_max":1107,"o":"m 1107 1183 q 1078 1082 1107 1131 q 1001 1000 1050 1033 q 894 957 951 967 l 894 424 q 794 98 894 207 q 526 -11 693 -11 q 234 99 326 -11 q 142 442 142 210 l 142 957 l 38 972 l 38 1032 l 378 1032 l 378 972 l 258 957 l 258 429 q 331 142 258 226 q 538 57 404 57 q 739 149 671 57 q 807 418 807 240 l 807 956 l 692 972 l 692 1032 l 851 1032 q 962 1081 926 1032 q 1006 1190 997 1129 q 1007 1214 1008 1208 l 1104 1214 q 1107 1183 1107 1192 z "},"Ứ":{"ha":1025,"x_min":38,"x_max":1107,"o":"m 1107 1183 q 1078 1082 1107 1131 q 1001 1000 1050 1033 q 894 957 951 967 l 894 424 q 794 98 894 207 q 526 -11 693 -11 q 234 99 326 -11 q 142 442 142 210 l 142 957 l 38 972 l 38 1032 l 378 1032 l 378 972 l 258 957 l 258 429 q 331 142 258 226 q 538 57 404 57 q 739 149 671 57 q 807 418 807 240 l 807 956 l 692 972 l 692 1032 l 851 1032 q 962 1081 926 1032 q 1006 1190 997 1129 q 1007 1214 1008 1208 l 1104 1214 q 1107 1183 1107 1192 m 443 1153 l 672 1361 l 750 1290 q 631 1195 719 1249 q 481 1117 542 1142 l 443 1153 z "},"Ự":{"ha":1025,"x_min":38,"x_max":1107,"o":"m 1107 1183 q 1078 1082 1107 1131 q 1001 1000 1050 1033 q 894 957 951 967 l 894 424 q 794 98 894 207 q 526 -11 693 -11 q 234 99 326 -11 q 142 442 142 210 l 142 957 l 38 972 l 38 1032 l 378 1032 l 378 972 l 258 957 l 258 429 q 331 142 258 226 q 538 57 404 57 q 739 149 671 57 q 807 418 807 240 l 807 956 l 692 972 l 692 1032 l 851 1032 q 962 1081 926 1032 q 1006 1190 997 1129 q 1007 1214 1008 1208 l 1104 1214 q 1107 1183 1107 1192 m 504 -247 q 459 -227 476 -247 q 442 -176 442 -207 q 461 -117 442 -142 q 517 -93 481 -93 q 564 -115 546 -93 q 582 -164 582 -136 q 563 -224 582 -200 q 506 -247 543 -247 l 504 -247 z "},"Ừ":{"ha":1025,"x_min":38,"x_max":1107,"o":"m 1107 1183 q 1078 1082 1107 1131 q 1001 1000 1050 1033 q 894 957 951 967 l 894 424 q 794 98 894 207 q 526 -11 693 -11 q 234 99 326 -11 q 142 442 142 210 l 142 957 l 38 972 l 38 1032 l 378 1032 l 378 972 l 258 957 l 258 429 q 331 142 258 226 q 538 57 404 57 q 739 149 671 57 q 807 418 807 240 l 807 956 l 692 972 l 692 1032 l 851 1032 q 962 1081 926 1032 q 1006 1190 997 1129 q 1007 1214 1008 1208 l 1104 1214 q 1107 1183 1107 1192 m 538 1117 q 388 1195 476 1142 q 268 1290 299 1249 l 346 1361 l 575 1153 l 538 1117 z "},"Ử":{"ha":1025,"x_min":38,"x_max":1107,"o":"m 1107 1183 q 1078 1082 1107 1131 q 1001 1000 1050 1033 q 894 957 951 967 l 894 424 q 794 98 894 207 q 526 -11 693 -11 q 234 99 326 -11 q 142 442 142 210 l 142 957 l 38 972 l 38 1032 l 378 1032 l 378 972 l 258 957 l 258 429 q 331 142 258 226 q 538 57 404 57 q 739 149 671 57 q 807 418 807 240 l 807 956 l 692 972 l 692 1032 l 851 1032 q 962 1081 926 1032 q 1006 1190 997 1129 q 1007 1214 1008 1208 l 1104 1214 q 1107 1183 1107 1192 m 463 1128 q 445 1156 453 1140 q 438 1182 438 1171 q 449 1212 438 1200 q 485 1239 460 1224 q 517 1261 506 1251 q 532 1286 528 1271 l 532 1293 q 513 1338 532 1319 q 453 1361 493 1356 l 440 1361 q 404 1357 413 1361 l 400 1431 q 424 1438 403 1435 q 463 1442 446 1442 q 581 1406 538 1442 q 624 1306 624 1369 q 606 1250 624 1271 q 551 1207 588 1229 q 517 1182 526 1190 q 503 1153 503 1171 q 506 1136 503 1147 l 463 1128 z "},"Ữ":{"ha":1025,"x_min":38,"x_max":1107,"o":"m 1107 1183 q 1078 1082 1107 1131 q 1001 1000 1050 1033 q 894 957 951 967 l 894 424 q 794 98 894 207 q 526 -11 693 -11 q 234 99 326 -11 q 142 442 142 210 l 142 957 l 38 972 l 38 1032 l 378 1032 l 378 972 l 258 957 l 258 429 q 331 142 258 226 q 538 57 404 57 q 739 149 671 57 q 807 418 807 240 l 807 956 l 692 972 l 692 1032 l 851 1032 q 962 1081 926 1032 q 1006 1190 997 1129 q 1007 1214 1008 1208 l 1104 1214 q 1107 1183 1107 1192 m 619 1157 q 553 1174 579 1157 q 494 1222 526 1190 q 448 1262 468 1249 q 401 1275 428 1275 q 336 1249 360 1275 q 296 1186 313 1222 l 238 1218 q 271 1283 246 1250 q 335 1337 296 1315 q 419 1358 374 1358 q 486 1341 460 1358 q 542 1292 513 1324 q 585 1253 567 1265 q 628 1240 603 1240 q 690 1265 669 1240 q 728 1329 710 1289 l 786 1297 q 726 1197 768 1238 q 619 1157 683 1157 z "},"Ű":{"ha":1025,"x_min":38,"x_max":1000,"o":"m 557 1300 q 456 1205 514 1251 q 343 1124 399 1158 l 294 1165 l 478 1364 l 557 1300 m 892 1294 q 791 1203 853 1250 q 672 1124 729 1157 l 624 1167 l 821 1361 l 892 1294 m 526 -11 q 234 99 326 -11 q 142 442 142 210 l 142 957 l 38 972 l 38 1032 l 378 1032 l 378 972 l 258 957 l 258 429 q 331 142 258 226 q 538 57 404 57 q 739 149 671 57 q 807 418 807 240 l 807 956 l 692 972 l 692 1032 l 1000 1032 l 1000 972 l 894 957 l 894 424 q 794 98 894 207 q 526 -11 693 -11 z "},"Ū":{"ha":1025,"x_min":38,"x_max":1000,"o":"m 725 1278 l 725 1193 l 360 1193 l 360 1278 l 725 1278 m 526 -11 q 234 99 326 -11 q 142 442 142 210 l 142 957 l 38 972 l 38 1032 l 378 1032 l 378 972 l 258 957 l 258 429 q 331 142 258 226 q 538 57 404 57 q 739 149 671 57 q 807 418 807 240 l 807 956 l 692 972 l 692 1032 l 1000 1032 l 1000 972 l 894 957 l 894 424 q 794 98 894 207 q 526 -11 693 -11 z "},"Ų":{"ha":1025,"x_min":38,"x_max":1000,"o":"m 526 -11 q 234 99 326 -11 q 142 442 142 210 l 142 957 l 38 972 l 38 1032 l 378 1032 l 378 972 l 258 957 l 258 429 q 331 142 258 226 q 538 57 404 57 q 739 149 671 57 q 807 418 807 240 l 807 956 l 692 972 l 692 1032 l 1000 1032 l 1000 972 l 894 957 l 894 424 q 828 145 894 250 q 647 6 763 40 q 533 -84 579 -32 q 486 -178 486 -136 q 516 -247 486 -225 q 593 -268 546 -268 q 701 -240 649 -268 l 701 -299 q 631 -333 674 -321 q 546 -346 589 -346 q 424 -315 472 -346 q 376 -215 376 -283 q 426 -104 376 -164 q 544 -10 475 -44 q 526 -11 539 -11 z "},"Ů":{"ha":1025,"x_min":38,"x_max":1000,"o":"m 526 -11 q 234 99 326 -11 q 142 442 142 210 l 142 957 l 38 972 l 38 1032 l 378 1032 l 378 972 l 258 957 l 258 429 q 331 142 258 226 q 538 57 404 57 q 739 149 671 57 q 807 418 807 240 l 807 956 l 692 972 l 692 1032 l 1000 1032 l 1000 972 l 894 957 l 894 424 q 794 98 894 207 q 526 -11 693 -11 m 553 1028 q 392 1074 447 1028 q 336 1196 336 1121 q 403 1321 336 1276 q 561 1365 471 1365 q 717 1320 661 1365 q 772 1199 772 1275 q 709 1073 772 1118 q 553 1028 646 1028 m 556 1082 q 654 1110 621 1082 q 688 1190 688 1138 q 656 1277 688 1244 q 558 1310 624 1310 q 458 1282 493 1310 q 422 1200 422 1254 q 456 1116 422 1150 q 556 1082 489 1082 z "},"Ũ":{"ha":1025,"x_min":38,"x_max":1000,"o":"m 647 1157 q 581 1174 607 1157 q 522 1222 554 1190 q 476 1262 496 1249 q 429 1275 456 1275 q 364 1249 388 1275 q 324 1186 340 1222 l 265 1218 q 299 1283 274 1250 q 363 1337 324 1315 q 447 1358 401 1358 q 514 1341 488 1358 q 569 1292 540 1324 q 613 1253 594 1265 q 656 1240 631 1240 q 717 1265 697 1240 q 756 1329 738 1289 l 814 1297 q 753 1197 796 1238 q 647 1157 711 1157 m 526 -11 q 234 99 326 -11 q 142 442 142 210 l 142 957 l 38 972 l 38 1032 l 378 1032 l 378 972 l 258 957 l 258 429 q 331 142 258 226 q 538 57 404 57 q 739 149 671 57 q 807 418 807 240 l 807 956 l 692 972 l 692 1032 l 1000 1032 l 1000 972 l 894 957 l 894 424 q 794 98 894 207 q 526 -11 693 -11 z "},"V":{"ha":917,"x_min":-21,"x_max":940,"o":"m -21 972 l -21 1032 l 317 1032 l 317 972 l 189 957 l 435 288 l 493 99 l 546 290 l 758 957 l 647 972 l 647 1032 l 940 1032 l 940 972 l 851 957 l 521 -11 l 429 -11 l 65 957 l -21 972 z "},"W":{"ha":1374,"x_min":-29,"x_max":1400,"o":"m -29 972 l -29 1032 l 321 1032 l 321 972 l 185 957 l 386 297 l 432 78 l 486 297 l 653 840 l 615 957 l 513 972 l 513 1032 l 874 1032 l 874 972 l 736 957 l 932 297 l 986 61 l 1032 297 l 1217 957 l 1071 972 l 1071 1032 l 1400 1032 l 1400 972 l 1307 957 l 1022 -7 l 915 -7 l 690 719 l 469 -7 l 368 -7 l 68 956 l -29 972 z "},"Ẃ":{"ha":1374,"x_min":-29,"x_max":1400,"o":"m -29 972 l -29 1032 l 321 1032 l 321 972 l 185 957 l 386 297 l 432 78 l 486 297 l 653 840 l 615 957 l 513 972 l 513 1032 l 874 1032 l 874 972 l 736 957 l 932 297 l 986 61 l 1032 297 l 1217 957 l 1071 972 l 1071 1032 l 1400 1032 l 1400 972 l 1307 957 l 1022 -7 l 915 -7 l 690 719 l 469 -7 l 368 -7 l 68 956 l -29 972 m 618 1153 l 847 1361 l 925 1290 q 806 1195 894 1249 q 656 1117 717 1142 l 618 1153 z "},"Ŵ":{"ha":1374,"x_min":-29,"x_max":1400,"o":"m 631 1365 l 735 1365 l 914 1165 l 864 1135 l 683 1282 l 499 1135 l 453 1164 l 631 1365 m -29 972 l -29 1032 l 321 1032 l 321 972 l 185 957 l 386 297 l 432 78 l 486 297 l 653 840 l 615 957 l 513 972 l 513 1032 l 874 1032 l 874 972 l 736 957 l 932 297 l 986 61 l 1032 297 l 1217 957 l 1071 972 l 1071 1032 l 1400 1032 l 1400 972 l 1307 957 l 1022 -7 l 915 -7 l 690 719 l 469 -7 l 368 -7 l 68 956 l -29 972 z "},"Ẅ":{"ha":1374,"x_min":-29,"x_max":1400,"o":"m 511 1158 q 460 1181 479 1158 q 442 1238 442 1204 q 463 1303 442 1276 q 522 1331 483 1331 l 524 1331 q 577 1306 557 1331 q 597 1249 597 1281 q 575 1184 597 1210 q 513 1158 553 1158 l 511 1158 m 842 1158 q 791 1181 810 1158 q 772 1238 772 1204 q 793 1303 772 1276 q 853 1331 814 1331 l 854 1331 q 907 1306 888 1331 q 926 1249 926 1282 q 904 1184 926 1210 q 842 1158 882 1158 m -29 972 l -29 1032 l 321 1032 l 321 972 l 185 957 l 386 297 l 432 78 l 486 297 l 653 840 l 615 957 l 513 972 l 513 1032 l 874 1032 l 874 972 l 736 957 l 932 297 l 986 61 l 1032 297 l 1217 957 l 1071 972 l 1071 1032 l 1400 1032 l 1400 972 l 1307 957 l 1022 -7 l 915 -7 l 690 719 l 469 -7 l 368 -7 l 68 956 l -29 972 z "},"Ẁ":{"ha":1374,"x_min":-29,"x_max":1400,"o":"m -29 972 l -29 1032 l 321 1032 l 321 972 l 185 957 l 386 297 l 432 78 l 486 297 l 653 840 l 615 957 l 513 972 l 513 1032 l 874 1032 l 874 972 l 736 957 l 932 297 l 986 61 l 1032 297 l 1217 957 l 1071 972 l 1071 1032 l 1400 1032 l 1400 972 l 1307 957 l 1022 -7 l 915 -7 l 690 719 l 469 -7 l 368 -7 l 68 956 l -29 972 m 713 1117 q 563 1195 651 1142 q 443 1290 474 1249 l 521 1361 l 750 1153 l 713 1117 z "},"X":{"ha":983,"x_min":10,"x_max":979,"o":"m 131 72 l 435 522 l 142 956 l 35 972 l 35 1032 l 424 1032 l 424 972 l 282 956 l 515 582 l 746 957 l 621 972 l 621 1032 l 953 1032 l 953 972 l 843 956 l 553 536 l 868 72 l 979 60 l 979 0 l 592 0 l 592 60 l 728 72 l 475 475 l 232 72 l 375 60 l 375 0 l 10 0 l 10 60 l 131 72 z "},"Y":{"ha":889,"x_min":-12,"x_max":903,"o":"m 394 72 l 394 397 l 74 956 l -12 972 l -12 1032 l 319 1032 l 319 972 l 203 957 l 413 564 l 463 453 l 517 564 l 718 957 l 601 972 l 601 1032 l 903 1032 l 903 972 l 811 957 l 511 399 l 511 74 l 669 60 l 669 0 l 240 0 l 240 60 l 394 72 z "},"Ý":{"ha":889,"x_min":-12,"x_max":903,"o":"m 394 72 l 394 397 l 74 956 l -12 972 l -12 1032 l 319 1032 l 319 972 l 203 957 l 413 564 l 463 453 l 517 564 l 718 957 l 601 972 l 601 1032 l 903 1032 l 903 972 l 811 957 l 511 399 l 511 74 l 669 60 l 669 0 l 240 0 l 240 60 l 394 72 m 375 1153 l 604 1361 l 682 1290 q 563 1195 651 1249 q 413 1117 474 1142 l 375 1153 z "},"Ŷ":{"ha":889,"x_min":-12,"x_max":903,"o":"m 407 1365 l 511 1365 l 690 1165 l 640 1135 l 460 1282 l 275 1135 l 229 1164 l 407 1365 m 394 72 l 394 397 l 74 956 l -12 972 l -12 1032 l 319 1032 l 319 972 l 203 957 l 413 564 l 463 453 l 517 564 l 718 957 l 601 972 l 601 1032 l 903 1032 l 903 972 l 811 957 l 511 399 l 511 74 l 669 60 l 669 0 l 240 0 l 240 60 l 394 72 z "},"Ÿ":{"ha":889,"x_min":-12,"x_max":903,"o":"m 288 1158 q 237 1181 256 1158 q 218 1238 218 1204 q 239 1303 218 1276 q 299 1331 260 1331 l 300 1331 q 353 1306 333 1331 q 374 1249 374 1281 q 351 1184 374 1210 q 289 1158 329 1158 l 288 1158 m 618 1158 q 567 1181 586 1158 q 549 1238 549 1204 q 569 1303 549 1276 q 629 1331 590 1331 l 631 1331 q 683 1306 664 1331 q 703 1249 703 1282 q 681 1184 703 1210 q 618 1158 658 1158 m 394 72 l 394 397 l 74 956 l -12 972 l -12 1032 l 319 1032 l 319 972 l 203 957 l 413 564 l 463 453 l 517 564 l 718 957 l 601 972 l 601 1032 l 903 1032 l 903 972 l 811 957 l 511 399 l 511 74 l 669 60 l 669 0 l 240 0 l 240 60 l 394 72 z "},"Ỵ":{"ha":889,"x_min":-12,"x_max":903,"o":"m 394 72 l 394 397 l 74 956 l -12 972 l -12 1032 l 319 1032 l 319 972 l 203 957 l 413 564 l 463 453 l 517 564 l 718 957 l 601 972 l 601 1032 l 903 1032 l 903 972 l 811 957 l 511 399 l 511 74 l 669 60 l 669 0 l 240 0 l 240 60 l 394 72 m 436 -247 q 391 -227 408 -247 q 374 -176 374 -207 q 393 -117 374 -142 q 449 -93 413 -93 q 496 -115 478 -93 q 514 -164 514 -136 q 494 -224 514 -200 q 438 -247 475 -247 l 436 -247 z "},"Ỳ":{"ha":889,"x_min":-12,"x_max":903,"o":"m 394 72 l 394 397 l 74 956 l -12 972 l -12 1032 l 319 1032 l 319 972 l 203 957 l 413 564 l 463 453 l 517 564 l 718 957 l 601 972 l 601 1032 l 903 1032 l 903 972 l 811 957 l 511 399 l 511 74 l 669 60 l 669 0 l 240 0 l 240 60 l 394 72 m 469 1117 q 319 1195 408 1142 q 200 1290 231 1249 l 278 1361 l 507 1153 l 469 1117 z "},"Ỷ":{"ha":889,"x_min":-12,"x_max":903,"o":"m 394 72 l 394 397 l 74 956 l -12 972 l -12 1032 l 319 1032 l 319 972 l 203 957 l 413 564 l 463 453 l 517 564 l 718 957 l 601 972 l 601 1032 l 903 1032 l 903 972 l 811 957 l 511 399 l 511 74 l 669 60 l 669 0 l 240 0 l 240 60 l 394 72 m 394 1128 q 377 1156 385 1140 q 369 1182 369 1171 q 381 1212 369 1200 q 417 1239 392 1224 q 449 1261 438 1251 q 464 1286 460 1271 l 464 1293 q 444 1338 464 1319 q 385 1361 425 1356 l 372 1361 q 336 1357 344 1361 l 332 1431 q 356 1438 335 1435 q 394 1442 378 1442 q 513 1406 469 1442 q 556 1306 556 1369 q 538 1250 556 1271 q 483 1207 519 1229 q 449 1182 458 1190 q 435 1153 435 1171 q 438 1136 435 1147 l 394 1128 z "},"Ỹ":{"ha":889,"x_min":-12,"x_max":903,"o":"m 394 72 l 394 397 l 74 956 l -12 972 l -12 1032 l 319 1032 l 319 972 l 203 957 l 413 564 l 463 453 l 517 564 l 718 957 l 601 972 l 601 1032 l 903 1032 l 903 972 l 811 957 l 511 399 l 511 74 l 669 60 l 669 0 l 240 0 l 240 60 l 394 72 m 551 1157 q 485 1174 511 1157 q 426 1222 458 1190 q 380 1262 400 1249 q 333 1275 360 1275 q 268 1249 292 1275 q 228 1186 244 1222 l 169 1218 q 203 1283 178 1250 q 267 1337 228 1315 q 351 1358 306 1358 q 418 1341 392 1358 q 474 1292 444 1324 q 517 1253 499 1265 q 560 1240 535 1240 q 622 1265 601 1240 q 660 1329 642 1289 l 718 1297 q 658 1197 700 1238 q 551 1157 615 1157 z "},"Z":{"ha":907,"x_min":58,"x_max":847,"o":"m 613 872 l 692 972 l 250 958 l 182 778 l 118 785 l 147 1036 l 801 1036 l 832 985 l 288 174 l 197 65 l 711 89 l 781 308 l 847 293 l 814 0 l 92 0 l 58 54 l 613 872 z "},"Ź":{"ha":907,"x_min":58,"x_max":847,"o":"m 613 872 l 692 972 l 250 958 l 182 778 l 118 785 l 147 1036 l 801 1036 l 832 985 l 288 174 l 197 65 l 711 89 l 781 308 l 847 293 l 814 0 l 92 0 l 58 54 l 613 872 m 440 1153 l 669 1361 l 747 1290 q 628 1195 717 1249 q 478 1117 539 1142 l 440 1153 z "},"Ž":{"ha":908,"x_min":58,"x_max":847,"o":"m 310 1364 l 481 1225 l 654 1364 l 700 1335 l 533 1147 l 428 1147 l 260 1333 l 310 1364 m 613 872 l 692 972 l 250 958 l 182 778 l 118 785 l 147 1036 l 801 1036 l 832 985 l 288 174 l 197 65 l 711 89 l 781 308 l 847 293 l 814 0 l 92 0 l 58 54 l 613 872 z "},"Ż":{"ha":907,"x_min":58,"x_max":847,"o":"m 613 872 l 692 972 l 250 958 l 182 778 l 118 785 l 147 1036 l 801 1036 l 832 985 l 288 174 l 197 65 l 711 89 l 781 308 l 847 293 l 814 0 l 92 0 l 58 54 l 613 872 m 503 1161 q 451 1183 471 1161 q 432 1240 432 1206 q 453 1306 432 1279 q 514 1332 475 1332 q 567 1308 547 1332 q 588 1251 588 1283 q 565 1187 588 1213 q 503 1161 543 1161 z "},"a":{"ha":774,"x_min":71,"x_max":733,"o":"m 71 203 q 204 398 71 338 q 536 463 338 458 l 536 506 q 522 617 536 576 q 471 677 507 658 q 369 696 435 696 q 125 622 256 696 l 94 683 q 159 722 110 697 q 272 767 208 747 q 394 786 336 786 q 544 760 489 786 q 623 675 599 733 q 647 518 647 617 l 647 60 l 733 60 l 733 8 q 604 -12 657 -12 q 558 -2 571 -12 q 546 46 546 8 l 546 97 q 437 19 496 53 q 303 -15 378 -15 q 137 40 203 -15 q 71 203 71 96 m 344 67 q 438 92 383 67 q 536 151 492 117 l 536 397 q 281 347 368 396 q 194 217 194 299 q 235 102 194 138 q 344 67 275 67 z "},"á":{"ha":774,"x_min":71,"x_max":733,"o":"m 71 203 q 204 398 71 338 q 536 463 338 458 l 536 506 q 522 617 536 576 q 471 677 507 658 q 369 696 435 696 q 125 622 256 696 l 94 683 q 159 722 110 697 q 272 767 208 747 q 394 786 336 786 q 544 760 489 786 q 623 675 599 733 q 647 518 647 617 l 647 60 l 733 60 l 733 8 q 604 -12 657 -12 q 558 -2 571 -12 q 546 46 546 8 l 546 97 q 437 19 496 53 q 303 -15 378 -15 q 137 40 203 -15 q 71 203 71 96 m 344 67 q 438 92 383 67 q 536 151 492 117 l 536 397 q 281 347 368 396 q 194 217 194 299 q 235 102 194 138 q 344 67 275 67 m 332 953 l 549 1219 l 636 1144 q 513 1020 610 1104 q 371 915 415 936 l 332 953 z "},"ă":{"ha":774,"x_min":71,"x_max":733,"o":"m 375 925 q 255 957 306 925 q 177 1041 204 989 q 150 1154 150 1093 q 153 1186 150 1175 l 215 1186 q 217 1163 215 1172 q 260 1065 222 1108 q 375 1021 299 1021 q 488 1065 451 1021 q 529 1163 525 1108 q 531 1186 532 1181 l 592 1186 q 594 1156 594 1164 q 567 1042 594 1096 q 490 957 540 989 q 375 925 440 925 m 71 203 q 204 398 71 338 q 536 463 338 458 l 536 506 q 522 617 536 576 q 471 677 507 658 q 369 696 435 696 q 125 622 256 696 l 94 683 q 159 722 110 697 q 272 767 208 747 q 394 786 336 786 q 544 760 489 786 q 623 675 599 733 q 647 518 647 617 l 647 60 l 733 60 l 733 8 q 604 -12 657 -12 q 558 -2 571 -12 q 546 46 546 8 l 546 97 q 437 19 496 53 q 303 -15 378 -15 q 137 40 203 -15 q 71 203 71 96 m 344 67 q 438 92 383 67 q 536 151 492 117 l 536 397 q 281 347 368 396 q 194 217 194 299 q 235 102 194 138 q 344 67 275 67 z "},"ắ":{"ha":774,"x_min":71,"x_max":733,"o":"m 364 1204 l 561 1446 l 642 1378 q 528 1265 617 1342 q 400 1169 439 1188 l 364 1204 m 404 910 q 295 939 342 910 q 224 1015 249 968 q 200 1118 200 1063 q 203 1147 200 1138 l 260 1147 q 261 1126 260 1135 q 300 1038 265 1078 q 404 997 335 997 q 507 1037 474 997 q 544 1126 540 1076 q 546 1147 547 1143 l 601 1147 q 604 1119 604 1128 q 579 1017 604 1065 q 508 939 554 968 q 404 910 463 910 m 71 203 q 204 398 71 338 q 536 463 338 458 l 536 506 q 522 617 536 576 q 471 677 507 658 q 369 696 435 696 q 125 622 256 696 l 94 683 q 159 722 110 697 q 272 767 208 747 q 394 786 336 786 q 544 760 489 786 q 623 675 599 733 q 647 518 647 617 l 647 60 l 733 60 l 733 8 q 604 -12 657 -12 q 558 -2 571 -12 q 546 46 546 8 l 546 97 q 437 19 496 53 q 303 -15 378 -15 q 137 40 203 -15 q 71 203 71 96 m 344 67 q 438 92 383 67 q 536 151 492 117 l 536 397 q 281 347 368 396 q 194 217 194 299 q 235 102 194 138 q 344 67 275 67 z "},"ặ":{"ha":774,"x_min":71,"x_max":733,"o":"m 71 203 q 204 398 71 338 q 536 463 338 458 l 536 506 q 522 617 536 576 q 471 677 507 658 q 369 696 435 696 q 125 622 256 696 l 94 683 q 159 722 110 697 q 272 767 208 747 q 394 786 336 786 q 544 760 489 786 q 623 675 599 733 q 647 518 647 617 l 647 60 l 733 60 l 733 8 q 604 -12 657 -12 q 558 -2 571 -12 q 546 46 546 8 l 546 97 q 437 19 496 53 q 303 -15 378 -15 q 137 40 203 -15 q 71 203 71 96 m 344 67 q 438 92 383 67 q 536 151 492 117 l 536 397 q 281 347 368 396 q 194 217 194 299 q 235 102 194 138 q 344 67 275 67 m 379 -247 q 334 -227 351 -247 q 317 -176 317 -207 q 336 -117 317 -142 q 392 -93 356 -93 q 439 -115 421 -93 q 457 -164 457 -136 q 438 -224 457 -200 q 381 -247 418 -247 l 379 -247 m 390 933 q 270 965 321 933 q 192 1049 219 997 q 165 1163 165 1101 q 168 1194 165 1183 l 231 1194 q 232 1171 231 1181 q 276 1073 238 1117 q 390 1029 314 1029 q 503 1073 467 1029 q 544 1171 540 1117 q 546 1194 547 1189 l 607 1194 q 610 1164 610 1172 q 583 1051 610 1104 q 506 965 556 997 q 390 933 456 933 z "},"ằ":{"ha":774,"x_min":71,"x_max":733,"o":"m 414 1168 q 290 1262 381 1183 q 175 1376 199 1340 l 256 1444 l 453 1203 l 415 1168 l 414 1168 m 404 910 q 295 939 342 910 q 224 1015 249 968 q 200 1118 200 1063 q 203 1147 200 1138 l 260 1147 q 261 1126 260 1135 q 300 1038 265 1078 q 404 997 335 997 q 507 1037 474 997 q 544 1126 540 1076 q 546 1147 547 1143 l 601 1147 q 604 1119 604 1128 q 579 1017 604 1065 q 508 939 554 968 q 404 910 463 910 m 71 203 q 204 398 71 338 q 536 463 338 458 l 536 506 q 522 617 536 576 q 471 677 507 658 q 369 696 435 696 q 125 622 256 696 l 94 683 q 159 722 110 697 q 272 767 208 747 q 394 786 336 786 q 544 760 489 786 q 623 675 599 733 q 647 518 647 617 l 647 60 l 733 60 l 733 8 q 604 -12 657 -12 q 558 -2 571 -12 q 546 46 546 8 l 546 97 q 437 19 496 53 q 303 -15 378 -15 q 137 40 203 -15 q 71 203 71 96 m 344 67 q 438 92 383 67 q 536 151 492 117 l 536 397 q 281 347 368 396 q 194 217 194 299 q 235 102 194 138 q 344 67 275 67 z "},"ẳ":{"ha":774,"x_min":71,"x_max":733,"o":"m 386 1175 q 371 1200 378 1186 q 364 1225 364 1214 q 375 1253 364 1242 q 407 1275 386 1264 q 422 1285 410 1276 q 440 1301 433 1293 q 450 1319 447 1310 l 450 1325 q 432 1365 450 1349 q 378 1388 414 1382 l 367 1388 q 333 1383 342 1388 l 329 1450 q 351 1458 332 1454 q 386 1461 371 1461 q 494 1428 454 1461 q 533 1338 533 1396 q 517 1287 533 1306 q 468 1249 500 1268 q 454 1239 463 1244 q 436 1225 446 1233 q 424 1199 424 1213 q 426 1183 424 1194 l 386 1175 m 404 910 q 295 939 342 910 q 224 1015 249 968 q 200 1118 200 1063 q 203 1147 200 1138 l 260 1147 q 261 1126 260 1135 q 300 1038 265 1078 q 404 997 335 997 q 507 1037 474 997 q 544 1126 540 1076 q 546 1147 547 1143 l 601 1147 q 604 1119 604 1128 q 579 1017 604 1065 q 508 939 554 968 q 404 910 463 910 m 71 203 q 204 398 71 338 q 536 463 338 458 l 536 506 q 522 617 536 576 q 471 677 507 658 q 369 696 435 696 q 125 622 256 696 l 94 683 q 159 722 110 697 q 272 767 208 747 q 394 786 336 786 q 544 760 489 786 q 623 675 599 733 q 647 518 647 617 l 647 60 l 733 60 l 733 8 q 604 -12 657 -12 q 558 -2 571 -12 q 546 46 546 8 l 546 97 q 437 19 496 53 q 303 -15 378 -15 q 137 40 203 -15 q 71 203 71 96 m 344 67 q 438 92 383 67 q 536 151 492 117 l 536 397 q 281 347 368 396 q 194 217 194 299 q 235 102 194 138 q 344 67 275 67 z "},"ẵ":{"ha":774,"x_min":71,"x_max":733,"o":"m 168 1244 q 225 1332 179 1292 q 332 1372 271 1372 q 392 1356 368 1372 q 443 1313 417 1340 q 483 1277 465 1289 q 522 1265 500 1265 q 580 1290 560 1265 q 613 1346 600 1314 l 664 1317 q 609 1226 647 1263 q 513 1189 571 1189 q 456 1203 478 1189 q 401 1247 433 1218 q 358 1284 376 1272 q 317 1296 340 1296 q 270 1283 289 1296 q 243 1257 251 1269 q 219 1215 235 1244 l 168 1244 m 404 910 q 295 939 342 910 q 224 1015 249 968 q 200 1118 200 1063 q 203 1147 200 1138 l 260 1147 q 261 1126 260 1135 q 300 1038 265 1078 q 404 997 335 997 q 507 1037 474 997 q 544 1126 540 1076 q 546 1147 547 1143 l 601 1147 q 604 1119 604 1128 q 579 1017 604 1065 q 508 939 554 968 q 404 910 463 910 m 71 203 q 204 398 71 338 q 536 463 338 458 l 536 506 q 522 617 536 576 q 471 677 507 658 q 369 696 435 696 q 125 622 256 696 l 94 683 q 159 722 110 697 q 272 767 208 747 q 394 786 336 786 q 544 760 489 786 q 623 675 599 733 q 647 518 647 617 l 647 60 l 733 60 l 733 8 q 604 -12 657 -12 q 558 -2 571 -12 q 546 46 546 8 l 546 97 q 437 19 496 53 q 303 -15 378 -15 q 137 40 203 -15 q 71 203 71 96 m 344 67 q 438 92 383 67 q 536 151 492 117 l 536 397 q 281 347 368 396 q 194 217 194 299 q 235 102 194 138 q 344 67 275 67 z "},"â":{"ha":774,"x_min":71,"x_max":733,"o":"m 321 1204 l 425 1204 l 613 933 l 564 904 l 372 1114 l 172 904 l 128 932 l 321 1204 m 71 203 q 204 398 71 338 q 536 463 338 458 l 536 506 q 522 617 536 576 q 471 677 507 658 q 369 696 435 696 q 125 622 256 696 l 94 683 q 159 722 110 697 q 272 767 208 747 q 394 786 336 786 q 544 760 489 786 q 623 675 599 733 q 647 518 647 617 l 647 60 l 733 60 l 733 8 q 604 -12 657 -12 q 558 -2 571 -12 q 546 46 546 8 l 546 97 q 437 19 496 53 q 303 -15 378 -15 q 137 40 203 -15 q 71 203 71 96 m 344 67 q 438 92 383 67 q 536 151 492 117 l 536 397 q 281 347 368 396 q 194 217 194 299 q 235 102 194 138 q 344 67 275 67 z "},"ấ":{"ha":774,"x_min":71,"x_max":857,"o":"m 579 1079 l 776 1321 l 857 1253 q 743 1140 832 1217 q 615 1044 654 1063 l 579 1079 m 356 1164 l 450 1164 l 621 918 l 576 892 l 403 1082 l 221 892 l 181 917 l 356 1164 m 71 203 q 204 398 71 338 q 536 463 338 458 l 536 506 q 522 617 536 576 q 471 677 507 658 q 369 696 435 696 q 125 622 256 696 l 94 683 q 159 722 110 697 q 272 767 208 747 q 394 786 336 786 q 544 760 489 786 q 623 675 599 733 q 647 518 647 617 l 647 60 l 733 60 l 733 8 q 604 -12 657 -12 q 558 -2 571 -12 q 546 46 546 8 l 546 97 q 437 19 496 53 q 303 -15 378 -15 q 137 40 203 -15 q 71 203 71 96 m 344 67 q 438 92 383 67 q 536 151 492 117 l 536 397 q 281 347 368 396 q 194 217 194 299 q 235 102 194 138 q 344 67 275 67 z "},"ậ":{"ha":774,"x_min":71,"x_max":733,"o":"m 71 203 q 204 398 71 338 q 536 463 338 458 l 536 506 q 522 617 536 576 q 471 677 507 658 q 369 696 435 696 q 125 622 256 696 l 94 683 q 159 722 110 697 q 272 767 208 747 q 394 786 336 786 q 544 760 489 786 q 623 675 599 733 q 647 518 647 617 l 647 60 l 733 60 l 733 8 q 604 -12 657 -12 q 558 -2 571 -12 q 546 46 546 8 l 546 97 q 437 19 496 53 q 303 -15 378 -15 q 137 40 203 -15 q 71 203 71 96 m 344 67 q 438 92 383 67 q 536 151 492 117 l 536 397 q 281 347 368 396 q 194 217 194 299 q 235 102 194 138 q 344 67 275 67 m 379 -247 q 334 -227 351 -247 q 317 -176 317 -207 q 336 -117 317 -142 q 392 -93 356 -93 q 439 -115 421 -93 q 457 -164 457 -136 q 438 -224 457 -200 q 381 -247 418 -247 l 379 -247 m 338 1207 l 442 1207 l 629 936 l 581 907 l 389 1117 l 189 907 l 144 935 l 338 1207 z "},"ầ":{"ha":774,"x_min":71,"x_max":733,"o":"m 585 1156 q 460 1249 551 1171 q 346 1364 369 1328 l 426 1432 l 624 1190 l 586 1156 l 585 1156 m 356 1164 l 450 1164 l 621 918 l 576 892 l 403 1082 l 221 892 l 181 917 l 356 1164 m 71 203 q 204 398 71 338 q 536 463 338 458 l 536 506 q 522 617 536 576 q 471 677 507 658 q 369 696 435 696 q 125 622 256 696 l 94 683 q 159 722 110 697 q 272 767 208 747 q 394 786 336 786 q 544 760 489 786 q 623 675 599 733 q 647 518 647 617 l 647 60 l 733 60 l 733 8 q 604 -12 657 -12 q 558 -2 571 -12 q 546 46 546 8 l 546 97 q 437 19 496 53 q 303 -15 378 -15 q 137 40 203 -15 q 71 203 71 96 m 344 67 q 438 92 383 67 q 536 151 492 117 l 536 397 q 281 347 368 396 q 194 217 194 299 q 235 102 194 138 q 344 67 275 67 z "},"ẩ":{"ha":774,"x_min":71,"x_max":761,"o":"m 614 1097 q 599 1122 606 1108 q 592 1147 592 1136 q 603 1175 592 1164 q 635 1197 614 1186 q 649 1207 638 1199 q 668 1224 661 1215 q 678 1242 675 1232 l 678 1247 q 660 1288 678 1271 q 606 1310 642 1304 l 594 1310 q 561 1306 569 1310 l 557 1372 q 579 1380 560 1376 q 614 1383 599 1383 q 722 1351 682 1383 q 761 1260 761 1318 q 744 1209 761 1228 q 696 1171 728 1190 q 682 1161 690 1167 q 664 1147 674 1156 q 651 1121 651 1135 q 654 1106 651 1117 l 614 1097 m 356 1164 l 450 1164 l 621 918 l 576 892 l 403 1082 l 221 892 l 181 917 l 356 1164 m 71 203 q 204 398 71 338 q 536 463 338 458 l 536 506 q 522 617 536 576 q 471 677 507 658 q 369 696 435 696 q 125 622 256 696 l 94 683 q 159 722 110 697 q 272 767 208 747 q 394 786 336 786 q 544 760 489 786 q 623 675 599 733 q 647 518 647 617 l 647 60 l 733 60 l 733 8 q 604 -12 657 -12 q 558 -2 571 -12 q 546 46 546 8 l 546 97 q 437 19 496 53 q 303 -15 378 -15 q 137 40 203 -15 q 71 203 71 96 m 344 67 q 438 92 383 67 q 536 151 492 117 l 536 397 q 281 347 368 396 q 194 217 194 299 q 235 102 194 138 q 344 67 275 67 z "},"ẫ":{"ha":774,"x_min":71,"x_max":733,"o":"m 185 1238 q 242 1325 196 1285 q 349 1365 288 1365 q 409 1349 385 1365 q 460 1306 433 1333 q 499 1270 482 1282 q 539 1258 517 1258 q 597 1283 576 1258 q 629 1339 617 1307 l 681 1310 q 626 1219 664 1256 q 529 1182 588 1182 q 472 1197 494 1182 q 418 1240 450 1211 q 375 1277 393 1265 q 333 1289 357 1289 q 287 1276 306 1289 q 260 1250 268 1263 q 236 1208 251 1238 l 185 1238 m 356 1164 l 450 1164 l 621 918 l 576 892 l 403 1082 l 221 892 l 181 917 l 356 1164 m 71 203 q 204 398 71 338 q 536 463 338 458 l 536 506 q 522 617 536 576 q 471 677 507 658 q 369 696 435 696 q 125 622 256 696 l 94 683 q 159 722 110 697 q 272 767 208 747 q 394 786 336 786 q 544 760 489 786 q 623 675 599 733 q 647 518 647 617 l 647 60 l 733 60 l 733 8 q 604 -12 657 -12 q 558 -2 571 -12 q 546 46 546 8 l 546 97 q 437 19 496 53 q 303 -15 378 -15 q 137 40 203 -15 q 71 203 71 96 m 344 67 q 438 92 383 67 q 536 151 492 117 l 536 397 q 281 347 368 396 q 194 217 194 299 q 235 102 194 138 q 344 67 275 67 z "},"ä":{"ha":774,"x_min":71,"x_max":733,"o":"m 71 203 q 204 398 71 338 q 536 463 338 458 l 536 506 q 522 617 536 576 q 471 677 507 658 q 369 696 435 696 q 125 622 256 696 l 94 683 q 159 722 110 697 q 272 767 208 747 q 394 786 336 786 q 544 760 489 786 q 623 675 599 733 q 647 518 647 617 l 647 60 l 733 60 l 733 8 q 604 -12 657 -12 q 558 -2 571 -12 q 546 46 546 8 l 546 97 q 437 19 496 53 q 303 -15 378 -15 q 137 40 203 -15 q 71 203 71 96 m 344 67 q 438 92 383 67 q 536 151 492 117 l 536 397 q 281 347 368 396 q 194 217 194 299 q 235 102 194 138 q 344 67 275 67 m 242 931 q 190 953 210 931 q 171 1010 171 975 q 192 1074 171 1047 q 253 1101 214 1101 q 306 1077 286 1101 q 326 1021 326 1053 q 304 956 326 982 q 242 931 282 931 m 544 931 q 494 953 514 931 q 475 1010 475 976 q 497 1074 475 1047 q 557 1101 518 1101 q 610 1077 590 1101 q 631 1021 631 1053 q 608 956 631 982 q 544 931 586 931 z "},"ạ":{"ha":774,"x_min":71,"x_max":733,"o":"m 71 203 q 204 398 71 338 q 536 463 338 458 l 536 506 q 522 617 536 576 q 471 677 507 658 q 369 696 435 696 q 125 622 256 696 l 94 683 q 159 722 110 697 q 272 767 208 747 q 394 786 336 786 q 544 760 489 786 q 623 675 599 733 q 647 518 647 617 l 647 60 l 733 60 l 733 8 q 604 -12 657 -12 q 558 -2 571 -12 q 546 46 546 8 l 546 97 q 437 19 496 53 q 303 -15 378 -15 q 137 40 203 -15 q 71 203 71 96 m 344 67 q 438 92 383 67 q 536 151 492 117 l 536 397 q 281 347 368 396 q 194 217 194 299 q 235 102 194 138 q 344 67 275 67 m 379 -247 q 334 -227 351 -247 q 317 -176 317 -207 q 336 -117 317 -142 q 392 -93 356 -93 q 439 -115 421 -93 q 457 -164 457 -136 q 438 -224 457 -200 q 381 -247 418 -247 l 379 -247 z "},"à":{"ha":774,"x_min":71,"x_max":733,"o":"m 406 915 q 269 1017 368 931 q 143 1144 169 1104 l 231 1219 l 447 953 l 407 915 l 406 915 m 71 203 q 204 398 71 338 q 536 463 338 458 l 536 506 q 522 617 536 576 q 471 677 507 658 q 369 696 435 696 q 125 622 256 696 l 94 683 q 159 722 110 697 q 272 767 208 747 q 394 786 336 786 q 544 760 489 786 q 623 675 599 733 q 647 518 647 617 l 647 60 l 733 60 l 733 8 q 604 -12 657 -12 q 558 -2 571 -12 q 546 46 546 8 l 546 97 q 437 19 496 53 q 303 -15 378 -15 q 137 40 203 -15 q 71 203 71 96 m 344 67 q 438 92 383 67 q 536 151 492 117 l 536 397 q 281 347 368 396 q 194 217 194 299 q 235 102 194 138 q 344 67 275 67 z "},"ả":{"ha":774,"x_min":71,"x_max":733,"o":"m 71 203 q 204 398 71 338 q 536 463 338 458 l 536 506 q 522 617 536 576 q 471 677 507 658 q 369 696 435 696 q 125 622 256 696 l 94 683 q 159 722 110 697 q 272 767 208 747 q 394 786 336 786 q 544 760 489 786 q 623 675 599 733 q 647 518 647 617 l 647 60 l 733 60 l 733 8 q 604 -12 657 -12 q 558 -2 571 -12 q 546 46 546 8 l 546 97 q 437 19 496 53 q 303 -15 378 -15 q 137 40 203 -15 q 71 203 71 96 m 344 67 q 438 92 383 67 q 536 151 492 117 l 536 397 q 281 347 368 396 q 194 217 194 299 q 235 102 194 138 q 344 67 275 67 m 351 867 q 334 894 342 879 q 326 921 326 910 q 338 951 326 939 q 374 978 349 963 q 406 1000 394 990 q 421 1025 417 1010 l 421 1032 q 401 1076 421 1058 q 342 1100 382 1094 l 329 1100 q 293 1096 301 1100 l 289 1169 q 313 1177 292 1174 q 351 1181 335 1181 q 469 1144 426 1181 q 513 1044 513 1108 q 494 989 513 1010 q 440 946 476 968 q 406 921 415 929 q 392 892 392 910 q 394 875 392 886 l 351 867 z "},"ā":{"ha":774,"x_min":71,"x_max":733,"o":"m 554 1056 l 554 971 l 192 971 l 192 1056 l 554 1056 m 71 203 q 204 398 71 338 q 536 463 338 458 l 536 506 q 522 617 536 576 q 471 677 507 658 q 369 696 435 696 q 125 622 256 696 l 94 683 q 159 722 110 697 q 272 767 208 747 q 394 786 336 786 q 544 760 489 786 q 623 675 599 733 q 647 518 647 617 l 647 60 l 733 60 l 733 8 q 604 -12 657 -12 q 558 -2 571 -12 q 546 46 546 8 l 546 97 q 437 19 496 53 q 303 -15 378 -15 q 137 40 203 -15 q 71 203 71 96 m 344 67 q 438 92 383 67 q 536 151 492 117 l 536 397 q 281 347 368 396 q 194 217 194 299 q 235 102 194 138 q 344 67 275 67 z "},"ą":{"ha":774,"x_min":71,"x_max":776,"o":"m 776 -264 q 687 -316 735 -294 q 565 -337 639 -337 q 453 -306 496 -337 q 410 -208 410 -275 q 458 -104 410 -160 q 575 -10 507 -49 q 553 6 560 -7 q 546 46 546 18 l 546 97 q 437 19 496 53 q 303 -15 378 -15 q 137 40 203 -15 q 71 203 71 96 q 204 398 71 338 q 536 463 338 458 l 536 506 q 522 617 536 576 q 471 677 507 658 q 369 696 435 696 q 125 622 256 696 l 94 683 q 159 722 110 697 q 272 767 208 747 q 394 786 336 786 q 544 760 489 786 q 623 675 599 733 q 647 518 647 617 l 647 60 l 733 60 l 733 8 q 678 -4 719 4 q 565 -86 615 -35 q 514 -176 514 -137 q 539 -245 514 -225 q 615 -265 564 -265 q 690 -250 656 -265 q 764 -211 724 -235 l 776 -264 m 536 397 q 281 347 368 396 q 194 217 194 299 q 235 102 194 138 q 344 67 275 67 q 438 92 383 67 q 536 151 492 117 l 536 397 z "},"å":{"ha":774,"x_min":71,"x_max":733,"o":"m 71 203 q 204 398 71 338 q 536 463 338 458 l 536 506 q 522 617 536 576 q 471 677 507 658 q 369 696 435 696 q 125 622 256 696 l 94 683 q 159 722 110 697 q 272 767 208 747 q 394 786 336 786 q 544 760 489 786 q 623 675 599 733 q 647 518 647 617 l 647 60 l 733 60 l 733 8 q 604 -12 657 -12 q 558 -2 571 -12 q 546 46 546 8 l 546 97 q 437 19 496 53 q 303 -15 378 -15 q 137 40 203 -15 q 71 203 71 96 m 344 67 q 438 92 383 67 q 536 151 492 117 l 536 397 q 281 347 368 396 q 194 217 194 299 q 235 102 194 138 q 344 67 275 67 m 400 894 q 239 947 294 894 q 183 1082 183 999 q 216 1179 183 1138 q 301 1242 249 1221 q 410 1264 353 1264 q 564 1213 508 1264 q 619 1081 619 1161 q 555 944 618 993 q 400 894 492 894 m 403 949 q 501 981 468 949 q 535 1075 535 1014 q 502 1171 535 1133 q 404 1208 469 1208 q 305 1175 342 1208 q 268 1085 268 1142 q 302 988 268 1026 q 403 949 336 949 z "},"ã":{"ha":774,"x_min":71,"x_max":733,"o":"m 101 978 q 164 1074 114 1029 q 282 1118 214 1118 q 349 1101 322 1118 q 404 1051 375 1083 q 447 1013 429 1025 q 490 1000 465 1000 q 554 1026 532 1000 q 590 1089 576 1053 l 647 1057 q 587 956 629 996 q 481 917 544 917 q 416 933 442 917 q 358 981 390 950 q 310 1022 331 1008 q 264 1035 290 1035 q 200 1010 222 1035 q 158 946 178 985 l 101 978 m 71 203 q 204 398 71 338 q 536 463 338 458 l 536 506 q 522 617 536 576 q 471 677 507 658 q 369 696 435 696 q 125 622 256 696 l 94 683 q 159 722 110 697 q 272 767 208 747 q 394 786 336 786 q 544 760 489 786 q 623 675 599 733 q 647 518 647 617 l 647 60 l 733 60 l 733 8 q 604 -12 657 -12 q 558 -2 571 -12 q 546 46 546 8 l 546 97 q 437 19 496 53 q 303 -15 378 -15 q 137 40 203 -15 q 71 203 71 96 m 344 67 q 438 92 383 67 q 536 151 492 117 l 536 397 q 281 347 368 396 q 194 217 194 299 q 235 102 194 138 q 344 67 275 67 z "},"æ":{"ha":1207,"x_min":65,"x_max":1146,"o":"m 299 -15 q 132 40 199 -15 q 65 203 65 96 q 199 397 65 336 q 524 463 332 458 q 513 615 524 567 q 468 681 501 663 q 364 700 435 700 q 231 677 294 700 q 106 621 167 654 l 76 679 q 147 723 94 697 q 266 767 200 749 q 390 786 332 786 q 541 760 486 786 q 619 674 596 733 q 735 761 668 731 q 879 792 801 792 q 1072 721 1003 792 q 1146 517 1140 650 q 1138 394 1146 431 l 643 394 q 709 156 643 249 q 894 64 775 64 q 1014 85 953 64 q 1107 135 1075 106 l 1129 83 q 1013 13 1089 42 q 860 -15 938 -15 q 694 24 764 -15 q 582 138 624 64 q 467 31 539 78 q 299 -15 396 -15 m 1021 460 q 1024 521 1024 499 q 982 667 1024 613 q 851 721 940 721 q 644 460 661 721 l 1021 460 m 339 67 q 467 106 407 67 q 556 193 528 144 q 524 403 524 279 q 276 350 363 401 q 189 217 189 299 q 230 102 189 138 q 339 67 271 67 z "},"ǽ":{"ha":1207,"x_min":65,"x_max":1146,"o":"m 299 -15 q 132 40 199 -15 q 65 203 65 96 q 199 397 65 336 q 524 463 332 458 q 513 615 524 567 q 468 681 501 663 q 364 700 435 700 q 231 677 294 700 q 106 621 167 654 l 76 679 q 147 723 94 697 q 266 767 200 749 q 390 786 332 786 q 541 760 486 786 q 619 674 596 733 q 735 761 668 731 q 879 792 801 792 q 1072 721 1003 792 q 1146 517 1140 650 q 1138 394 1146 431 l 643 394 q 709 156 643 249 q 894 64 775 64 q 1014 85 953 64 q 1107 135 1075 106 l 1129 83 q 1013 13 1089 42 q 860 -15 938 -15 q 694 24 764 -15 q 582 138 624 64 q 467 31 539 78 q 299 -15 396 -15 m 1021 460 q 1024 521 1024 499 q 982 667 1024 613 q 851 721 940 721 q 644 460 661 721 l 1021 460 m 339 67 q 467 106 407 67 q 556 193 528 144 q 524 403 524 279 q 276 350 363 401 q 189 217 189 299 q 230 102 189 138 q 339 67 271 67 m 563 953 l 779 1219 l 867 1144 q 743 1020 840 1104 q 601 915 646 936 l 563 953 z "},"b":{"ha":833,"x_min":-4,"x_max":769,"o":"m -4 1114 l 199 1138 l 201 1138 l 228 1118 l 228 696 q 331 764 271 736 q 465 792 392 792 q 616 751 547 792 q 727 626 685 711 q 769 414 769 542 q 721 197 769 294 q 582 42 672 99 q 374 -15 492 -15 q 210 3 288 -15 q 115 38 132 21 l 115 1050 l -4 1063 l -4 1114 m 419 707 q 310 679 361 707 q 228 618 258 651 l 228 104 q 283 69 238 82 q 383 56 328 56 q 575 144 503 56 q 647 403 647 232 q 583 631 647 556 q 419 707 518 707 z "},"ḃ":{"ha":833,"x_min":-4,"x_max":769,"o":"m 374 -15 q 210 3 288 -15 q 115 38 132 21 l 115 1050 l -4 1063 l -4 1114 l 199 1138 l 201 1138 l 228 1118 l 228 696 q 331 764 271 736 q 465 792 392 792 q 616 751 547 792 q 727 626 685 711 q 769 414 769 542 q 721 197 769 294 q 582 42 672 99 q 374 -15 492 -15 m 500 931 q 449 953 468 931 q 431 1010 431 976 q 452 1074 431 1047 q 513 1101 474 1101 q 565 1078 546 1101 q 585 1022 585 1054 q 563 956 585 982 q 501 931 542 931 l 500 931 m 383 56 q 575 144 503 56 q 647 403 647 232 q 583 631 647 556 q 419 707 518 707 q 310 679 361 707 q 228 618 258 651 l 228 104 q 283 69 238 82 q 383 56 328 56 z "},"c":{"ha":707,"x_min":47,"x_max":643,"o":"m 47 381 q 91 587 47 493 q 222 736 135 681 q 433 792 308 792 q 539 778 488 792 q 628 750 590 765 l 622 551 l 553 551 l 524 685 q 404 726 515 726 q 231 643 296 726 q 167 415 167 560 q 236 154 167 243 q 417 65 306 65 q 530 85 475 65 q 621 129 585 104 l 643 83 q 532 14 603 43 q 392 -15 461 -15 q 204 37 282 -15 q 87 178 126 89 q 47 381 47 268 z "},"ć":{"ha":707,"x_min":47,"x_max":643,"o":"m 47 381 q 91 587 47 493 q 222 736 135 681 q 433 792 308 792 q 539 778 488 792 q 628 750 590 765 l 622 551 l 553 551 l 524 685 q 404 726 515 726 q 231 643 296 726 q 167 415 167 560 q 236 154 167 243 q 417 65 306 65 q 530 85 475 65 q 621 129 585 104 l 643 83 q 532 14 603 43 q 392 -15 461 -15 q 204 37 282 -15 q 87 178 126 89 q 47 381 47 268 m 326 953 l 543 1219 l 631 1144 q 507 1020 604 1104 q 365 915 410 936 l 326 953 z "},"č":{"ha":707,"x_min":47,"x_max":643,"o":"m 208 1218 l 401 1008 l 599 1218 l 642 1190 l 454 919 l 349 919 l 160 1189 l 208 1218 m 47 381 q 91 587 47 493 q 222 736 135 681 q 433 792 308 792 q 539 778 488 792 q 628 750 590 765 l 622 551 l 553 551 l 524 685 q 404 726 515 726 q 231 643 296 726 q 167 415 167 560 q 236 154 167 243 q 417 65 306 65 q 530 85 475 65 q 621 129 585 104 l 643 83 q 532 14 603 43 q 392 -15 461 -15 q 204 37 282 -15 q 87 178 126 89 q 47 381 47 268 z "},"ç":{"ha":707,"x_min":47,"x_max":643,"o":"m 643 83 q 542 18 606 46 q 414 -14 478 -10 q 465 -93 442 -46 q 488 -189 488 -140 q 444 -294 488 -262 q 318 -326 401 -326 q 267 -321 294 -326 q 219 -308 239 -315 l 221 -226 q 253 -234 235 -231 q 285 -237 272 -237 q 365 -218 340 -237 q 390 -139 390 -199 q 351 -14 390 -81 q 126 110 206 0 q 47 381 47 219 q 91 587 47 493 q 222 736 135 681 q 433 792 308 792 q 539 778 488 792 q 628 750 590 765 l 622 551 l 553 551 l 524 685 q 404 726 515 726 q 231 643 296 726 q 167 415 167 560 q 236 154 167 243 q 417 65 306 65 q 530 85 475 65 q 621 129 585 104 l 643 83 z "},"ĉ":{"ha":707,"x_min":47,"x_max":643,"o":"m 347 1204 l 451 1204 l 639 933 l 590 904 l 399 1114 l 199 904 l 154 932 l 347 1204 m 47 381 q 91 587 47 493 q 222 736 135 681 q 433 792 308 792 q 539 778 488 792 q 628 750 590 765 l 622 551 l 553 551 l 524 685 q 404 726 515 726 q 231 643 296 726 q 167 415 167 560 q 236 154 167 243 q 417 65 306 65 q 530 85 475 65 q 621 129 585 104 l 643 83 q 532 14 603 43 q 392 -15 461 -15 q 204 37 282 -15 q 87 178 126 89 q 47 381 47 268 z "},"ċ":{"ha":707,"x_min":47,"x_max":643,"o":"m 376 931 q 326 953 344 931 q 307 1010 307 976 q 328 1074 307 1047 q 389 1101 350 1101 q 442 1078 422 1101 q 461 1022 461 1054 q 440 956 461 982 q 378 931 418 931 l 376 931 m 47 381 q 91 587 47 493 q 222 736 135 681 q 433 792 308 792 q 539 778 488 792 q 628 750 590 765 l 622 551 l 553 551 l 524 685 q 404 726 515 726 q 231 643 296 726 q 167 415 167 560 q 236 154 167 243 q 417 65 306 65 q 530 85 475 65 q 621 129 585 104 l 643 83 q 532 14 603 43 q 392 -15 461 -15 q 204 37 282 -15 q 87 178 126 89 q 47 381 47 268 z "},"d":{"ha":858,"x_min":64,"x_max":804,"o":"m 368 -15 q 217 27 286 -15 q 106 156 147 69 q 64 367 64 242 q 113 583 64 486 q 251 735 161 679 q 460 792 340 792 q 607 775 536 792 l 607 1050 l 463 1064 l 463 1114 l 690 1138 l 693 1138 l 719 1118 l 719 63 l 804 63 l 804 8 q 757 -3 797 7 q 671 -12 717 -12 q 626 -1 639 -12 q 613 47 613 10 l 613 96 q 508 17 569 49 q 368 -15 446 -15 m 414 72 q 527 101 474 72 q 607 164 581 129 l 607 675 q 549 708 596 694 q 450 722 503 722 q 258 637 331 722 q 186 378 186 551 q 250 147 186 222 q 414 72 314 72 z "},"ð":{"ha":794,"x_min":58,"x_max":738,"o":"m 401 -15 q 144 87 229 -15 q 58 360 58 189 q 108 595 58 497 q 238 742 157 693 q 414 792 318 792 q 556 761 494 792 q 459 919 521 843 q 317 1047 397 996 l 217 928 l 161 968 l 264 1085 q 185 1129 229 1108 q 111 1158 142 1150 l 135 1215 q 226 1181 188 1199 q 313 1139 265 1164 l 403 1246 l 454 1203 l 369 1104 q 640 823 543 988 q 738 449 738 658 q 703 221 738 326 q 592 50 668 115 q 401 -15 517 -15 m 404 51 q 563 152 511 51 q 614 440 614 253 q 583 657 614 561 q 520 708 565 685 q 411 731 475 731 q 291 687 343 731 q 210 561 239 643 q 182 368 182 479 q 235 140 182 229 q 404 51 289 51 z "},"ď":{"ha":917,"x_min":64,"x_max":940,"o":"m 368 -15 q 217 27 286 -15 q 106 156 147 69 q 64 367 64 242 q 113 583 64 486 q 251 735 161 679 q 460 792 340 792 q 607 775 536 792 l 607 1050 l 463 1064 l 463 1114 l 690 1138 l 693 1138 l 719 1118 l 719 63 l 804 63 l 804 8 q 757 -3 797 7 q 671 -12 717 -12 q 626 -1 639 -12 q 613 47 613 10 l 613 96 q 508 17 569 49 q 368 -15 446 -15 m 414 72 q 527 101 474 72 q 607 164 581 129 l 607 675 q 549 708 596 694 q 450 722 503 722 q 258 637 331 722 q 186 378 186 551 q 250 147 186 222 q 414 72 314 72 m 813 728 l 811 743 q 832 830 825 783 q 839 917 839 876 q 828 1024 839 972 q 804 1094 818 1076 l 811 1118 l 900 1138 q 929 1072 918 1118 q 940 975 940 1025 q 917 818 940 894 q 861 708 894 742 l 813 728 z "},"đ":{"ha":856,"x_min":60,"x_max":817,"o":"m 603 1050 l 458 1064 l 458 1114 l 686 1138 l 689 1138 l 715 1118 l 715 956 l 817 956 l 817 889 l 715 889 l 715 63 l 800 63 l 800 8 q 752 -3 792 7 q 667 -12 713 -12 q 622 -1 635 -12 q 608 47 608 10 l 608 96 q 503 17 565 49 q 364 -15 442 -15 q 213 27 282 -15 q 101 156 143 69 q 60 367 60 242 q 108 583 60 486 q 247 735 157 679 q 456 792 336 792 q 603 775 532 792 l 603 889 l 421 889 l 421 956 l 603 956 l 603 1050 m 410 72 q 523 101 469 72 q 603 164 576 129 l 603 675 q 545 708 592 694 q 446 722 499 722 q 254 637 326 722 q 182 378 182 551 q 246 147 182 222 q 410 72 310 72 z "},"ḋ":{"ha":858,"x_min":64,"x_max":804,"o":"m 368 -15 q 217 27 286 -15 q 106 156 147 69 q 64 367 64 242 q 113 583 64 486 q 251 735 161 679 q 460 792 340 792 q 607 775 536 792 l 607 1050 l 463 1064 l 463 1114 l 690 1138 l 693 1138 l 719 1118 l 719 63 l 804 63 l 804 8 q 757 -3 797 7 q 671 -12 717 -12 q 626 -1 639 -12 q 613 47 613 10 l 613 96 q 508 17 569 49 q 368 -15 446 -15 m 414 72 q 527 101 474 72 q 607 164 581 129 l 607 675 q 549 708 596 694 q 450 722 503 722 q 258 637 331 722 q 186 378 186 551 q 250 147 186 222 q 414 72 314 72 m 240 915 q 190 938 208 915 q 171 994 171 961 q 192 1059 171 1032 q 253 1086 214 1086 q 306 1063 286 1086 q 325 1007 325 1039 q 303 941 325 967 q 242 915 282 915 l 240 915 z "},"ǳ":{"ha":1624,"x_min":43,"x_max":1569,"o":"m 1133 -15 q 982 27 1051 -15 q 871 156 913 69 q 829 367 829 242 q 878 583 829 486 q 1016 735 926 679 q 1225 792 1106 792 q 1372 775 1301 792 l 1372 1050 l 1228 1064 l 1228 1114 l 1456 1138 l 1458 1138 l 1485 1118 l 1485 63 l 1569 63 l 1569 8 q 1522 -3 1563 7 q 1436 -12 1482 -12 q 1391 -1 1404 -12 q 1378 47 1378 10 l 1378 96 q 1273 17 1335 49 q 1133 -15 1211 -15 m 569 699 l 192 689 l 172 558 l 96 558 l 96 771 l 674 771 l 697 719 l 263 150 l 174 71 l 589 83 l 633 235 l 704 226 l 683 0 l 68 0 l 43 53 l 483 618 l 569 699 m 1179 72 q 1292 101 1239 72 q 1372 164 1346 129 l 1372 675 q 1315 708 1361 694 q 1215 722 1268 722 q 1024 637 1096 722 q 951 378 951 551 q 1015 147 951 222 q 1179 72 1079 72 z "},"ǆ":{"ha":1624,"x_min":64,"x_max":1563,"o":"m 1054 1218 l 1247 1008 l 1444 1218 l 1488 1190 l 1300 919 l 1194 919 l 1006 1189 l 1054 1218 m 368 -15 q 217 27 286 -15 q 106 156 147 69 q 64 367 64 242 q 113 583 64 486 q 251 735 161 679 q 460 792 340 792 q 607 775 536 792 l 607 1050 l 463 1064 l 463 1114 l 690 1138 l 693 1138 l 719 1118 l 719 63 l 804 63 l 804 8 q 757 -3 797 7 q 671 -12 717 -12 q 626 -1 639 -12 q 613 47 613 10 l 613 96 q 508 17 569 49 q 368 -15 446 -15 m 1428 699 l 1050 689 l 1031 558 l 954 558 l 954 771 l 1532 771 l 1556 719 l 1121 150 l 1032 71 l 1447 83 l 1492 235 l 1563 226 l 1542 0 l 926 0 l 901 53 l 1342 618 l 1428 699 m 414 72 q 527 101 474 72 q 607 164 581 129 l 607 675 q 549 708 596 694 q 450 722 503 722 q 258 637 331 722 q 186 378 186 551 q 250 147 186 222 q 414 72 314 72 z "},"e":{"ha":750,"x_min":65,"x_max":688,"o":"m 400 -15 q 152 95 239 -15 q 65 389 65 206 q 111 599 65 507 q 238 741 157 690 q 421 792 319 792 q 613 721 544 792 q 688 517 682 650 q 679 394 688 431 l 185 394 q 251 156 185 249 q 436 64 317 64 q 556 85 494 64 q 650 135 617 106 l 672 83 q 555 13 632 42 q 400 -15 478 -15 m 563 460 q 567 521 567 489 q 523 667 565 613 q 393 721 481 721 q 186 460 203 721 l 563 460 z "},"é":{"ha":750,"x_min":65,"x_max":688,"o":"m 400 -15 q 152 95 239 -15 q 65 389 65 206 q 111 599 65 507 q 238 741 157 690 q 421 792 319 792 q 613 721 544 792 q 688 517 682 650 q 679 394 688 431 l 185 394 q 251 156 185 249 q 436 64 317 64 q 556 85 494 64 q 650 135 617 106 l 672 83 q 555 13 632 42 q 400 -15 478 -15 m 563 460 q 567 521 567 489 q 523 667 565 613 q 393 721 481 721 q 186 460 203 721 l 563 460 m 319 953 l 536 1219 l 624 1144 q 500 1020 597 1104 q 358 915 403 936 l 319 953 z "},"ĕ":{"ha":750,"x_min":65,"x_max":688,"o":"m 400 -15 q 152 95 239 -15 q 65 389 65 206 q 111 599 65 507 q 238 741 157 690 q 421 792 319 792 q 613 721 544 792 q 688 517 682 650 q 679 394 688 431 l 185 394 q 251 156 185 249 q 436 64 317 64 q 556 85 494 64 q 650 135 617 106 l 672 83 q 555 13 632 42 q 400 -15 478 -15 m 563 460 q 567 521 567 489 q 523 667 565 613 q 393 721 481 721 q 186 460 203 721 l 563 460 m 392 925 q 272 957 322 925 q 194 1041 221 989 q 167 1154 167 1093 q 169 1186 167 1175 l 232 1186 q 233 1163 232 1172 q 277 1065 239 1108 q 392 1021 315 1021 q 505 1065 468 1021 q 546 1163 542 1108 q 547 1186 549 1181 l 608 1186 q 611 1156 611 1164 q 584 1042 611 1096 q 507 957 557 989 q 392 925 457 925 z "},"ě":{"ha":750,"x_min":65,"x_max":688,"o":"m 400 -15 q 152 95 239 -15 q 65 389 65 206 q 111 599 65 507 q 238 741 157 690 q 421 792 319 792 q 613 721 544 792 q 688 517 682 650 q 679 394 688 431 l 185 394 q 251 156 185 249 q 436 64 317 64 q 556 85 494 64 q 650 135 617 106 l 672 83 q 555 13 632 42 q 400 -15 478 -15 m 563 460 q 567 521 567 489 q 523 667 565 613 q 393 721 481 721 q 186 460 203 721 l 563 460 m 196 1218 l 389 1008 l 586 1218 l 629 1190 l 442 919 l 336 919 l 147 1189 l 196 1218 z "},"ê":{"ha":750,"x_min":65,"x_max":688,"o":"m 400 -15 q 152 95 239 -15 q 65 389 65 206 q 111 599 65 507 q 238 741 157 690 q 421 792 319 792 q 613 721 544 792 q 688 517 682 650 q 679 394 688 431 l 185 394 q 251 156 185 249 q 436 64 317 64 q 556 85 494 64 q 650 135 617 106 l 672 83 q 555 13 632 42 q 400 -15 478 -15 m 563 460 q 567 521 567 489 q 523 667 565 613 q 393 721 481 721 q 186 460 203 721 l 563 460 m 339 1204 l 443 1204 l 631 933 l 582 904 l 390 1114 l 190 904 l 146 932 l 339 1204 z "},"ế":{"ha":750,"x_min":65,"x_max":844,"o":"m 567 1079 l 764 1321 l 844 1253 q 731 1140 819 1217 q 603 1044 642 1063 l 567 1079 m 343 1164 l 438 1164 l 608 918 l 564 892 l 390 1082 l 208 892 l 168 917 l 343 1164 m 400 -15 q 152 95 239 -15 q 65 389 65 206 q 111 599 65 507 q 238 741 157 690 q 421 792 319 792 q 613 721 544 792 q 688 517 682 650 q 679 394 688 431 l 185 394 q 251 156 185 249 q 436 64 317 64 q 556 85 494 64 q 650 135 617 106 l 672 83 q 555 13 632 42 q 400 -15 478 -15 m 563 460 q 567 521 567 489 q 523 667 565 613 q 393 721 481 721 q 186 460 203 721 l 563 460 z "},"ệ":{"ha":750,"x_min":65,"x_max":688,"o":"m 400 -15 q 152 95 239 -15 q 65 389 65 206 q 111 599 65 507 q 238 741 157 690 q 421 792 319 792 q 613 721 544 792 q 688 517 682 650 q 679 394 688 431 l 185 394 q 251 156 185 249 q 436 64 317 64 q 556 85 494 64 q 650 135 617 106 l 672 83 q 555 13 632 42 q 400 -15 478 -15 m 563 460 q 567 521 567 489 q 523 667 565 613 q 393 721 481 721 q 186 460 203 721 l 563 460 m 367 -247 q 322 -227 339 -247 q 304 -176 304 -207 q 324 -117 304 -142 q 379 -93 343 -93 q 426 -115 408 -93 q 444 -164 444 -136 q 425 -224 444 -200 q 368 -247 406 -247 l 367 -247 m 325 1203 l 429 1203 l 617 932 l 568 903 l 376 1113 l 176 903 l 132 931 l 325 1203 z "},"ề":{"ha":750,"x_min":65,"x_max":688,"o":"m 572 1156 q 448 1249 539 1171 q 333 1364 357 1328 l 414 1432 l 611 1190 l 574 1156 l 572 1156 m 343 1164 l 438 1164 l 608 918 l 564 892 l 390 1082 l 208 892 l 168 917 l 343 1164 m 400 -15 q 152 95 239 -15 q 65 389 65 206 q 111 599 65 507 q 238 741 157 690 q 421 792 319 792 q 613 721 544 792 q 688 517 682 650 q 679 394 688 431 l 185 394 q 251 156 185 249 q 436 64 317 64 q 556 85 494 64 q 650 135 617 106 l 672 83 q 555 13 632 42 q 400 -15 478 -15 m 563 460 q 567 521 567 489 q 523 667 565 613 q 393 721 481 721 q 186 460 203 721 l 563 460 z "},"ể":{"ha":750,"x_min":65,"x_max":749,"o":"m 601 1097 q 586 1122 593 1108 q 579 1147 579 1136 q 590 1175 579 1164 q 622 1197 601 1186 q 637 1207 625 1199 q 656 1224 649 1215 q 665 1242 663 1232 l 665 1247 q 647 1288 665 1271 q 593 1310 629 1304 l 582 1310 q 549 1306 557 1310 l 544 1372 q 567 1380 547 1376 q 601 1383 586 1383 q 709 1351 669 1383 q 749 1260 749 1318 q 732 1209 749 1228 q 683 1171 715 1190 q 669 1161 678 1167 q 651 1147 661 1156 q 639 1121 639 1135 q 642 1106 639 1117 l 601 1097 m 343 1164 l 438 1164 l 608 918 l 564 892 l 390 1082 l 208 892 l 168 917 l 343 1164 m 400 -15 q 152 95 239 -15 q 65 389 65 206 q 111 599 65 507 q 238 741 157 690 q 421 792 319 792 q 613 721 544 792 q 688 517 682 650 q 679 394 688 431 l 185 394 q 251 156 185 249 q 436 64 317 64 q 556 85 494 64 q 650 135 617 106 l 672 83 q 555 13 632 42 q 400 -15 478 -15 m 563 460 q 567 521 567 489 q 523 667 565 613 q 393 721 481 721 q 186 460 203 721 l 563 460 z "},"ễ":{"ha":750,"x_min":65,"x_max":688,"o":"m 172 1238 q 229 1325 183 1285 q 336 1365 275 1365 q 397 1349 372 1365 q 447 1306 421 1333 q 487 1270 469 1282 q 526 1258 504 1258 q 584 1283 564 1258 q 617 1339 604 1307 l 668 1310 q 613 1219 651 1256 q 517 1182 575 1182 q 460 1197 482 1182 q 406 1240 438 1211 q 363 1277 381 1265 q 321 1289 344 1289 q 274 1276 293 1289 q 247 1250 256 1263 q 224 1208 239 1238 l 172 1238 m 343 1164 l 438 1164 l 608 918 l 564 892 l 390 1082 l 208 892 l 168 917 l 343 1164 m 400 -15 q 152 95 239 -15 q 65 389 65 206 q 111 599 65 507 q 238 741 157 690 q 421 792 319 792 q 613 721 544 792 q 688 517 682 650 q 679 394 688 431 l 185 394 q 251 156 185 249 q 436 64 317 64 q 556 85 494 64 q 650 135 617 106 l 672 83 q 555 13 632 42 q 400 -15 478 -15 m 563 460 q 567 521 567 489 q 523 667 565 613 q 393 721 481 721 q 186 460 203 721 l 563 460 z "},"ë":{"ha":750,"x_min":65,"x_max":688,"o":"m 400 -15 q 152 95 239 -15 q 65 389 65 206 q 111 599 65 507 q 238 741 157 690 q 421 792 319 792 q 613 721 544 792 q 688 517 682 650 q 679 394 688 431 l 185 394 q 251 156 185 249 q 436 64 317 64 q 556 85 494 64 q 650 135 617 106 l 672 83 q 555 13 632 42 q 400 -15 478 -15 m 563 460 q 567 521 567 489 q 523 667 565 613 q 393 721 481 721 q 186 460 203 721 l 563 460 m 229 931 q 178 953 197 931 q 158 1010 158 975 q 180 1074 158 1047 q 240 1101 201 1101 q 294 1077 274 1101 q 314 1021 314 1053 q 292 956 314 982 q 229 931 269 931 m 532 931 q 482 953 501 931 q 463 1010 463 976 q 484 1074 463 1047 q 544 1101 506 1101 q 598 1077 578 1101 q 618 1021 618 1053 q 596 956 618 982 q 532 931 574 931 z "},"ė":{"ha":750,"x_min":65,"x_max":688,"o":"m 400 -15 q 152 95 239 -15 q 65 389 65 206 q 111 599 65 507 q 238 741 157 690 q 421 792 319 792 q 613 721 544 792 q 688 517 682 650 q 679 394 688 431 l 185 394 q 251 156 185 249 q 436 64 317 64 q 556 85 494 64 q 650 135 617 106 l 672 83 q 555 13 632 42 q 400 -15 478 -15 m 563 460 q 567 521 567 489 q 523 667 565 613 q 393 721 481 721 q 186 460 203 721 l 563 460 m 381 931 q 330 953 349 931 q 311 1010 311 976 q 333 1074 311 1047 q 393 1101 354 1101 q 446 1078 426 1101 q 465 1022 465 1054 q 444 956 465 982 q 382 931 422 931 l 381 931 z "},"ẹ":{"ha":750,"x_min":65,"x_max":688,"o":"m 400 -15 q 152 95 239 -15 q 65 389 65 206 q 111 599 65 507 q 238 741 157 690 q 421 792 319 792 q 613 721 544 792 q 688 517 682 650 q 679 394 688 431 l 185 394 q 251 156 185 249 q 436 64 317 64 q 556 85 494 64 q 650 135 617 106 l 672 83 q 555 13 632 42 q 400 -15 478 -15 m 563 460 q 567 521 567 489 q 523 667 565 613 q 393 721 481 721 q 186 460 203 721 l 563 460 m 367 -247 q 322 -227 339 -247 q 304 -176 304 -207 q 324 -117 304 -142 q 379 -93 343 -93 q 426 -115 408 -93 q 444 -164 444 -136 q 425 -224 444 -200 q 368 -247 406 -247 l 367 -247 z "},"è":{"ha":750,"x_min":65,"x_max":688,"o":"m 400 -15 q 152 95 239 -15 q 65 389 65 206 q 111 599 65 507 q 238 741 157 690 q 421 792 319 792 q 613 721 544 792 q 688 517 682 650 q 679 394 688 431 l 185 394 q 251 156 185 249 q 436 64 317 64 q 556 85 494 64 q 650 135 617 106 l 672 83 q 555 13 632 42 q 400 -15 478 -15 m 563 460 q 567 521 567 489 q 523 667 565 613 q 393 721 481 721 q 186 460 203 721 l 563 460 m 429 915 q 292 1017 392 931 q 167 1144 193 1104 l 254 1219 l 471 953 l 431 915 l 429 915 z "},"ẻ":{"ha":750,"x_min":65,"x_max":688,"o":"m 400 -15 q 152 95 239 -15 q 65 389 65 206 q 111 599 65 507 q 238 741 157 690 q 421 792 319 792 q 613 721 544 792 q 688 517 682 650 q 679 394 688 431 l 185 394 q 251 156 185 249 q 436 64 317 64 q 556 85 494 64 q 650 135 617 106 l 672 83 q 555 13 632 42 q 400 -15 478 -15 m 563 460 q 567 521 567 489 q 523 667 565 613 q 393 721 481 721 q 186 460 203 721 l 563 460 m 339 867 q 322 894 329 879 q 314 921 314 910 q 325 951 314 939 q 361 978 336 963 q 393 1000 382 990 q 408 1025 404 1010 l 408 1032 q 389 1076 408 1058 q 329 1100 369 1094 l 317 1100 q 281 1096 289 1100 l 276 1169 q 301 1177 279 1174 q 339 1181 322 1181 q 457 1144 414 1181 q 500 1044 500 1108 q 482 989 500 1010 q 428 946 464 968 q 393 921 403 929 q 379 892 379 910 q 382 875 379 886 l 339 867 z "},"ē":{"ha":750,"x_min":65,"x_max":688,"o":"m 400 -15 q 152 95 239 -15 q 65 389 65 206 q 111 599 65 507 q 238 741 157 690 q 421 792 319 792 q 613 721 544 792 q 688 517 682 650 q 679 394 688 431 l 185 394 q 251 156 185 249 q 436 64 317 64 q 556 85 494 64 q 650 135 617 106 l 672 83 q 555 13 632 42 q 400 -15 478 -15 m 563 460 q 567 521 567 489 q 523 667 565 613 q 393 721 481 721 q 186 460 203 721 l 563 460 m 569 1056 l 569 971 l 207 971 l 207 1056 l 569 1056 z "},"ę":{"ha":750,"x_min":65,"x_max":688,"o":"m 688 517 q 679 394 688 431 l 185 394 q 251 156 185 249 q 436 64 317 64 q 556 85 494 64 q 650 135 617 106 l 672 83 q 604 35 646 57 q 513 0 563 14 q 394 -83 449 -29 q 340 -176 340 -136 q 365 -245 340 -225 q 442 -265 390 -265 q 516 -250 482 -265 q 590 -211 550 -235 l 603 -264 q 513 -316 561 -294 q 392 -337 465 -337 q 279 -306 322 -337 q 236 -208 236 -275 q 282 -108 236 -161 q 393 -15 328 -54 q 151 98 236 -12 q 65 389 65 208 q 111 599 65 507 q 238 741 157 690 q 421 792 319 792 q 613 721 544 792 q 688 517 682 650 m 563 460 q 567 521 567 489 q 523 667 565 613 q 393 721 481 721 q 186 460 203 721 l 563 460 z "},"ẽ":{"ha":750,"x_min":65,"x_max":688,"o":"m 400 -15 q 152 95 239 -15 q 65 389 65 206 q 111 599 65 507 q 238 741 157 690 q 421 792 319 792 q 613 721 544 792 q 688 517 682 650 q 679 394 688 431 l 185 394 q 251 156 185 249 q 436 64 317 64 q 556 85 494 64 q 650 135 617 106 l 672 83 q 555 13 632 42 q 400 -15 478 -15 m 563 460 q 567 521 567 489 q 523 667 565 613 q 393 721 481 721 q 186 460 203 721 l 563 460 m 115 978 q 178 1074 128 1029 q 296 1118 228 1118 q 363 1101 336 1118 q 418 1051 389 1083 q 461 1013 443 1025 q 504 1000 479 1000 q 568 1026 546 1000 q 604 1089 590 1053 l 661 1057 q 601 956 643 996 q 494 917 558 917 q 429 933 456 917 q 372 981 403 950 q 324 1022 344 1008 q 278 1035 304 1035 q 214 1010 236 1035 q 172 946 192 985 l 115 978 z "},"f":{"ha":549,"x_min":43,"x_max":560,"o":"m 183 688 l 43 688 l 43 743 l 183 769 l 183 838 q 226 991 183 921 q 338 1103 269 1061 q 482 1144 407 1144 q 560 1133 526 1144 l 560 1019 q 515 1036 549 1028 q 436 1044 481 1044 q 329 1006 363 1044 q 296 874 296 967 l 296 769 l 497 769 l 497 688 l 296 688 l 296 69 l 454 60 l 454 0 l 61 0 l 61 60 l 183 71 l 183 688 z "},"ḟ":{"ha":550,"x_min":43,"x_max":560,"o":"m 271 1176 q 220 1199 239 1176 q 201 1256 201 1222 q 223 1320 201 1293 q 283 1347 244 1347 q 336 1324 317 1347 q 356 1268 356 1300 q 334 1202 356 1228 q 272 1176 313 1176 l 271 1176 m 183 688 l 43 688 l 43 743 l 183 769 l 183 838 q 226 991 183 921 q 338 1103 269 1061 q 482 1144 407 1144 q 560 1133 526 1144 l 560 1019 q 515 1036 549 1028 q 436 1044 481 1044 q 329 1006 363 1044 q 296 874 296 967 l 296 769 l 497 769 l 497 688 l 296 688 l 296 69 l 454 60 l 454 0 l 61 0 l 61 60 l 183 71 l 183 688 z "},"g":{"ha":829,"x_min":64,"x_max":814,"o":"m 392 -375 q 64 -167 64 -375 q 102 -53 64 -104 q 193 28 140 -1 q 128 143 128 63 q 157 240 128 194 q 232 308 186 285 q 130 395 167 339 q 93 526 93 451 q 138 667 93 607 q 253 760 182 728 q 403 792 325 792 q 610 735 532 792 q 674 773 631 754 q 768 792 718 792 l 814 792 l 814 689 l 656 689 q 696 554 696 633 q 654 409 696 472 q 542 311 613 346 q 388 276 472 276 q 283 289 331 276 q 244 244 258 269 q 229 192 229 218 q 263 118 229 139 q 382 97 297 97 l 546 97 q 737 47 675 97 q 799 -93 799 -3 q 744 -233 799 -168 q 597 -336 690 -297 q 392 -375 503 -375 m 401 344 q 578 539 578 344 q 394 724 578 724 q 211 542 211 724 q 258 399 211 454 q 401 344 306 344 m 399 -304 q 542 -283 474 -304 q 651 -220 610 -261 q 693 -125 693 -179 q 680 -56 693 -82 q 628 -15 667 -29 q 518 0 590 0 l 346 0 q 244 8 279 0 q 176 -144 176 -57 q 226 -264 176 -224 q 399 -304 276 -304 z "},"ğ":{"ha":829,"x_min":64,"x_max":814,"o":"m 392 -375 q 64 -167 64 -375 q 102 -53 64 -104 q 193 28 140 -1 q 128 143 128 63 q 157 240 128 194 q 232 308 186 285 q 130 395 167 339 q 93 526 93 451 q 138 667 93 607 q 253 760 182 728 q 403 792 325 792 q 610 735 532 792 q 674 773 631 754 q 768 792 718 792 l 814 792 l 814 689 l 656 689 q 696 554 696 633 q 654 409 696 472 q 542 311 613 346 q 388 276 472 276 q 283 289 331 276 q 244 244 258 269 q 229 192 229 218 q 263 118 229 139 q 382 97 297 97 l 546 97 q 737 47 675 97 q 799 -93 799 -3 q 744 -233 799 -168 q 597 -336 690 -297 q 392 -375 503 -375 m 401 344 q 578 539 578 344 q 394 724 578 724 q 211 542 211 724 q 258 399 211 454 q 401 344 306 344 m 399 -304 q 542 -283 474 -304 q 651 -220 610 -261 q 693 -125 693 -179 q 680 -56 693 -82 q 628 -15 667 -29 q 518 0 590 0 l 346 0 q 244 8 279 0 q 176 -144 176 -57 q 226 -264 176 -224 q 399 -304 276 -304 m 404 925 q 284 957 335 925 q 206 1041 233 989 q 179 1154 179 1093 q 182 1186 179 1175 l 244 1186 q 246 1163 244 1172 q 290 1065 251 1108 q 404 1021 328 1021 q 517 1065 481 1021 q 558 1163 554 1108 q 560 1186 561 1181 l 621 1186 q 624 1156 624 1164 q 597 1042 624 1096 q 519 957 569 989 q 404 925 469 925 z "},"ĝ":{"ha":829,"x_min":64,"x_max":814,"o":"m 392 -375 q 64 -167 64 -375 q 102 -53 64 -104 q 193 28 140 -1 q 128 143 128 63 q 157 240 128 194 q 232 308 186 285 q 130 395 167 339 q 93 526 93 451 q 138 667 93 607 q 253 760 182 728 q 403 792 325 792 q 610 735 532 792 q 674 773 631 754 q 768 792 718 792 l 814 792 l 814 689 l 656 689 q 696 554 696 633 q 654 409 696 472 q 542 311 613 346 q 388 276 472 276 q 283 289 331 276 q 244 244 258 269 q 229 192 229 218 q 263 118 229 139 q 382 97 297 97 l 546 97 q 737 47 675 97 q 799 -93 799 -3 q 744 -233 799 -168 q 597 -336 690 -297 q 392 -375 503 -375 m 401 344 q 578 539 578 344 q 394 724 578 724 q 211 542 211 724 q 258 399 211 454 q 401 344 306 344 m 399 -304 q 542 -283 474 -304 q 651 -220 610 -261 q 693 -125 693 -179 q 680 -56 693 -82 q 628 -15 667 -29 q 518 0 590 0 l 346 0 q 244 8 279 0 q 176 -144 176 -57 q 226 -264 176 -224 q 399 -304 276 -304 m 351 1204 l 456 1204 l 643 933 l 594 904 l 403 1114 l 203 904 l 158 932 l 351 1204 z "},"ģ":{"ha":829,"x_min":64,"x_max":814,"o":"m 392 -375 q 64 -167 64 -375 q 102 -53 64 -104 q 193 28 140 -1 q 128 143 128 63 q 157 240 128 194 q 232 308 186 285 q 130 395 167 339 q 93 526 93 451 q 138 667 93 607 q 253 760 182 728 q 403 792 325 792 q 610 735 532 792 q 674 773 631 754 q 768 792 718 792 l 814 792 l 814 689 l 656 689 q 696 554 696 633 q 654 409 696 472 q 542 311 613 346 q 388 276 472 276 q 283 289 331 276 q 244 244 258 269 q 229 192 229 218 q 263 118 229 139 q 382 97 297 97 l 546 97 q 737 47 675 97 q 799 -93 799 -3 q 744 -233 799 -168 q 597 -336 690 -297 q 392 -375 503 -375 m 401 344 q 578 539 578 344 q 394 724 578 724 q 211 542 211 724 q 258 399 211 454 q 401 344 306 344 m 399 -304 q 542 -283 474 -304 q 651 -220 610 -261 q 693 -125 693 -179 q 680 -56 693 -82 q 628 -15 667 -29 q 518 0 590 0 l 346 0 q 244 8 279 0 q 176 -144 176 -57 q 226 -264 176 -224 q 399 -304 276 -304 m 410 903 q 348 932 371 903 q 325 1014 325 961 q 346 1105 325 1064 q 392 1171 367 1146 q 429 1200 417 1196 l 431 1200 l 468 1174 l 468 1165 q 434 1126 447 1156 q 421 1065 421 1097 q 428 1036 421 1047 q 450 1015 436 1025 q 469 995 463 1007 q 476 964 476 983 q 456 917 476 931 q 415 903 435 903 l 410 903 z "},"ġ":{"ha":829,"x_min":64,"x_max":814,"o":"m 392 -375 q 64 -167 64 -375 q 102 -53 64 -104 q 193 28 140 -1 q 128 143 128 63 q 157 240 128 194 q 232 308 186 285 q 130 395 167 339 q 93 526 93 451 q 138 667 93 607 q 253 760 182 728 q 403 792 325 792 q 610 735 532 792 q 674 773 631 754 q 768 792 718 792 l 814 792 l 814 689 l 656 689 q 696 554 696 633 q 654 409 696 472 q 542 311 613 346 q 388 276 472 276 q 283 289 331 276 q 244 244 258 269 q 229 192 229 218 q 263 118 229 139 q 382 97 297 97 l 546 97 q 737 47 675 97 q 799 -93 799 -3 q 744 -233 799 -168 q 597 -336 690 -297 q 392 -375 503 -375 m 401 344 q 578 539 578 344 q 394 724 578 724 q 211 542 211 724 q 258 399 211 454 q 401 344 306 344 m 399 -304 q 542 -283 474 -304 q 651 -220 610 -261 q 693 -125 693 -179 q 680 -56 693 -82 q 628 -15 667 -29 q 518 0 590 0 l 346 0 q 244 8 279 0 q 176 -144 176 -57 q 226 -264 176 -224 q 399 -304 276 -304 m 393 931 q 342 953 361 931 q 324 1010 324 976 q 345 1074 324 1047 q 406 1101 367 1101 q 458 1078 439 1101 q 478 1022 478 1054 q 456 956 478 982 q 394 931 435 931 l 393 931 z "},"h":{"ha":906,"x_min":19,"x_max":860,"o":"m 143 1050 l 19 1063 l 19 1114 l 225 1138 l 228 1138 l 254 1119 l 254 789 l 251 674 q 376 751 296 714 q 535 789 457 789 q 671 756 622 789 q 739 652 719 722 q 758 463 758 582 l 758 71 l 860 60 l 860 0 l 549 0 l 549 60 l 646 71 l 646 464 q 634 603 646 553 q 588 678 622 653 q 486 703 553 703 q 367 676 431 703 q 254 611 303 649 l 254 71 l 357 60 l 357 0 l 56 0 l 56 60 l 143 69 l 143 1050 z "},"ħ":{"ha":919,"x_min":10,"x_max":857,"o":"m 139 1050 l 17 1063 l 17 1114 l 221 1138 l 225 1138 l 251 1119 l 251 944 l 438 944 l 438 878 l 251 878 l 251 789 l 247 674 q 374 751 293 714 q 532 789 454 789 q 667 756 619 789 q 735 652 715 722 q 754 463 754 582 l 754 71 l 857 60 l 857 0 l 546 0 l 546 60 l 643 71 l 643 464 q 631 602 643 551 q 585 678 619 653 q 483 703 550 703 q 364 676 428 703 q 251 611 300 649 l 251 71 l 354 60 l 354 0 l 53 0 l 53 60 l 139 69 l 139 878 l 10 878 l 10 944 l 139 944 l 139 1050 z "},"ĥ":{"ha":906,"x_min":-54,"x_max":860,"o":"m 143 1050 l 19 1063 l 19 1114 l 225 1138 l 228 1138 l 254 1119 l 254 789 l 251 674 q 376 751 296 714 q 535 789 457 789 q 671 756 622 789 q 739 652 719 722 q 758 463 758 582 l 758 71 l 860 60 l 860 0 l 549 0 l 549 60 l 646 71 l 646 464 q 634 603 646 553 q 588 678 622 653 q 486 703 553 703 q 367 676 431 703 q 254 611 303 649 l 254 71 l 357 60 l 357 0 l 56 0 l 56 60 l 143 69 l 143 1050 m 124 1446 l 228 1446 l 407 1246 l 357 1215 l 176 1363 l -8 1215 l -54 1244 l 124 1446 z "},"i":{"ha":450,"x_min":58,"x_max":414,"o":"m 225 931 q 174 953 193 931 q 156 1010 156 976 q 177 1074 156 1047 q 238 1101 199 1101 q 290 1078 271 1101 q 310 1022 310 1054 q 288 956 310 982 q 226 931 267 931 l 225 931 m 181 71 l 181 679 l 72 703 l 72 765 l 263 788 l 265 788 l 293 765 l 293 69 l 414 60 l 414 0 l 58 0 l 58 60 l 181 71 z "},"ı":{"ha":450,"x_min":58,"x_max":414,"o":"m 181 71 l 181 679 l 72 703 l 72 765 l 263 788 l 265 788 l 293 765 l 293 69 l 414 60 l 414 0 l 58 0 l 58 60 l 181 71 z "},"í":{"ha":450,"x_min":58,"x_max":460,"o":"m 181 71 l 181 679 l 72 703 l 72 765 l 263 788 l 265 788 l 293 765 l 293 69 l 414 60 l 414 0 l 58 0 l 58 60 l 181 71 m 156 953 l 372 1219 l 460 1144 q 336 1020 433 1104 q 194 915 239 936 l 156 953 z "},"ĭ":{"ha":450,"x_min":4,"x_max":449,"o":"m 229 925 q 109 957 160 925 q 31 1041 58 989 q 4 1154 4 1093 q 7 1186 4 1175 l 69 1186 q 71 1163 69 1172 q 115 1065 76 1108 q 229 1021 153 1021 q 342 1065 306 1021 q 383 1163 379 1108 q 385 1186 386 1181 l 446 1186 q 449 1156 449 1164 q 422 1042 449 1096 q 344 957 394 989 q 229 925 294 925 m 181 71 l 181 679 l 72 703 l 72 765 l 263 788 l 265 788 l 293 765 l 293 69 l 414 60 l 414 0 l 58 0 l 58 60 l 181 71 z "},"î":{"ha":450,"x_min":-18,"x_max":467,"o":"m 175 1204 l 279 1204 l 467 933 l 418 904 l 226 1114 l 26 904 l -18 932 l 175 1204 m 181 71 l 181 679 l 72 703 l 72 765 l 263 788 l 265 788 l 293 765 l 293 69 l 414 60 l 414 0 l 58 0 l 58 60 l 181 71 z "},"ï":{"ha":450,"x_min":-6,"x_max":454,"o":"m 181 71 l 181 679 l 72 703 l 72 765 l 263 788 l 265 788 l 293 765 l 293 69 l 414 60 l 414 0 l 58 0 l 58 60 l 181 71 m 65 931 q 14 953 33 931 q -6 1010 -6 975 q 16 1074 -6 1047 q 76 1101 38 1101 q 130 1077 110 1101 q 150 1021 150 1053 q 128 956 150 982 q 65 931 106 931 m 368 931 q 318 953 338 931 q 299 1010 299 976 q 320 1074 299 1047 q 381 1101 342 1101 q 434 1077 414 1101 q 454 1021 454 1053 q 432 956 454 982 q 368 931 410 931 z "},"ị":{"ha":450,"x_min":58,"x_max":414,"o":"m 225 931 q 174 953 193 931 q 156 1010 156 976 q 177 1074 156 1047 q 238 1101 199 1101 q 290 1078 271 1101 q 310 1022 310 1054 q 288 956 310 982 q 226 931 267 931 l 225 931 m 181 71 l 181 679 l 72 703 l 72 765 l 263 788 l 265 788 l 293 765 l 293 69 l 414 60 l 414 0 l 58 0 l 58 60 l 181 71 m 217 -247 q 172 -227 189 -247 q 154 -176 154 -207 q 174 -117 154 -142 q 229 -93 193 -93 q 276 -115 258 -93 q 294 -164 294 -136 q 275 -224 294 -200 q 218 -247 256 -247 l 217 -247 z "},"ì":{"ha":450,"x_min":-3,"x_max":414,"o":"m 260 915 q 123 1017 222 931 q -3 1144 24 1104 l 85 1219 l 301 953 l 261 915 l 260 915 m 181 71 l 181 679 l 72 703 l 72 765 l 263 788 l 265 788 l 293 765 l 293 69 l 414 60 l 414 0 l 58 0 l 58 60 l 181 71 z "},"ỉ":{"ha":450,"x_min":58,"x_max":414,"o":"m 181 71 l 181 679 l 72 703 l 72 765 l 263 788 l 265 788 l 293 765 l 293 69 l 414 60 l 414 0 l 58 0 l 58 60 l 181 71 m 175 867 q 158 894 165 879 q 150 921 150 910 q 161 951 150 939 q 197 978 172 963 q 229 1000 218 990 q 244 1025 240 1010 l 244 1032 q 225 1076 244 1058 q 165 1100 206 1094 l 153 1100 q 117 1096 125 1100 l 113 1169 q 137 1177 115 1174 q 175 1181 158 1181 q 293 1144 250 1181 q 336 1044 336 1108 q 318 989 336 1010 q 264 946 300 968 q 229 921 239 929 q 215 892 215 910 q 218 875 215 886 l 175 867 z "},"ĳ":{"ha":878,"x_min":58,"x_max":754,"o":"m 225 931 q 174 953 193 931 q 156 1010 156 976 q 177 1074 156 1047 q 238 1101 199 1101 q 290 1078 271 1101 q 310 1022 310 1054 q 288 956 310 982 q 226 931 267 931 l 225 931 m 181 71 l 181 679 l 72 703 l 72 765 l 263 788 l 265 788 l 293 765 l 293 69 l 414 60 l 414 0 l 58 0 l 58 60 l 181 71 m 669 931 q 619 953 638 931 q 600 1010 600 976 q 622 1074 600 1047 q 682 1101 643 1101 q 735 1078 715 1101 q 754 1022 754 1054 q 733 956 754 982 q 671 931 711 931 l 669 931 m 511 765 l 704 788 l 707 788 l 733 765 l 733 8 q 521 -337 733 -318 q 476 -337 504 -339 q 442 -332 447 -336 l 436 -275 q 469 -273 447 -276 q 515 -261 492 -269 q 599 -167 575 -243 q 622 35 622 -90 l 621 674 l 511 699 l 511 765 z "},"ī":{"ha":450,"x_min":46,"x_max":414,"o":"m 408 1056 l 408 971 l 46 971 l 46 1056 l 408 1056 m 181 71 l 181 679 l 72 703 l 72 765 l 263 788 l 265 788 l 293 765 l 293 69 l 414 60 l 414 0 l 58 0 l 58 60 l 181 71 z "},"į":{"ha":450,"x_min":36,"x_max":414,"o":"m 217 931 q 166 953 185 931 q 147 1010 147 976 q 169 1074 147 1047 q 229 1101 190 1101 q 282 1078 263 1101 q 301 1022 301 1054 q 280 956 301 982 q 218 931 258 931 l 217 931 m 313 0 q 194 -82 249 -29 q 140 -176 140 -135 q 165 -245 140 -225 q 242 -265 190 -265 q 316 -250 282 -265 q 390 -211 350 -235 l 403 -264 q 313 -316 361 -294 q 192 -337 265 -337 q 79 -306 122 -337 q 36 -208 36 -275 q 92 -96 36 -156 q 221 0 147 -36 l 58 0 l 58 60 l 181 71 l 181 679 l 72 703 l 72 765 l 263 788 l 265 788 l 293 765 l 293 69 l 414 60 l 414 0 l 313 0 z "},"ĩ":{"ha":450,"x_min":-44,"x_max":501,"o":"m -44 978 q 18 1074 -32 1029 q 136 1118 68 1118 q 203 1101 176 1118 q 258 1051 229 1083 q 301 1013 283 1025 q 344 1000 319 1000 q 408 1026 386 1000 q 444 1089 431 1053 l 501 1057 q 441 956 483 996 q 335 917 399 917 q 270 933 296 917 q 213 981 244 950 q 165 1022 185 1008 q 118 1035 144 1035 q 54 1010 76 1035 q 13 946 32 985 l -44 978 m 181 71 l 181 679 l 72 703 l 72 765 l 263 788 l 265 788 l 293 765 l 293 69 l 414 60 l 414 0 l 58 0 l 58 60 l 181 71 z "},"j":{"ha":428,"x_min":-14,"x_max":304,"o":"m 219 931 q 169 953 188 931 q 150 1010 150 976 q 172 1074 150 1047 q 232 1101 193 1101 q 285 1078 265 1101 q 304 1022 304 1054 q 283 956 304 982 q 221 931 261 931 l 219 931 m 61 765 l 254 788 l 257 788 l 283 765 l 283 8 q 71 -337 283 -318 q 26 -337 54 -339 q -8 -332 -3 -336 l -14 -275 q 19 -273 -3 -276 q 65 -261 42 -269 q 149 -167 125 -243 q 172 35 172 -90 l 171 674 l 61 699 l 61 765 z "},"ȷ":{"ha":428,"x_min":-14,"x_max":283,"o":"m 61 765 l 254 788 l 257 788 l 283 765 l 283 8 q 71 -337 283 -318 q 26 -337 54 -339 q -8 -332 -3 -336 l -14 -275 q 19 -273 -3 -276 q 65 -261 42 -269 q 149 -167 125 -243 q 172 35 172 -90 l 171 674 l 61 699 l 61 765 z "},"ĵ":{"ha":428,"x_min":-24,"x_max":461,"o":"m 169 1204 l 274 1204 l 461 933 l 413 904 l 221 1114 l 21 904 l -24 932 l 169 1204 m 61 765 l 254 788 l 257 788 l 283 765 l 283 8 q 71 -337 283 -318 q 26 -337 54 -339 q -8 -332 -3 -336 l -14 -275 q 19 -273 -3 -276 q 65 -261 42 -269 q 149 -167 125 -243 q 172 35 172 -90 l 171 674 l 61 699 l 61 765 z "},"k":{"ha":807,"x_min":28,"x_max":847,"o":"m 142 71 l 142 1050 l 28 1063 l 28 1114 l 226 1138 l 228 1138 l 254 1119 l 254 429 l 251 342 l 596 696 l 492 715 l 492 771 l 811 771 l 811 715 l 704 696 l 479 475 l 756 69 l 847 60 l 847 0 l 529 0 l 529 60 l 625 71 l 407 413 l 251 260 l 254 189 l 254 71 l 361 60 l 361 0 l 50 0 l 50 60 l 142 71 z "},"ķ":{"ha":807,"x_min":28,"x_max":847,"o":"m 142 71 l 142 1050 l 28 1063 l 28 1114 l 226 1138 l 228 1138 l 254 1119 l 254 429 l 251 342 l 596 696 l 492 715 l 492 771 l 811 771 l 811 715 l 704 696 l 479 475 l 756 69 l 847 60 l 847 0 l 529 0 l 529 60 l 625 71 l 407 413 l 251 260 l 254 189 l 254 71 l 361 60 l 361 0 l 50 0 l 50 60 l 142 71 m 524 -192 q 503 -283 524 -242 q 457 -349 482 -324 q 419 -378 432 -374 l 418 -378 l 381 -351 l 381 -343 q 415 -304 401 -333 q 428 -243 428 -275 q 420 -214 428 -225 q 399 -193 413 -203 q 379 -173 386 -185 q 372 -142 372 -161 q 393 -94 372 -108 q 433 -81 414 -81 l 439 -81 q 501 -110 478 -81 q 524 -192 524 -139 z "},"ĸ":{"ha":911,"x_min":54,"x_max":883,"o":"m 169 68 l 169 679 l 60 703 l 60 765 l 251 788 l 254 788 l 281 765 l 281 485 l 278 344 l 631 694 l 517 713 l 517 769 l 844 769 l 844 713 l 749 700 l 508 464 l 789 68 l 883 58 l 883 0 l 578 0 l 578 57 l 657 68 l 435 399 l 278 257 l 281 188 l 281 68 l 396 57 l 396 0 l 54 0 l 54 58 l 169 68 z "},"l":{"ha":457,"x_min":54,"x_max":419,"o":"m 176 71 l 176 1050 l 58 1063 l 58 1114 l 261 1138 l 263 1138 l 289 1119 l 289 69 l 419 60 l 419 0 l 54 0 l 54 60 l 176 71 z "},"ĺ":{"ha":457,"x_min":54,"x_max":432,"o":"m 124 1153 l 354 1361 l 432 1290 q 312 1195 400 1249 q 163 1117 224 1142 l 124 1153 m 54 0 l 54 58 l 176 68 l 176 957 l 58 965 l 58 1015 l 261 1040 l 289 1021 l 289 68 l 419 58 l 419 0 l 54 0 z "},"ľ":{"ha":560,"x_min":54,"x_max":583,"o":"m 54 0 l 54 60 l 176 71 l 176 1050 l 58 1063 l 58 1114 l 261 1138 l 263 1138 l 289 1119 l 289 69 l 419 60 l 419 0 l 54 0 m 456 728 l 454 743 q 475 830 468 783 q 482 917 482 876 q 472 1024 482 972 q 447 1094 461 1076 l 454 1118 l 543 1138 q 572 1072 561 1118 q 583 975 583 1025 q 560 818 583 894 q 504 708 538 742 l 456 728 z "},"ļ":{"ha":457,"x_min":54,"x_max":419,"o":"m 176 71 l 176 1050 l 58 1063 l 58 1114 l 261 1138 l 263 1138 l 289 1119 l 289 69 l 419 60 l 419 0 l 54 0 l 54 60 l 176 71 m 332 -192 q 311 -283 332 -242 q 265 -349 290 -324 q 228 -378 240 -374 l 226 -378 l 189 -351 l 189 -343 q 223 -304 210 -333 q 236 -243 236 -275 q 228 -214 236 -225 q 207 -193 221 -203 q 188 -173 194 -185 q 181 -142 181 -161 q 201 -94 181 -108 q 242 -81 222 -81 l 247 -81 q 309 -110 286 -81 q 332 -192 332 -139 z "},"ŀ":{"ha":700,"x_min":54,"x_max":661,"o":"m 176 71 l 176 1050 l 58 1063 l 58 1114 l 261 1138 l 263 1138 l 289 1119 l 289 69 l 419 60 l 419 0 l 54 0 l 54 60 l 176 71 m 572 417 q 518 438 540 417 q 496 494 496 460 q 523 560 496 533 q 586 586 550 586 q 642 564 624 586 q 661 508 661 542 q 635 443 661 469 q 572 417 608 417 z "},"ǉ":{"ha":885,"x_min":54,"x_max":761,"o":"m 176 71 l 176 1050 l 58 1063 l 58 1114 l 261 1138 l 263 1138 l 289 1119 l 289 69 l 419 60 l 419 0 l 54 0 l 54 60 l 176 71 m 676 931 q 626 953 644 931 q 607 1010 607 976 q 628 1074 607 1047 q 689 1101 650 1101 q 742 1078 722 1101 q 761 1022 761 1054 q 740 956 761 982 q 678 931 718 931 l 676 931 m 518 765 l 711 788 l 714 788 l 740 765 l 740 8 q 528 -337 740 -318 q 483 -337 511 -339 q 449 -332 454 -336 l 443 -275 q 476 -273 454 -276 q 522 -261 499 -269 q 606 -167 582 -243 q 629 35 629 -90 l 628 674 l 518 699 l 518 765 z "},"ł":{"ha":476,"x_min":29,"x_max":458,"o":"m 181 576 l 181 1050 l 61 1063 l 61 1114 l 265 1138 l 267 1138 l 293 1119 l 293 628 l 458 706 l 458 622 l 293 547 l 293 69 l 424 60 l 424 0 l 58 0 l 58 60 l 181 71 l 181 496 l 29 426 l 29 503 l 181 576 z "},"m":{"ha":1367,"x_min":43,"x_max":1329,"o":"m 61 60 l 150 71 l 150 679 l 43 703 l 43 765 l 219 788 l 250 765 l 250 704 l 249 669 q 383 751 300 714 q 535 789 467 789 q 655 764 610 789 q 724 686 700 739 q 849 756 767 722 q 1001 789 932 789 q 1137 756 1089 789 q 1204 653 1185 722 q 1224 465 1224 583 l 1224 71 l 1329 60 l 1329 0 l 1018 0 l 1018 60 l 1113 71 l 1113 461 q 1100 600 1113 549 q 1051 678 1088 651 q 946 704 1015 704 q 838 681 894 704 q 742 629 782 658 q 756 463 756 565 l 756 71 l 861 60 l 861 0 l 543 0 l 543 60 l 643 71 l 643 464 q 633 603 643 553 q 589 678 622 653 q 490 703 556 703 q 373 676 436 703 q 263 611 310 649 l 263 71 l 361 60 l 361 0 l 61 0 l 61 60 z "},"ṁ":{"ha":1367,"x_min":43,"x_max":1329,"o":"m 61 60 l 150 71 l 150 679 l 43 703 l 43 765 l 219 788 l 250 765 l 250 704 l 249 669 q 383 751 300 714 q 535 789 467 789 q 655 764 610 789 q 724 686 700 739 q 849 756 767 722 q 1001 789 932 789 q 1137 756 1089 789 q 1204 653 1185 722 q 1224 465 1224 583 l 1224 71 l 1329 60 l 1329 0 l 1018 0 l 1018 60 l 1113 71 l 1113 461 q 1100 600 1113 549 q 1051 678 1088 651 q 946 704 1015 704 q 838 681 894 704 q 742 629 782 658 q 756 463 756 565 l 756 71 l 861 60 l 861 0 l 543 0 l 543 60 l 643 71 l 643 464 q 633 603 643 553 q 589 678 622 653 q 490 703 556 703 q 373 676 436 703 q 263 611 310 649 l 263 71 l 361 60 l 361 0 l 61 0 l 61 60 m 675 931 q 624 953 643 931 q 606 1010 606 976 q 627 1074 606 1047 q 688 1101 649 1101 q 740 1078 721 1101 q 760 1022 760 1054 q 738 956 760 982 q 676 931 717 931 l 675 931 z "},"n":{"ha":907,"x_min":43,"x_max":868,"o":"m 150 679 l 43 703 l 43 765 l 219 788 l 224 788 l 250 765 l 250 704 l 249 669 q 385 751 300 714 q 542 789 469 789 q 678 755 631 789 q 745 651 726 721 q 764 463 764 581 l 764 69 l 868 60 l 868 0 l 556 0 l 556 60 l 651 69 l 651 464 q 640 601 651 551 q 594 677 628 651 q 494 703 560 703 q 374 675 439 703 q 263 610 310 647 l 263 71 l 364 60 l 364 0 l 57 0 l 57 60 l 150 71 l 150 679 z "},"ń":{"ha":907,"x_min":43,"x_max":868,"o":"m 150 679 l 43 703 l 43 765 l 219 788 l 224 788 l 250 765 l 250 704 l 249 669 q 385 751 300 714 q 542 789 469 789 q 678 755 631 789 q 745 651 726 721 q 764 463 764 581 l 764 69 l 868 60 l 868 0 l 556 0 l 556 60 l 651 69 l 651 464 q 640 601 651 551 q 594 677 628 651 q 494 703 560 703 q 374 675 439 703 q 263 610 310 647 l 263 71 l 364 60 l 364 0 l 57 0 l 57 60 l 150 71 l 150 679 m 385 953 l 601 1219 l 689 1144 q 565 1020 663 1104 q 424 915 468 936 l 385 953 z "},"ň":{"ha":907,"x_min":43,"x_max":868,"o":"m 254 1218 l 447 1008 l 644 1218 l 688 1190 l 500 919 l 394 919 l 206 1189 l 254 1218 m 150 679 l 43 703 l 43 765 l 219 788 l 224 788 l 250 765 l 250 704 l 249 669 q 385 751 300 714 q 542 789 469 789 q 678 755 631 789 q 745 651 726 721 q 764 463 764 581 l 764 69 l 868 60 l 868 0 l 556 0 l 556 60 l 651 69 l 651 464 q 640 601 651 551 q 594 677 628 651 q 494 703 560 703 q 374 675 439 703 q 263 610 310 647 l 263 71 l 364 60 l 364 0 l 57 0 l 57 60 l 150 71 l 150 679 z "},"ņ":{"ha":907,"x_min":43,"x_max":868,"o":"m 150 679 l 43 703 l 43 765 l 219 788 l 224 788 l 250 765 l 250 704 l 249 669 q 385 751 300 714 q 542 789 469 789 q 678 755 631 789 q 745 651 726 721 q 764 463 764 581 l 764 69 l 868 60 l 868 0 l 556 0 l 556 60 l 651 69 l 651 464 q 640 601 651 551 q 594 677 628 651 q 494 703 560 703 q 374 675 439 703 q 263 610 310 647 l 263 71 l 364 60 l 364 0 l 57 0 l 57 60 l 150 71 l 150 679 m 558 -192 q 538 -283 558 -242 q 492 -349 517 -324 q 454 -378 467 -374 l 453 -378 l 415 -351 l 415 -343 q 449 -304 436 -333 q 463 -243 463 -275 q 455 -214 463 -225 q 433 -193 447 -203 q 414 -173 421 -185 q 407 -142 407 -161 q 428 -94 407 -108 q 468 -81 449 -81 l 474 -81 q 535 -110 513 -81 q 558 -192 558 -139 z "},"ŋ":{"ha":925,"x_min":58,"x_max":781,"o":"m 168 681 l 58 704 l 58 767 l 236 789 l 240 789 l 267 767 l 267 710 l 265 671 q 401 753 317 715 q 558 790 486 790 q 695 757 647 790 q 762 655 743 724 q 781 468 781 586 l 781 15 q 724 -243 781 -154 q 561 -340 667 -332 q 488 -335 496 -340 l 482 -276 q 516 -274 492 -278 q 556 -265 540 -271 q 642 -172 617 -247 q 668 31 668 -96 l 668 468 q 656 604 668 556 q 611 678 644 653 q 511 703 578 703 q 392 676 457 703 q 279 611 328 649 l 279 71 l 379 60 l 379 0 l 74 0 l 74 60 l 168 71 l 168 681 z "},"ǌ":{"ha":1335,"x_min":-14,"x_max":1296,"o":"m 219 931 q 169 953 188 931 q 150 1010 150 976 q 172 1074 150 1047 q 232 1101 193 1101 q 285 1078 265 1101 q 304 1022 304 1054 q 283 956 304 982 q 221 931 261 931 l 219 931 m 485 60 l 578 71 l 578 679 l 471 703 l 471 765 l 647 788 l 651 788 l 678 765 l 678 704 l 676 669 q 813 751 728 714 q 969 789 897 789 q 1106 755 1058 789 q 1173 651 1154 721 q 1192 463 1192 581 l 1192 69 l 1296 60 l 1296 0 l 983 0 l 983 60 l 1079 69 l 1079 464 q 1067 601 1079 551 q 1022 677 1056 651 q 922 703 988 703 q 802 675 867 703 q 690 610 738 647 l 690 71 l 792 60 l 792 0 l 485 0 l 485 60 m 71 -337 q 26 -337 54 -339 q -8 -332 -3 -336 l -14 -275 q 19 -273 -3 -276 q 65 -261 42 -269 q 149 -167 125 -243 q 172 35 172 -90 l 171 674 l 61 699 l 61 765 l 254 788 l 257 788 l 283 765 l 283 8 q 71 -337 283 -318 z "},"ñ":{"ha":907,"x_min":43,"x_max":868,"o":"m 174 978 q 236 1074 186 1029 q 354 1118 286 1118 q 421 1101 394 1118 q 476 1051 447 1083 q 519 1013 501 1025 q 563 1000 538 1000 q 626 1026 604 1000 q 663 1089 649 1053 l 719 1057 q 659 956 701 996 q 553 917 617 917 q 488 933 514 917 q 431 981 463 950 q 383 1022 403 1008 q 336 1035 363 1035 q 272 1010 294 1035 q 231 946 250 985 l 174 978 m 150 679 l 43 703 l 43 765 l 219 788 l 224 788 l 250 765 l 250 704 l 249 669 q 385 751 300 714 q 542 789 469 789 q 678 755 631 789 q 745 651 726 721 q 764 463 764 581 l 764 69 l 868 60 l 868 0 l 556 0 l 556 60 l 651 69 l 651 464 q 640 601 651 551 q 594 677 628 651 q 494 703 560 703 q 374 675 439 703 q 263 610 310 647 l 263 71 l 364 60 l 364 0 l 57 0 l 57 60 l 150 71 l 150 679 z "},"o":{"ha":826,"x_min":63,"x_max":763,"o":"m 63 390 q 113 603 63 511 q 247 743 164 694 q 419 792 329 792 q 678 678 594 792 q 763 386 763 564 q 712 174 763 265 q 578 33 661 82 q 406 -15 496 -15 q 147 99 231 -15 q 63 390 63 213 m 413 57 q 578 139 519 57 q 636 378 636 221 q 582 624 636 528 q 414 719 528 719 q 248 638 307 719 q 189 399 189 556 q 244 152 189 247 q 413 57 299 57 z "},"ó":{"ha":826,"x_min":63,"x_max":763,"o":"m 63 390 q 113 603 63 511 q 247 743 164 694 q 419 792 329 792 q 678 678 594 792 q 763 386 763 564 q 712 174 763 265 q 578 33 661 82 q 406 -15 496 -15 q 147 99 231 -15 q 63 390 63 213 m 413 57 q 578 139 519 57 q 636 378 636 221 q 582 624 636 528 q 414 719 528 719 q 248 638 307 719 q 189 399 189 556 q 244 152 189 247 q 413 57 299 57 m 344 953 l 561 1219 l 649 1144 q 525 1020 622 1104 q 383 915 428 936 l 344 953 z "},"ŏ":{"ha":826,"x_min":63,"x_max":763,"o":"m 419 925 q 299 957 350 925 q 222 1041 249 989 q 194 1154 194 1093 q 197 1186 194 1175 l 260 1186 q 261 1163 260 1172 q 305 1065 267 1108 q 419 1021 343 1021 q 533 1065 496 1021 q 574 1163 569 1108 q 575 1186 576 1181 l 636 1186 q 639 1156 639 1164 q 612 1042 639 1096 q 535 957 585 989 q 419 925 485 925 m 63 390 q 113 603 63 511 q 247 743 164 694 q 419 792 329 792 q 678 678 594 792 q 763 386 763 564 q 712 174 763 265 q 578 33 661 82 q 406 -15 496 -15 q 147 99 231 -15 q 63 390 63 213 m 413 57 q 578 139 519 57 q 636 378 636 221 q 582 624 636 528 q 414 719 528 719 q 248 638 307 719 q 189 399 189 556 q 244 152 189 247 q 413 57 299 57 z "},"ô":{"ha":826,"x_min":63,"x_max":763,"o":"m 365 1204 l 469 1204 l 657 933 l 608 904 l 417 1114 l 217 904 l 172 932 l 365 1204 m 63 390 q 113 603 63 511 q 247 743 164 694 q 419 792 329 792 q 678 678 594 792 q 763 386 763 564 q 712 174 763 265 q 578 33 661 82 q 406 -15 496 -15 q 147 99 231 -15 q 63 390 63 213 m 413 57 q 578 139 519 57 q 636 378 636 221 q 582 624 636 528 q 414 719 528 719 q 248 638 307 719 q 189 399 189 556 q 244 152 189 247 q 413 57 299 57 z "},"ố":{"ha":826,"x_min":63,"x_max":869,"o":"m 592 1079 l 789 1321 l 869 1253 q 756 1140 844 1217 q 628 1044 667 1063 l 592 1079 m 368 1164 l 463 1164 l 633 918 l 589 892 l 415 1082 l 233 892 l 193 917 l 368 1164 m 63 390 q 113 603 63 511 q 247 743 164 694 q 419 792 329 792 q 678 678 594 792 q 763 386 763 564 q 712 174 763 265 q 578 33 661 82 q 406 -15 496 -15 q 147 99 231 -15 q 63 390 63 213 m 413 57 q 578 139 519 57 q 636 378 636 221 q 582 624 636 528 q 414 719 528 719 q 248 638 307 719 q 189 399 189 556 q 244 152 189 247 q 413 57 299 57 z "},"ộ":{"ha":826,"x_min":63,"x_max":763,"o":"m 63 390 q 113 603 63 511 q 247 743 164 694 q 419 792 329 792 q 678 678 594 792 q 763 386 763 564 q 712 174 763 265 q 578 33 661 82 q 406 -15 496 -15 q 147 99 231 -15 q 63 390 63 213 m 413 57 q 578 139 519 57 q 636 378 636 221 q 582 624 636 528 q 414 719 528 719 q 248 638 307 719 q 189 399 189 556 q 244 152 189 247 q 413 57 299 57 m 406 -247 q 360 -227 378 -247 q 343 -176 343 -207 q 363 -117 343 -142 q 418 -93 382 -93 q 465 -115 447 -93 q 483 -164 483 -136 q 464 -224 483 -200 q 407 -247 444 -247 l 406 -247 m 364 1203 l 468 1203 l 656 932 l 607 903 l 415 1113 l 215 903 l 171 931 l 364 1203 z "},"ồ":{"ha":826,"x_min":63,"x_max":763,"o":"m 597 1156 q 473 1249 564 1171 q 358 1364 382 1328 l 439 1432 l 636 1190 l 599 1156 l 597 1156 m 368 1164 l 463 1164 l 633 918 l 589 892 l 415 1082 l 233 892 l 193 917 l 368 1164 m 63 390 q 113 603 63 511 q 247 743 164 694 q 419 792 329 792 q 678 678 594 792 q 763 386 763 564 q 712 174 763 265 q 578 33 661 82 q 406 -15 496 -15 q 147 99 231 -15 q 63 390 63 213 m 413 57 q 578 139 519 57 q 636 378 636 221 q 582 624 636 528 q 414 719 528 719 q 248 638 307 719 q 189 399 189 556 q 244 152 189 247 q 413 57 299 57 z "},"ổ":{"ha":826,"x_min":63,"x_max":774,"o":"m 626 1097 q 611 1122 618 1108 q 604 1147 604 1136 q 615 1175 604 1164 q 647 1197 626 1186 q 662 1207 650 1199 q 681 1224 674 1215 q 690 1242 688 1232 l 690 1247 q 672 1288 690 1271 q 618 1310 654 1304 l 607 1310 q 574 1306 582 1310 l 569 1372 q 592 1380 572 1376 q 626 1383 611 1383 q 734 1351 694 1383 q 774 1260 774 1318 q 757 1209 774 1228 q 708 1171 740 1190 q 694 1161 703 1167 q 676 1147 686 1156 q 664 1121 664 1135 q 667 1106 664 1117 l 626 1097 m 368 1164 l 463 1164 l 633 918 l 589 892 l 415 1082 l 233 892 l 193 917 l 368 1164 m 63 390 q 113 603 63 511 q 247 743 164 694 q 419 792 329 792 q 678 678 594 792 q 763 386 763 564 q 712 174 763 265 q 578 33 661 82 q 406 -15 496 -15 q 147 99 231 -15 q 63 390 63 213 m 413 57 q 578 139 519 57 q 636 378 636 221 q 582 624 636 528 q 414 719 528 719 q 248 638 307 719 q 189 399 189 556 q 244 152 189 247 q 413 57 299 57 z "},"ỗ":{"ha":826,"x_min":63,"x_max":763,"o":"m 197 1238 q 254 1325 208 1285 q 361 1365 300 1365 q 422 1349 397 1365 q 472 1306 446 1333 q 512 1270 494 1282 q 551 1258 529 1258 q 609 1283 589 1258 q 642 1339 629 1307 l 693 1310 q 638 1219 676 1256 q 542 1182 600 1182 q 485 1197 507 1182 q 431 1240 463 1211 q 388 1277 406 1265 q 346 1289 369 1289 q 299 1276 318 1289 q 272 1250 281 1263 q 249 1208 264 1238 l 197 1238 m 368 1164 l 463 1164 l 633 918 l 589 892 l 415 1082 l 233 892 l 193 917 l 368 1164 m 63 390 q 113 603 63 511 q 247 743 164 694 q 419 792 329 792 q 678 678 594 792 q 763 386 763 564 q 712 174 763 265 q 578 33 661 82 q 406 -15 496 -15 q 147 99 231 -15 q 63 390 63 213 m 413 57 q 578 139 519 57 q 636 378 636 221 q 582 624 636 528 q 414 719 528 719 q 248 638 307 719 q 189 399 189 556 q 244 152 189 247 q 413 57 299 57 z "},"ö":{"ha":826,"x_min":63,"x_max":763,"o":"m 63 390 q 113 603 63 511 q 247 743 164 694 q 419 792 329 792 q 678 678 594 792 q 763 386 763 564 q 712 174 763 265 q 578 33 661 82 q 406 -15 496 -15 q 147 99 231 -15 q 63 390 63 213 m 413 57 q 578 139 519 57 q 636 378 636 221 q 582 624 636 528 q 414 719 528 719 q 248 638 307 719 q 189 399 189 556 q 244 152 189 247 q 413 57 299 57 m 254 931 q 203 953 222 931 q 183 1010 183 975 q 205 1074 183 1047 q 265 1101 226 1101 q 319 1077 299 1101 q 339 1021 339 1053 q 317 956 339 982 q 254 931 294 931 m 557 931 q 507 953 526 931 q 488 1010 488 976 q 509 1074 488 1047 q 569 1101 531 1101 q 623 1077 603 1101 q 643 1021 643 1053 q 621 956 643 982 q 557 931 599 931 z "},"ọ":{"ha":826,"x_min":63,"x_max":763,"o":"m 63 390 q 113 603 63 511 q 247 743 164 694 q 419 792 329 792 q 678 678 594 792 q 763 386 763 564 q 712 174 763 265 q 578 33 661 82 q 406 -15 496 -15 q 147 99 231 -15 q 63 390 63 213 m 413 57 q 578 139 519 57 q 636 378 636 221 q 582 624 636 528 q 414 719 528 719 q 248 638 307 719 q 189 399 189 556 q 244 152 189 247 q 413 57 299 57 m 406 -247 q 360 -227 378 -247 q 343 -176 343 -207 q 363 -117 343 -142 q 418 -93 382 -93 q 465 -115 447 -93 q 483 -164 483 -136 q 464 -224 483 -200 q 407 -247 444 -247 l 406 -247 z "},"ò":{"ha":826,"x_min":63,"x_max":763,"o":"m 450 915 q 313 1017 413 931 q 188 1144 214 1104 l 275 1219 l 492 953 l 451 915 l 450 915 m 63 390 q 113 603 63 511 q 247 743 164 694 q 419 792 329 792 q 678 678 594 792 q 763 386 763 564 q 712 174 763 265 q 578 33 661 82 q 406 -15 496 -15 q 147 99 231 -15 q 63 390 63 213 m 413 57 q 578 139 519 57 q 636 378 636 221 q 582 624 636 528 q 414 719 528 719 q 248 638 307 719 q 189 399 189 556 q 244 152 189 247 q 413 57 299 57 z "},"ỏ":{"ha":826,"x_min":63,"x_max":763,"o":"m 63 390 q 113 603 63 511 q 247 743 164 694 q 419 792 329 792 q 678 678 594 792 q 763 386 763 564 q 712 174 763 265 q 578 33 661 82 q 406 -15 496 -15 q 147 99 231 -15 q 63 390 63 213 m 413 57 q 578 139 519 57 q 636 378 636 221 q 582 624 636 528 q 414 719 528 719 q 248 638 307 719 q 189 399 189 556 q 244 152 189 247 q 413 57 299 57 m 364 867 q 347 894 354 879 q 339 921 339 910 q 350 951 339 939 q 386 978 361 963 q 418 1000 407 990 q 433 1025 429 1010 l 433 1032 q 414 1076 433 1058 q 354 1100 394 1094 l 342 1100 q 306 1096 314 1100 l 301 1169 q 326 1177 304 1174 q 364 1181 347 1181 q 482 1144 439 1181 q 525 1044 525 1108 q 507 989 525 1010 q 453 946 489 968 q 418 921 428 929 q 404 892 404 910 q 407 875 404 886 l 364 867 z "},"ơ":{"ha":826,"x_min":63,"x_max":926,"o":"m 63 390 q 113 603 63 511 q 247 743 164 694 q 419 792 329 792 q 678 678 594 792 q 763 386 763 564 q 712 174 763 265 q 578 33 661 82 q 406 -15 496 -15 q 147 99 231 -15 q 63 390 63 213 m 413 57 q 578 139 519 57 q 636 378 636 221 q 582 624 636 528 q 414 719 528 719 q 248 638 307 719 q 189 399 189 556 q 244 152 189 247 q 413 57 299 57 m 671 771 q 781 819 746 771 q 825 929 817 868 q 826 953 828 947 l 924 953 q 926 922 926 931 q 891 810 926 864 q 796 724 856 757 q 671 692 736 692 l 671 771 z "},"ớ":{"ha":826,"x_min":63,"x_max":926,"o":"m 63 390 q 113 603 63 511 q 247 743 164 694 q 419 792 329 792 q 678 678 594 792 q 763 386 763 564 q 712 174 763 265 q 578 33 661 82 q 406 -15 496 -15 q 147 99 231 -15 q 63 390 63 213 m 413 57 q 578 139 519 57 q 636 378 636 221 q 582 624 636 528 q 414 719 528 719 q 248 638 307 719 q 189 399 189 556 q 244 152 189 247 q 413 57 299 57 m 671 771 q 781 819 746 771 q 825 929 817 868 q 826 953 828 947 l 924 953 q 926 922 926 931 q 891 810 926 864 q 796 724 856 757 q 671 692 736 692 l 671 771 m 344 953 l 561 1219 l 649 1144 q 525 1020 622 1104 q 383 915 428 936 l 344 953 z "},"ợ":{"ha":826,"x_min":63,"x_max":926,"o":"m 63 390 q 113 603 63 511 q 247 743 164 694 q 419 792 329 792 q 678 678 594 792 q 763 386 763 564 q 712 174 763 265 q 578 33 661 82 q 406 -15 496 -15 q 147 99 231 -15 q 63 390 63 213 m 413 57 q 578 139 519 57 q 636 378 636 221 q 582 624 636 528 q 414 719 528 719 q 248 638 307 719 q 189 399 189 556 q 244 152 189 247 q 413 57 299 57 m 671 771 q 781 819 746 771 q 825 929 817 868 q 826 953 828 947 l 924 953 q 926 922 926 931 q 891 810 926 864 q 796 724 856 757 q 671 692 736 692 l 671 771 m 406 -247 q 360 -227 378 -247 q 343 -176 343 -207 q 363 -117 343 -142 q 418 -93 382 -93 q 465 -115 447 -93 q 483 -164 483 -136 q 464 -224 483 -200 q 407 -247 444 -247 l 406 -247 z "},"ờ":{"ha":826,"x_min":63,"x_max":926,"o":"m 63 390 q 113 603 63 511 q 247 743 164 694 q 419 792 329 792 q 678 678 594 792 q 763 386 763 564 q 712 174 763 265 q 578 33 661 82 q 406 -15 496 -15 q 147 99 231 -15 q 63 390 63 213 m 413 57 q 578 139 519 57 q 636 378 636 221 q 582 624 636 528 q 414 719 528 719 q 248 638 307 719 q 189 399 189 556 q 244 152 189 247 q 413 57 299 57 m 671 771 q 781 819 746 771 q 825 929 817 868 q 826 953 828 947 l 924 953 q 926 922 926 931 q 891 810 926 864 q 796 724 856 757 q 671 692 736 692 l 671 771 m 454 915 q 317 1017 417 931 q 192 1144 218 1104 l 279 1219 l 496 953 l 456 915 l 454 915 z "},"ở":{"ha":826,"x_min":63,"x_max":926,"o":"m 63 390 q 113 603 63 511 q 247 743 164 694 q 419 792 329 792 q 678 678 594 792 q 763 386 763 564 q 712 174 763 265 q 578 33 661 82 q 406 -15 496 -15 q 147 99 231 -15 q 63 390 63 213 m 413 57 q 578 139 519 57 q 636 378 636 221 q 582 624 636 528 q 414 719 528 719 q 248 638 307 719 q 189 399 189 556 q 244 152 189 247 q 413 57 299 57 m 671 771 q 781 819 746 771 q 825 929 817 868 q 826 953 828 947 l 924 953 q 926 922 926 931 q 891 810 926 864 q 796 724 856 757 q 671 692 736 692 l 671 771 m 364 867 q 347 894 354 879 q 339 921 339 910 q 350 951 339 939 q 386 978 361 963 q 418 1000 407 990 q 433 1025 429 1010 l 433 1032 q 414 1076 433 1058 q 354 1100 394 1094 l 342 1100 q 306 1096 314 1100 l 301 1169 q 326 1177 304 1174 q 364 1181 347 1181 q 482 1144 439 1181 q 525 1044 525 1108 q 507 989 525 1010 q 453 946 489 968 q 418 921 428 929 q 404 892 404 910 q 407 875 404 886 l 364 867 z "},"ỡ":{"ha":826,"x_min":63,"x_max":926,"o":"m 63 390 q 113 603 63 511 q 247 743 164 694 q 419 792 329 792 q 678 678 594 792 q 763 386 763 564 q 712 174 763 265 q 578 33 661 82 q 406 -15 496 -15 q 147 99 231 -15 q 63 390 63 213 m 413 57 q 578 139 519 57 q 636 378 636 221 q 582 624 636 528 q 414 719 528 719 q 248 638 307 719 q 189 399 189 556 q 244 152 189 247 q 413 57 299 57 m 671 771 q 781 819 746 771 q 825 929 817 868 q 826 953 828 947 l 924 953 q 926 922 926 931 q 891 810 926 864 q 796 724 856 757 q 671 692 736 692 l 671 771 m 140 978 q 203 1074 153 1029 q 321 1118 253 1118 q 388 1101 361 1118 q 443 1051 414 1083 q 486 1013 468 1025 q 529 1000 504 1000 q 593 1026 571 1000 q 629 1089 615 1053 l 686 1057 q 626 956 668 996 q 519 917 583 917 q 454 933 481 917 q 397 981 428 950 q 349 1022 369 1008 q 303 1035 329 1035 q 239 1010 261 1035 q 197 946 217 985 l 140 978 z "},"ő":{"ha":826,"x_min":63,"x_max":810,"o":"m 483 1160 q 369 1033 454 1111 q 232 918 285 954 l 193 949 l 404 1226 l 483 1160 m 810 1156 q 695 1033 783 1111 q 551 918 607 954 l 514 951 l 736 1221 l 810 1156 m 63 390 q 113 603 63 511 q 247 743 164 694 q 419 792 329 792 q 678 678 594 792 q 763 386 763 564 q 712 174 763 265 q 578 33 661 82 q 406 -15 496 -15 q 147 99 231 -15 q 63 390 63 213 m 413 57 q 578 139 519 57 q 636 378 636 221 q 582 624 636 528 q 414 719 528 719 q 248 638 307 719 q 189 399 189 556 q 244 152 189 247 q 413 57 299 57 z "},"ō":{"ha":826,"x_min":63,"x_max":763,"o":"m 599 1056 l 599 971 l 236 971 l 236 1056 l 599 1056 m 63 390 q 113 603 63 511 q 247 743 164 694 q 419 792 329 792 q 678 678 594 792 q 763 386 763 564 q 712 174 763 265 q 578 33 661 82 q 406 -15 496 -15 q 147 99 231 -15 q 63 390 63 213 m 413 57 q 578 139 519 57 q 636 378 636 221 q 582 624 636 528 q 414 719 528 719 q 248 638 307 719 q 189 399 189 556 q 244 152 189 247 q 413 57 299 57 z "},"ø":{"ha":826,"x_min":63,"x_max":763,"o":"m 63 390 q 113 603 63 511 q 247 743 164 694 q 419 792 329 792 q 531 778 475 792 l 578 903 l 625 890 l 579 758 q 717 614 672 713 q 763 386 763 515 q 712 174 763 265 q 578 33 661 82 q 406 -15 496 -15 q 296 -1 351 -15 l 246 -133 l 194 -119 l 247 17 q 108 161 153 63 q 63 390 63 260 m 189 399 q 212 224 189 300 q 283 104 235 147 l 501 700 q 414 719 463 719 q 248 638 307 719 q 189 399 189 556 m 413 57 q 578 139 519 57 q 636 378 636 221 q 614 551 636 475 q 544 671 592 626 l 325 76 q 413 57 364 57 z "},"õ":{"ha":826,"x_min":63,"x_max":763,"o":"m 146 978 q 208 1074 158 1029 q 326 1118 258 1118 q 393 1101 367 1118 q 449 1051 419 1083 q 492 1013 474 1025 q 535 1000 510 1000 q 599 1026 576 1000 q 635 1089 621 1053 l 692 1057 q 631 956 674 996 q 525 917 589 917 q 460 933 486 917 q 403 981 435 950 q 355 1022 375 1008 q 308 1035 335 1035 q 244 1010 267 1035 q 203 946 222 985 l 146 978 m 63 390 q 113 603 63 511 q 247 743 164 694 q 419 792 329 792 q 678 678 594 792 q 763 386 763 564 q 712 174 763 265 q 578 33 661 82 q 406 -15 496 -15 q 147 99 231 -15 q 63 390 63 213 m 413 57 q 578 139 519 57 q 636 378 636 221 q 582 624 636 528 q 414 719 528 719 q 248 638 307 719 q 189 399 189 556 q 244 152 189 247 q 413 57 299 57 z "},"œ":{"ha":1331,"x_min":64,"x_max":1268,"o":"m 408 -15 q 149 94 233 -15 q 64 390 64 204 q 115 602 64 511 q 249 742 167 693 q 424 792 332 792 q 597 749 525 792 q 708 628 669 707 q 833 749 757 706 q 1001 792 908 792 q 1193 721 1124 792 q 1268 517 1263 650 q 1260 394 1268 431 l 765 394 q 831 157 765 250 q 1015 64 896 64 q 1135 85 1074 64 q 1231 135 1196 106 l 1253 83 q 1135 13 1211 42 q 982 -15 1058 -15 q 810 28 882 -15 q 696 153 738 72 q 574 30 649 75 q 408 -15 499 -15 m 1143 460 q 1146 521 1146 499 q 1104 667 1146 613 q 974 721 1063 721 q 767 460 783 721 l 1143 460 m 414 58 q 580 138 521 58 q 639 379 639 218 q 583 626 639 532 q 415 719 528 719 q 249 637 307 719 q 190 399 190 554 q 247 148 190 238 q 414 58 304 58 z "},"p":{"ha":867,"x_min":42,"x_max":803,"o":"m 803 414 q 754 197 803 294 q 616 42 706 99 q 411 -15 526 -15 q 329 -9 372 -15 q 258 7 286 -3 l 261 -111 l 261 -261 l 415 -275 l 415 -336 l 43 -336 l 43 -275 l 150 -261 l 150 679 l 42 703 l 42 765 l 219 788 l 222 788 l 247 765 l 247 681 q 356 759 292 726 q 499 792 419 792 q 649 751 579 792 q 760 626 718 711 q 803 414 803 542 m 453 707 q 342 682 393 707 q 261 626 290 657 l 261 97 q 317 65 272 79 q 417 50 363 50 q 609 138 536 50 q 682 399 682 226 q 617 630 682 553 q 453 707 553 707 z "},"ṗ":{"ha":867,"x_min":42,"x_max":803,"o":"m 483 931 q 433 953 451 931 q 414 1010 414 976 q 435 1074 414 1047 q 496 1101 457 1101 q 549 1078 529 1101 q 568 1022 568 1054 q 547 956 568 982 q 485 931 525 931 l 483 931 m 803 414 q 754 197 803 294 q 616 42 706 99 q 411 -15 526 -15 q 329 -9 372 -15 q 258 7 286 -3 l 261 -111 l 261 -261 l 415 -275 l 415 -336 l 43 -336 l 43 -275 l 150 -261 l 150 679 l 42 703 l 42 765 l 219 788 l 222 788 l 247 765 l 247 681 q 356 759 292 726 q 499 792 419 792 q 649 751 579 792 q 760 626 718 711 q 803 414 803 542 m 453 707 q 342 682 393 707 q 261 626 290 657 l 261 97 q 317 65 272 79 q 417 50 363 50 q 609 138 536 50 q 682 399 682 226 q 617 630 682 553 q 453 707 553 707 z "},"þ":{"ha":833,"x_min":-4,"x_max":769,"o":"m 199 1138 l 201 1138 l 228 1118 l 228 696 q 331 764 271 736 q 465 792 392 792 q 616 751 547 792 q 727 626 685 711 q 769 414 769 542 q 721 197 769 294 q 582 42 672 99 q 374 -15 492 -15 q 224 0 303 -15 l 226 -92 l 228 -267 l 388 -282 l 388 -336 l 7 -336 l 7 -282 l 115 -267 l 115 1050 l -4 1063 l -4 1114 l 199 1138 m 419 707 q 310 679 361 707 q 228 618 258 651 l 228 104 q 283 69 238 82 q 383 56 328 56 q 575 144 503 56 q 647 403 647 232 q 583 631 647 556 q 419 707 518 707 z "},"q":{"ha":840,"x_min":64,"x_max":815,"o":"m 450 -279 l 606 -265 l 606 -32 l 610 88 q 369 -15 504 -15 q 219 27 289 -15 q 106 157 149 69 q 64 371 64 244 q 113 586 64 490 q 251 737 161 682 q 460 792 340 792 q 632 768 543 792 l 694 788 l 718 765 l 718 -265 l 815 -279 l 815 -336 l 450 -336 l 450 -279 m 415 65 q 525 91 475 65 q 606 149 575 117 l 606 682 q 549 715 597 700 q 449 731 501 731 q 258 643 331 731 q 186 382 186 556 q 217 207 186 278 q 299 101 247 136 q 415 65 351 65 z "},"r":{"ha":625,"x_min":68,"x_max":593,"o":"m 68 58 l 179 67 l 179 679 l 72 703 l 72 765 l 249 788 l 251 788 l 278 765 l 278 743 l 275 638 l 278 638 q 315 680 281 640 q 416 756 349 719 q 551 792 483 792 q 593 786 574 792 l 593 664 q 569 672 588 668 q 529 676 550 676 q 394 653 450 676 q 292 594 339 629 l 292 68 l 476 57 l 476 0 l 68 0 l 68 58 z "},"ŕ":{"ha":625,"x_min":68,"x_max":593,"o":"m 68 58 l 179 67 l 179 679 l 72 703 l 72 765 l 249 788 l 251 788 l 278 765 l 278 743 l 275 638 l 278 638 q 315 680 281 640 q 416 756 349 719 q 551 792 483 792 q 593 786 574 792 l 593 664 q 569 672 588 668 q 529 676 550 676 q 394 653 450 676 q 292 594 339 629 l 292 68 l 476 57 l 476 0 l 68 0 l 68 58 m 285 953 l 501 1219 l 589 1144 q 465 1020 563 1104 q 324 915 368 936 l 285 953 z "},"ř":{"ha":625,"x_min":68,"x_max":594,"o":"m 68 58 l 179 67 l 179 679 l 72 703 l 72 765 l 249 788 l 251 788 l 278 765 l 278 743 l 275 638 l 278 638 q 315 680 281 640 q 416 756 349 719 q 551 792 483 792 q 593 786 574 792 l 593 664 q 569 672 588 668 q 529 676 550 676 q 394 653 450 676 q 292 594 339 629 l 292 68 l 476 57 l 476 0 l 68 0 l 68 58 m 161 1218 l 354 1008 l 551 1218 l 594 1190 l 407 919 l 301 919 l 113 1189 l 161 1218 z "},"ŗ":{"ha":625,"x_min":68,"x_max":593,"o":"m 68 58 l 179 67 l 179 679 l 72 703 l 72 765 l 249 788 l 251 788 l 278 765 l 278 743 l 275 638 l 278 638 q 315 680 281 640 q 416 756 349 719 q 551 792 483 792 q 593 786 574 792 l 593 664 q 569 672 588 668 q 529 676 550 676 q 394 653 450 676 q 292 594 339 629 l 292 68 l 476 57 l 476 0 l 68 0 l 68 58 m 346 -192 q 325 -283 346 -242 q 279 -349 304 -324 q 242 -378 254 -374 l 240 -378 l 203 -351 l 203 -343 q 237 -304 224 -333 q 250 -243 250 -275 q 242 -214 250 -225 q 221 -193 235 -203 q 201 -173 208 -185 q 194 -142 194 -161 q 215 -94 194 -108 q 256 -81 236 -81 l 261 -81 q 323 -110 300 -81 q 346 -192 346 -139 z "},"s":{"ha":689,"x_min":81,"x_max":618,"o":"m 176 110 q 240 68 192 86 q 344 50 289 50 q 514 175 514 50 q 467 267 514 232 q 306 346 419 303 q 142 442 193 386 q 90 590 90 497 q 127 694 90 650 q 226 763 164 739 q 360 788 288 788 q 478 775 431 788 q 574 744 526 763 l 574 579 l 506 579 l 481 681 q 431 711 471 699 q 344 724 392 724 q 236 694 278 724 q 194 614 194 664 q 215 540 194 569 q 267 494 236 511 q 351 454 297 476 l 378 443 q 506 385 457 413 q 586 315 554 358 q 618 206 618 271 q 540 44 618 103 q 331 -15 461 -15 q 194 4 271 -15 q 81 43 118 24 l 81 218 l 156 218 l 176 110 z "},"ś":{"ha":689,"x_min":81,"x_max":618,"o":"m 176 110 q 240 68 192 86 q 344 50 289 50 q 514 175 514 50 q 467 267 514 232 q 306 346 419 303 q 142 442 193 386 q 90 590 90 497 q 127 694 90 650 q 226 763 164 739 q 360 788 288 788 q 478 775 431 788 q 574 744 526 763 l 574 579 l 506 579 l 481 681 q 431 711 471 699 q 344 724 392 724 q 236 694 278 724 q 194 614 194 664 q 215 540 194 569 q 267 494 236 511 q 351 454 297 476 l 378 443 q 506 385 457 413 q 586 315 554 358 q 618 206 618 271 q 540 44 618 103 q 331 -15 461 -15 q 194 4 271 -15 q 81 43 118 24 l 81 218 l 156 218 l 176 110 m 275 953 l 492 1219 l 579 1144 q 456 1020 553 1104 q 314 915 358 936 l 275 953 z "},"š":{"ha":700,"x_min":81,"x_max":618,"o":"m 174 1218 l 367 1008 l 564 1218 l 607 1190 l 419 919 l 314 919 l 125 1189 l 174 1218 m 176 110 q 240 68 192 86 q 344 50 289 50 q 514 175 514 50 q 467 267 514 232 q 306 346 419 303 q 142 442 193 386 q 90 590 90 497 q 127 694 90 650 q 226 763 164 739 q 360 788 288 788 q 478 775 431 788 q 574 744 526 763 l 574 579 l 506 579 l 481 681 q 431 711 471 699 q 344 724 392 724 q 236 694 278 724 q 194 614 194 664 q 215 540 194 569 q 267 494 236 511 q 351 454 297 476 l 378 443 q 506 385 457 413 q 586 315 554 358 q 618 206 618 271 q 540 44 618 103 q 331 -15 461 -15 q 194 4 271 -15 q 81 43 118 24 l 81 218 l 156 218 l 176 110 z "},"ŝ":{"ha":700,"x_min":81,"x_max":618,"o":"m 313 1204 l 417 1204 l 604 933 l 556 904 l 364 1114 l 164 904 l 119 932 l 313 1204 m 176 110 q 240 68 192 86 q 344 50 289 50 q 514 175 514 50 q 467 267 514 232 q 306 346 419 303 q 142 442 193 386 q 90 590 90 497 q 127 694 90 650 q 226 763 164 739 q 360 788 288 788 q 478 775 431 788 q 574 744 526 763 l 574 579 l 506 579 l 481 681 q 431 711 471 699 q 344 724 392 724 q 236 694 278 724 q 194 614 194 664 q 215 540 194 569 q 267 494 236 511 q 351 454 297 476 l 378 443 q 506 385 457 413 q 586 315 554 358 q 618 206 618 271 q 540 44 618 103 q 331 -15 461 -15 q 194 4 271 -15 q 81 43 118 24 l 81 218 l 156 218 l 176 110 z "},"ș":{"ha":700,"x_min":81,"x_max":618,"o":"m 176 110 q 240 68 192 86 q 344 50 289 50 q 514 175 514 50 q 467 267 514 232 q 306 346 419 303 q 142 442 193 386 q 90 590 90 497 q 127 694 90 650 q 226 763 164 739 q 360 788 288 788 q 478 775 431 788 q 574 744 526 763 l 574 579 l 506 579 l 481 681 q 431 711 471 699 q 344 724 392 724 q 236 694 278 724 q 194 614 194 664 q 215 540 194 569 q 267 494 236 511 q 351 454 297 476 l 378 443 q 506 385 457 413 q 586 315 554 358 q 618 206 618 271 q 540 44 618 103 q 331 -15 461 -15 q 194 4 271 -15 q 81 43 118 24 l 81 218 l 156 218 l 176 110 m 436 -192 q 415 -283 436 -242 q 369 -349 394 -324 q 332 -378 344 -374 l 331 -378 l 293 -351 l 293 -343 q 327 -304 314 -333 q 340 -243 340 -275 q 333 -214 340 -225 q 311 -193 325 -203 q 292 -173 299 -185 q 285 -142 285 -161 q 306 -94 285 -108 q 346 -81 326 -81 l 351 -81 q 413 -110 390 -81 q 436 -192 436 -139 z "},"ṡ":{"ha":689,"x_min":81,"x_max":618,"o":"m 351 931 q 301 953 319 931 q 282 1010 282 976 q 303 1074 282 1047 q 364 1101 325 1101 q 417 1078 397 1101 q 436 1022 436 1054 q 415 956 436 982 q 353 931 393 931 l 351 931 m 176 110 q 240 68 192 86 q 344 50 289 50 q 514 175 514 50 q 467 267 514 232 q 306 346 419 303 q 142 442 193 386 q 90 590 90 497 q 127 694 90 650 q 226 763 164 739 q 360 788 288 788 q 478 775 431 788 q 574 744 526 763 l 574 579 l 506 579 l 481 681 q 431 711 471 699 q 344 724 392 724 q 236 694 278 724 q 194 614 194 664 q 215 540 194 569 q 267 494 236 511 q 351 454 297 476 l 378 443 q 506 385 457 413 q 586 315 554 358 q 618 206 618 271 q 540 44 618 103 q 331 -15 461 -15 q 194 4 271 -15 q 81 43 118 24 l 81 218 l 156 218 l 176 110 z "},"ß":{"ha":865,"x_min":36,"x_max":833,"o":"m 135 643 q 187 884 135 783 q 326 1036 239 985 q 514 1088 413 1088 q 678 1041 613 1088 q 743 903 743 994 q 719 804 743 844 q 651 717 696 764 q 602 658 618 682 q 586 603 586 633 q 611 535 586 565 q 688 463 636 504 q 763 392 733 422 q 813 319 792 361 q 833 224 833 276 q 748 46 833 107 q 528 -15 663 -15 q 467 -10 501 -15 q 411 0 433 -6 l 411 92 q 547 67 474 67 q 672 103 632 67 q 713 197 713 139 q 683 292 713 251 q 597 382 654 332 q 508 476 538 435 q 478 576 478 518 q 494 635 478 607 q 544 701 511 663 q 606 787 585 750 q 626 869 626 824 q 482 1015 626 1015 q 311 926 374 1015 q 249 665 249 836 l 249 0 l 36 0 l 36 60 l 135 71 l 135 643 z "},"ə":{"ha":750,"x_min":63,"x_max":685,"o":"m 350 786 q 598 676 511 786 q 685 382 685 565 q 639 172 685 264 q 512 30 593 81 q 329 -21 431 -21 q 137 50 206 -21 q 63 254 68 121 q 71 376 63 340 l 565 376 q 499 615 565 522 q 314 707 433 707 q 194 686 256 707 q 100 636 133 665 l 78 688 q 195 758 118 729 q 350 786 272 786 m 188 311 q 183 250 183 282 q 227 104 185 158 q 357 50 269 50 q 564 311 547 50 l 188 311 z "},"t":{"ha":564,"x_min":49,"x_max":536,"o":"m 303 -15 q 192 19 229 -15 q 154 140 154 53 l 154 689 l 49 689 l 49 743 q 129 765 118 758 q 160 808 150 776 q 182 883 168 829 q 203 968 196 938 l 267 968 l 267 771 l 513 771 l 513 689 l 267 689 l 267 239 q 272 126 267 158 q 294 83 278 93 q 353 74 311 74 q 443 85 393 74 q 518 108 493 96 l 536 56 q 431 8 504 31 q 303 -15 357 -15 z "},"ŧ":{"ha":564,"x_min":49,"x_max":536,"o":"m 154 689 l 49 689 l 49 743 q 129 765 118 758 q 160 808 150 776 q 182 883 168 829 q 203 968 196 938 l 267 968 l 267 771 l 513 771 l 513 689 l 267 689 l 267 500 l 513 500 l 513 424 l 267 424 l 267 239 q 272 126 267 158 q 294 83 278 93 q 353 74 311 74 q 443 85 393 74 q 518 108 493 96 l 519 108 l 536 56 q 431 8 504 31 q 303 -15 357 -15 l 301 -15 q 191 19 228 -15 q 154 140 154 53 l 154 424 l 50 424 l 50 500 l 154 500 l 154 689 z "},"ť":{"ha":564,"x_min":49,"x_max":549,"o":"m 303 -15 q 192 19 229 -15 q 154 140 154 53 l 154 689 l 49 689 l 49 743 q 129 765 118 758 q 160 808 150 776 q 182 883 168 829 q 203 968 196 938 l 267 968 l 267 771 l 513 771 l 513 689 l 267 689 l 267 239 q 272 126 267 158 q 294 83 278 93 q 353 74 311 74 q 443 85 393 74 q 518 108 493 96 l 536 56 q 431 8 504 31 q 303 -15 357 -15 m 421 881 l 419 896 q 440 983 433 936 q 447 1069 447 1029 q 437 1177 447 1125 q 413 1247 426 1229 l 419 1271 l 508 1290 q 538 1224 526 1271 q 549 1128 549 1178 q 526 971 549 1047 q 469 861 503 894 l 421 881 z "},"ţ":{"ha":564,"x_min":49,"x_max":536,"o":"m 536 56 q 469 21 514 39 q 376 -7 424 3 q 431 -87 406 -37 q 457 -190 457 -137 q 414 -294 457 -262 q 288 -326 371 -326 q 236 -321 264 -326 q 189 -308 208 -315 l 190 -226 q 223 -234 204 -231 q 254 -237 242 -237 q 335 -218 310 -237 q 360 -139 360 -199 q 348 -73 360 -107 q 321 -14 336 -39 q 303 -15 315 -15 q 192 19 229 -15 q 154 140 154 53 l 154 689 l 49 689 l 49 743 q 129 765 118 758 q 160 808 150 776 q 182 883 168 829 q 203 968 196 938 l 267 968 l 267 771 l 513 771 l 513 689 l 267 689 l 267 239 q 272 126 267 158 q 294 83 278 93 q 353 74 311 74 q 443 85 393 74 q 518 108 493 96 l 536 56 z "},"ț":{"ha":564,"x_min":49,"x_max":536,"o":"m 303 -15 q 192 19 229 -15 q 154 140 154 53 l 154 689 l 49 689 l 49 743 q 129 765 118 758 q 160 808 150 776 q 182 883 168 829 q 203 968 196 938 l 267 968 l 267 771 l 513 771 l 513 689 l 267 689 l 267 239 q 272 126 267 158 q 294 83 278 93 q 353 74 311 74 q 443 85 393 74 q 518 108 493 96 l 536 56 q 431 8 504 31 q 303 -15 357 -15 m 399 -192 q 378 -283 399 -242 q 332 -349 357 -324 q 294 -378 307 -374 l 293 -378 l 256 -351 l 256 -343 q 290 -304 276 -333 q 303 -243 303 -275 q 295 -214 303 -225 q 274 -193 288 -203 q 254 -173 261 -185 q 247 -142 247 -161 q 268 -94 247 -108 q 308 -81 289 -81 l 314 -81 q 376 -110 353 -81 q 399 -192 399 -139 z "},"ṫ":{"ha":564,"x_min":49,"x_max":536,"o":"m 303 -15 q 192 19 229 -15 q 154 140 154 53 l 154 689 l 49 689 l 49 743 q 129 765 118 758 q 160 808 150 776 q 182 883 168 829 q 203 968 196 938 l 267 968 l 267 771 l 513 771 l 513 689 l 267 689 l 267 239 q 272 126 267 158 q 294 83 278 93 q 353 74 311 74 q 443 85 393 74 q 518 108 493 96 l 536 56 q 431 8 504 31 q 303 -15 357 -15 m 232 1069 q 181 1092 200 1069 q 163 1149 163 1115 q 184 1213 163 1186 q 244 1240 206 1240 q 297 1217 278 1240 q 317 1161 317 1193 q 295 1095 317 1121 q 233 1069 274 1069 l 232 1069 z "},"u":{"ha":872,"x_min":54,"x_max":815,"o":"m 699 -12 q 646 0 663 -12 q 629 46 629 13 l 629 100 q 508 19 578 54 q 369 -15 439 -15 q 190 56 243 -15 q 136 286 136 126 l 136 694 l 54 718 l 54 769 l 222 788 l 224 788 l 249 771 l 249 303 q 261 166 249 215 q 307 93 274 117 q 404 69 340 69 q 521 96 465 69 q 617 158 576 122 l 617 694 l 511 718 l 511 769 l 696 788 l 697 788 l 729 771 l 729 61 l 815 61 l 814 8 q 774 -3 807 7 q 699 -12 740 -12 z "},"ú":{"ha":872,"x_min":54,"x_max":815,"o":"m 699 -12 q 646 0 663 -12 q 629 46 629 13 l 629 100 q 508 19 578 54 q 369 -15 439 -15 q 190 56 243 -15 q 136 286 136 126 l 136 694 l 54 718 l 54 769 l 222 788 l 224 788 l 249 771 l 249 303 q 261 166 249 215 q 307 93 274 117 q 404 69 340 69 q 521 96 465 69 q 617 158 576 122 l 617 694 l 511 718 l 511 769 l 696 788 l 697 788 l 729 771 l 729 61 l 815 61 l 814 8 q 774 -3 807 7 q 699 -12 740 -12 m 339 953 l 556 1219 l 643 1144 q 519 1020 617 1104 q 378 915 422 936 l 339 953 z "},"ŭ":{"ha":872,"x_min":54,"x_max":815,"o":"m 424 925 q 303 957 354 925 q 226 1041 253 989 q 199 1154 199 1093 q 201 1186 199 1175 l 264 1186 q 265 1163 264 1172 q 309 1065 271 1108 q 424 1021 347 1021 q 537 1065 500 1021 q 578 1163 574 1108 q 579 1186 581 1181 l 640 1186 q 643 1156 643 1164 q 616 1042 643 1096 q 539 957 589 989 q 424 925 489 925 m 699 -12 q 646 0 663 -12 q 629 46 629 13 l 629 100 q 508 19 578 54 q 369 -15 439 -15 q 190 56 243 -15 q 136 286 136 126 l 136 694 l 54 718 l 54 769 l 222 788 l 224 788 l 249 771 l 249 303 q 261 166 249 215 q 307 93 274 117 q 404 69 340 69 q 521 96 465 69 q 617 158 576 122 l 617 694 l 511 718 l 511 769 l 696 788 l 697 788 l 729 771 l 729 61 l 815 61 l 814 8 q 774 -3 807 7 q 699 -12 740 -12 z "},"û":{"ha":872,"x_min":54,"x_max":815,"o":"m 369 1204 l 474 1204 l 661 933 l 613 904 l 421 1114 l 221 904 l 176 932 l 369 1204 m 699 -12 q 646 0 663 -12 q 629 46 629 13 l 629 100 q 508 19 578 54 q 369 -15 439 -15 q 190 56 243 -15 q 136 286 136 126 l 136 694 l 54 718 l 54 769 l 222 788 l 224 788 l 249 771 l 249 303 q 261 166 249 215 q 307 93 274 117 q 404 69 340 69 q 521 96 465 69 q 617 158 576 122 l 617 694 l 511 718 l 511 769 l 696 788 l 697 788 l 729 771 l 729 61 l 815 61 l 814 8 q 774 -3 807 7 q 699 -12 740 -12 z "},"ü":{"ha":872,"x_min":54,"x_max":815,"o":"m 699 -12 q 646 0 663 -12 q 629 46 629 13 l 629 100 q 508 19 578 54 q 369 -15 439 -15 q 190 56 243 -15 q 136 286 136 126 l 136 694 l 54 718 l 54 769 l 222 788 l 224 788 l 249 771 l 249 303 q 261 166 249 215 q 307 93 274 117 q 404 69 340 69 q 521 96 465 69 q 617 158 576 122 l 617 694 l 511 718 l 511 769 l 696 788 l 697 788 l 729 771 l 729 61 l 815 61 l 814 8 q 774 -3 807 7 q 699 -12 740 -12 m 249 931 q 197 953 217 931 q 178 1010 178 975 q 199 1074 178 1047 q 260 1101 221 1101 q 313 1077 293 1101 q 333 1021 333 1053 q 311 956 333 982 q 249 931 289 931 m 551 931 q 501 953 521 931 q 482 1010 482 976 q 503 1074 482 1047 q 564 1101 525 1101 q 617 1077 597 1101 q 638 1021 638 1053 q 615 956 638 982 q 551 931 593 931 z "},"ụ":{"ha":872,"x_min":54,"x_max":815,"o":"m 699 -12 q 646 0 663 -12 q 629 46 629 13 l 629 100 q 508 19 578 54 q 369 -15 439 -15 q 190 56 243 -15 q 136 286 136 126 l 136 694 l 54 718 l 54 769 l 222 788 l 224 788 l 249 771 l 249 303 q 261 166 249 215 q 307 93 274 117 q 404 69 340 69 q 521 96 465 69 q 617 158 576 122 l 617 694 l 511 718 l 511 769 l 696 788 l 697 788 l 729 771 l 729 61 l 815 61 l 814 8 q 774 -3 807 7 q 699 -12 740 -12 m 428 -247 q 383 -227 400 -247 q 365 -176 365 -207 q 385 -117 365 -142 q 440 -93 404 -93 q 488 -115 469 -93 q 506 -164 506 -136 q 486 -224 506 -200 q 429 -247 467 -247 l 428 -247 z "},"ù":{"ha":872,"x_min":54,"x_max":815,"o":"m 454 915 q 317 1017 417 931 q 192 1144 218 1104 l 279 1219 l 496 953 l 456 915 l 454 915 m 699 -12 q 646 0 663 -12 q 629 46 629 13 l 629 100 q 508 19 578 54 q 369 -15 439 -15 q 190 56 243 -15 q 136 286 136 126 l 136 694 l 54 718 l 54 769 l 222 788 l 224 788 l 249 771 l 249 303 q 261 166 249 215 q 307 93 274 117 q 404 69 340 69 q 521 96 465 69 q 617 158 576 122 l 617 694 l 511 718 l 511 769 l 696 788 l 697 788 l 729 771 l 729 61 l 815 61 l 814 8 q 774 -3 807 7 q 699 -12 740 -12 z "},"ủ":{"ha":872,"x_min":54,"x_max":815,"o":"m 699 -12 q 646 0 663 -12 q 629 46 629 13 l 629 100 q 508 19 578 54 q 369 -15 439 -15 q 190 56 243 -15 q 136 286 136 126 l 136 694 l 54 718 l 54 769 l 222 788 l 224 788 l 249 771 l 249 303 q 261 166 249 215 q 307 93 274 117 q 404 69 340 69 q 521 96 465 69 q 617 158 576 122 l 617 694 l 511 718 l 511 769 l 696 788 l 697 788 l 729 771 l 729 61 l 815 61 l 814 8 q 774 -3 807 7 q 699 -12 740 -12 m 358 867 q 341 894 349 879 q 333 921 333 910 q 344 951 333 939 q 381 978 356 963 q 413 1000 401 990 q 428 1025 424 1010 l 428 1032 q 408 1076 428 1058 q 349 1100 389 1094 l 336 1100 q 300 1096 308 1100 l 296 1169 q 320 1177 299 1174 q 358 1181 342 1181 q 476 1144 433 1181 q 519 1044 519 1108 q 501 989 519 1010 q 447 946 483 968 q 413 921 422 929 q 399 892 399 910 q 401 875 399 886 l 358 867 z "}}}
